<svg xmlns="http://www.w3.org/2000/svg" version="1.1" xmlns:xlink="http://www.w3.org/1999/xlink" width="512" height="512" x="0" y="0" viewBox="0 0 512 512" style="enable-background:new 0 0 512 512" xml:space="preserve" class=""><g><path d="M448.842 385.686V129.325c0-5.047-2.693-9.711-7.064-12.235L263.064 13.91a14.125 14.125 0 0 0-14.127 0L70.222 117.09a14.128 14.128 0 0 0-7.064 12.235v256.361c0 5.047 2.693 9.711 7.064 12.235l178.714 103.181a14.125 14.125 0 0 0 14.127 0l178.714-103.181a14.127 14.127 0 0 0 7.065-12.235z" style="" fill="#ffab56" data-original="#ffab56"></path><path d="M247.892 260.649a16.2 16.2 0 0 0 8.108 2.173c2.799 0 5.599-.724 8.108-2.173l184.734-106.657v-24.667c0-2.22-.547-4.352-1.502-6.273L256 233.523 64.661 123.052c-.955 1.922-1.502 4.054-1.502 6.273v24.668l184.733 106.656z" style="" fill="#ff982a" data-original="#ff982a"></path><path d="M445.576 123.054 256 232.506 66.745 123.239M355.942 171.803 166.686 62.536M256 232.506v263.43" style="stroke-width:15;stroke-linecap:round;stroke-linejoin:round;stroke-miterlimit:10;" fill="none" stroke="#000000" stroke-width="15" stroke-linecap="round" stroke-linejoin="round" stroke-miterlimit="10" data-original="#000000" class=""></path><path d="M299.675 420.235v59.729l100.719-58.15v-59.791z" style="" fill="#6c5e69" data-original="#6c5e69"></path><path d="M379.089 374.337v59.778l21.305-12.301v-59.791z" style="" fill="#574d56" data-original="#574d56"></path><path d="m159.859 400.879 56.81 32.799M263.064 13.91a14.127 14.127 0 0 0-14.128 0L70.222 117.09a14.127 14.127 0 0 0-7.064 12.235v256.361c0 5.047 2.693 9.711 7.064 12.235l178.714 103.181a14.127 14.127 0 0 0 14.128 0l178.714-103.181a14.129 14.129 0 0 0 7.064-12.235v-256.36c0-5.047-2.693-9.711-7.064-12.235l-65.631-37.892L263.064 13.91z" style="stroke-width:15;stroke-linecap:round;stroke-linejoin:round;stroke-miterlimit:10;" fill="none" stroke="#000000" stroke-width="15" stroke-linecap="round" stroke-linejoin="round" stroke-miterlimit="10" data-original="#000000" class=""></path><path d="m347.269 392.727-47.594 27.508v59.729l100.719-58.15v-59.791l-26.619 15.385" style="stroke-width:15;stroke-linecap:round;stroke-linejoin:round;stroke-miterlimit:10;" fill="none" stroke="#000000" stroke-width="15" stroke-linecap="round" stroke-linejoin="round" stroke-miterlimit="10" data-original="#000000" class=""></path><path d="M504.5 332.394H7.5V172.256a5.984 5.984 0 0 1 5.984-5.984h485.032a5.984 5.984 0 0 1 5.984 5.984v160.138z" style="" fill="#6ce79a" data-original="#6ce79a" class=""></path><path d="M498.516 166.272h-24.5a5.984 5.984 0 0 1 5.984 5.984v160.137h24.5V172.256a5.984 5.984 0 0 0-5.984-5.984z" style="" fill="#00d8a2" data-original="#00d8a2"></path><path d="m7.5 332.394 55.658 42.042v-42.042zM504.5 332.394l-55.658 42.042v-42.042z" style="" fill="#00c4a4" data-original="#00c4a4"></path><path d="m7.5 332.394 55.658 42.042v-42.042zM504.5 332.394l-55.658 42.042v-42.042zM84.575 279.351v-59.923l40.514 58.666c.751 1.085 1.556.554 1.556-.766l-.561-58.012M418.287 219.315v60.036M450.581 220.073l-30.373 27.918 32.505 31.36M59.287 219.315v60.036M395.376 224.442a29.875 29.875 0 0 0-16.783-5.127c-16.578 0-30.018 13.439-30.018 30.018s13.439 30.018 30.018 30.018c6.733 0 12.271-2.217 16.475-5.96a24.019 24.019 0 0 0 2.436-2.514M197.466 225.487s-10.773-9.055-23.476-5.229c-11.664 3.514-13.296 16.964-4.857 22.466 0 0 8.281 3.694 17.465 7.082 22.109 8.155 12.585 29.544-5.213 29.544-8.913 0-16.393-3.903-20.921-8.899M219.516 219.315h33.154M236.026 221.232v58.119" style="stroke-width:15;stroke-linecap:round;stroke-linejoin:round;stroke-miterlimit:10;" fill="none" stroke="#000000" stroke-width="15" stroke-linecap="round" stroke-linejoin="round" stroke-miterlimit="10" data-original="#000000" class=""></path><circle cx="295.681" cy="249.333" r="30.018" style="stroke-width:15;stroke-linecap:round;stroke-linejoin:round;stroke-miterlimit:10;" fill="none" stroke="#000000" stroke-width="15" stroke-linecap="round" stroke-linejoin="round" stroke-miterlimit="10" data-original="#000000" class=""></circle><path d="M113.575 332.394H504.5V172.256a5.984 5.984 0 0 0-5.984-5.984H13.484a5.984 5.984 0 0 0-5.984 5.984v160.137h77.075" style="stroke-width:15;stroke-linecap:round;stroke-linejoin:round;stroke-miterlimit:10;" fill="none" stroke="#000000" stroke-width="15" stroke-linecap="round" stroke-linejoin="round" stroke-miterlimit="10" data-original="#000000" class=""></path><path d="m402.505 122.358 16.543 4.234h22.161l38.39-25.755 9.659-23.119-10.1-44.697-21.688-21.004-6.9-2.317a63.795 63.795 0 0 0-9.362-.694c-34.955 0-63.291 28.336-63.291 63.291.001 20.372 9.636 38.484 24.588 50.061z" style="" fill="#6ce79a" data-original="#6ce79a" class=""></path><path d="M450.571 9.7c14.951 11.577 24.587 29.688 24.587 50.061 0 34.955-28.336 63.291-63.291 63.291-3.182 0-6.306-.241-9.362-.694 10.702 8.286 24.122 13.231 38.704 13.231 34.955 0 63.291-28.336 63.291-63.291 0-31.774-23.415-58.073-53.929-62.598z" style="" fill="#00d8a2" data-original="#00d8a2"></path><path d="m417.458 72.782 16.253 16.524 31.248-34.018" style="stroke-width:15;stroke-linecap:round;stroke-linejoin:round;stroke-miterlimit:10;" fill="none" stroke="#000000" stroke-width="15" stroke-linecap="round" stroke-linejoin="round" stroke-miterlimit="10" data-original="#000000" class=""></path><path d="M385.472 42.294c-4.817 8.929-7.554 19.146-7.554 30.003 0 34.955 28.337 63.291 63.291 63.291S504.5 107.252 504.5 72.297 476.163 9.006 441.209 9.006c-13.593 0-26.173 4.299-36.487 11.592" style="stroke-width:15;stroke-linecap:round;stroke-linejoin:round;stroke-miterlimit:10;" fill="none" stroke="#000000" stroke-width="15" stroke-linecap="round" stroke-linejoin="round" stroke-miterlimit="10" data-original="#000000" class=""></path></g></svg>