<svg xmlns="http://www.w3.org/2000/svg" version="1.1" xmlns:xlink="http://www.w3.org/1999/xlink" width="512" height="512" x="0" y="0" viewBox="0 0 512 512" style="enable-background:new 0 0 512 512" xml:space="preserve" class=""><g><path fill="#cbc4e5" d="M310.163 328.639H345.7v31.65h-35.537z" opacity="1" data-original="#cbc4e5"></path><path fill="#f6a96c" d="M130.259 97.096v56.081h92.173v-97.17a5.553 5.553 0 0 0-5.552-5.553H81.397a5.553 5.553 0 0 0-5.553 5.553v35.537h48.863a5.552 5.552 0 0 1 5.552 5.552z" opacity="1" data-original="#f6a96c"></path><path fill="#ffffff" d="M193.734 50.454h-47.73v27.754a3 3 0 0 0 3 3h41.73a3 3 0 0 0 3-3z" opacity="1" data-original="#ffffff"></path><path fill="#ea9b58" d="M107.004 91.544V56.007a5.553 5.553 0 0 1 5.552-5.553H81.397a5.553 5.553 0 0 0-5.553 5.553v35.537z" opacity="1" data-original="#ea9b58" class=""></path><path fill="#fd5426" d="M130.259 153.177h55.526v-30.539c0-6.133-4.972-11.105-11.105-11.105h-44.421z" opacity="1" data-original="#fd5426"></path><path fill="#cbc4e5" d="m116.152 399.637-16.16 27.934c-1.283 2.218-4.485 2.218-5.768 0l-16.16-27.934c-8.989 6.093-14.895 16.376-14.895 28.038 0 18.706 15.195 33.871 33.939 33.871s33.939-15.165 33.939-33.871c0-11.662-5.906-21.945-14.895-28.038z" opacity="1" data-original="#cbc4e5"></path><path fill="#b5adcf" d="M84.125 427.675c0-4.624.932-9.028 2.613-13.043l-8.675-14.995c-8.989 6.093-14.895 16.376-14.895 28.038 0 18.706 15.195 33.871 33.939 33.871 3.658 0 7.177-.584 10.479-1.653-13.614-4.408-23.461-17.162-23.461-32.218z" opacity="1" data-original="#b5adcf"></path><path fill="#08a9f1" d="m71.362 388.051 22.863 39.52c1.283 2.218 4.485 2.218 5.768 0l22.863-39.52z" opacity="1" data-original="#08a9f1"></path><path fill="#cbc4e5" d="m322.872 399.637-16.16 27.934c-1.283 2.218-4.485 2.218-5.768 0l-16.16-27.934c-8.989 6.093-14.895 16.376-14.895 28.038 0 18.706 15.195 33.871 33.939 33.871s33.939-15.165 33.939-33.871c0-11.662-5.906-21.945-14.895-28.038z" opacity="1" data-original="#cbc4e5"></path><path fill="#b5adcf" d="M290.126 427.675c0-4.898 1.047-9.551 2.921-13.754l-8.263-14.283c-8.989 6.093-14.895 16.376-14.895 28.038 0 18.706 15.195 33.871 33.939 33.871a34.01 34.01 0 0 0 10.118-1.531c-13.802-4.299-23.82-17.152-23.82-32.341z" opacity="1" data-original="#b5adcf"></path><path fill="#08a9f1" d="m278.081 388.051 22.863 39.52c1.283 2.218 4.485 2.218 5.768 0l22.863-39.52z" opacity="1" data-original="#08a9f1"></path><path fill="#fd5426" d="M356.969 388.051H50.858c-7.667 0-13.881-6.215-13.881-13.881 0-7.667 6.215-13.881 13.881-13.881h306.111a5.553 5.553 0 0 1 5.553 5.553V382.5a5.554 5.554 0 0 1-5.553 5.551z" opacity="1" data-original="#fd5426"></path><path fill="#fd5426" d="M356.969 388.051H50.858c-7.667 0-13.881-6.215-13.881-13.881 0-7.667 6.215-13.881 13.881-13.881h306.111a5.553 5.553 0 0 1 5.553 5.553V382.5a5.554 5.554 0 0 1-5.553 5.551z" opacity="1" data-original="#fd5426"></path><path fill="#ef4424" d="M89.004 374.17c0-7.667 6.215-13.881 13.881-13.881H50.858c-7.667 0-13.881 6.215-13.881 13.881s6.215 13.882 13.881 13.882h52.027c-7.667-.001-13.881-6.216-13.881-13.882z" opacity="1" data-original="#ef4424"></path><path fill="#08a9f1" d="M130.259 153.177V97.096a5.553 5.553 0 0 0-5.552-5.553H58.076a5.553 5.553 0 0 0-5.552 5.553v56.081z" opacity="1" data-original="#08a9f1"></path><path fill="#0290cf" d="M84.004 153.177V97.096a5.553 5.553 0 0 1 5.552-5.553h-31.48a5.553 5.553 0 0 0-5.552 5.553v56.081z" opacity="1" data-original="#0290cf"></path><path fill="#ffee9a" d="M345.7 153.177V95.053c0-6.133-4.972-11.105-11.105-11.105h-55.526c-6.133 0-11.105 4.972-11.105 11.105v58.124z" opacity="1" data-original="#ffee9a"></path><path fill="#fcdd66" d="M299.004 139.822V95.053c0-6.133 4.972-11.105 11.105-11.105h-31.04c-6.133 0-11.105 4.972-11.105 11.105v18.799c13.662 3.853 24.919 13.428 31.04 25.97z" opacity="1" data-original="#fcdd66"></path><path fill="#57be92" d="M303.289 153.177C299.329 129.805 279.003 112 254.504 112c-24.5 0-44.826 17.805-48.785 41.177z" opacity="1" data-original="#57be92"></path><path fill="#22b27f" d="M237.17 153.177c3.071-18.127 15.987-32.902 33.062-38.622A49.437 49.437 0 0 0 254.504 112c-24.5 0-44.826 17.805-48.785 41.177z" opacity="1" data-original="#22b27f"></path><path fill="#c8effe" d="M352.052 328.639H55.708a5.555 5.555 0 0 1-5.375-4.158L7.684 160.124c-.912-3.516 1.742-6.947 5.375-6.947h381.503l-31.6 166.428a11.105 11.105 0 0 1-10.91 9.034z" opacity="1" data-original="#c8effe"></path><path fill="#99e6fc" d="m91.834 324.481-42.65-164.357c-.912-3.516 1.742-6.947 5.375-6.947h-41.5c-3.633 0-6.287 3.431-5.375 6.947L50.333 324.48a5.553 5.553 0 0 0 5.375 4.158h41.5a5.55 5.55 0 0 1-5.374-4.157z" opacity="1" data-original="#99e6fc"></path><path fill="#fd5426" d="M498.947 110.745h-67.741V94.088c0-6.133 4.972-11.105 11.105-11.105h56.636a5.553 5.553 0 0 1 5.553 5.553v16.658a5.552 5.552 0 0 1-5.553 5.551z" opacity="1" data-original="#fd5426"></path><path fill="#ef4424" d="M473.811 82.982h-31.5c-6.133 0-11.105 4.972-11.105 11.105v16.658h31.5V94.088c0-6.134 4.972-11.106 11.105-11.106z" opacity="1" data-original="#ef4424"></path><path d="M91.004 109.5h-15c-4.143 0-7.5 3.357-7.5 7.5s3.357 7.5 7.5 7.5h15c4.143 0 7.5-3.357 7.5-7.5s-3.358-7.5-7.5-7.5z" fill="#000000" opacity="1" data-original="#000000"></path><circle cx="323.504" cy="107.5" r="7.5" fill="#000000" opacity="1" data-original="#000000"></circle><circle cx="323.504" cy="129.5" r="7.5" fill="#000000" opacity="1" data-original="#000000"></circle><path d="M498.947 75.482h-56.636c-10.259 0-18.605 8.347-18.605 18.605v9.157h-7.294c-11.591 0-21.572 8.265-23.733 19.651l-4.325 22.78H353.2V95.054c0-10.259-8.347-18.605-18.605-18.605H279.07c-10.259 0-18.605 8.347-18.605 18.605v9.775a56.283 56.283 0 0 0-5.96-.329c-8.722 0-17.076 2.024-24.571 5.644V103c0-4.143-3.357-7.5-7.5-7.5s-7.5 3.357-7.5 7.5v17.619c-7.038 6.794-12.367 15.378-15.181 25.058h-6.466v-23.039c0-10.259-8.346-18.604-18.604-18.604h-36.921v-6.938c0-7.196-5.855-13.052-13.053-13.052H83.344v-26.09h55.159v20.255c0 5.79 4.71 10.5 10.5 10.5h41.73c5.79 0 10.5-4.71 10.5-10.5V57.954h13.698V68c0 4.143 3.357 7.5 7.5 7.5s7.5-3.357 7.5-7.5V56.007c0-7.197-5.855-13.053-13.053-13.053H81.397c-7.197 0-13.053 5.855-13.053 13.053v28.037H58.076c-7.197 0-13.053 5.855-13.053 13.052v48.581H13.059c-4.07 0-7.833 1.847-10.323 5.065a12.97 12.97 0 0 0-2.312 11.266l42.649 164.357a13.055 13.055 0 0 0 12.635 9.773h246.955v16.65h-34.66c-4.143 0-7.5 3.357-7.5 7.5s3.357 7.5 7.5 7.5h87.018v12.763H50.857c-3.519 0-6.381-2.863-6.381-6.382s2.862-6.381 6.381-6.381h182.146c4.143 0 7.5-3.357 7.5-7.5s-3.357-7.5-7.5-7.5H50.857c-11.789 0-21.381 9.592-21.381 21.381 0 11.79 9.592 21.382 21.381 21.382h16.178l1.353 2.338c-7.835 7.529-12.719 18.096-12.719 29.785 0 22.813 18.59 41.371 41.439 41.371s41.438-18.559 41.438-41.371c0-11.689-4.884-22.255-12.719-29.784l1.353-2.339h146.575l1.352 2.338c-7.835 7.529-12.72 18.096-12.72 29.785 0 22.813 18.59 41.371 41.439 41.371s41.439-18.559 41.439-41.371c0-11.689-4.885-22.256-12.72-29.785l1.353-2.338h23.069c7.197 0 13.053-5.855 13.053-13.053V365.84c0-7.197-5.855-13.052-13.053-13.052H353.2v-16.701c8.428-.52 15.538-6.693 17.131-15.083l37.084-195.311a9.166 9.166 0 0 1 8.997-7.449h82.535c7.197 0 13.053-5.855 13.053-13.053V88.535c0-7.197-5.856-13.053-13.053-13.053zM153.504 57.954h32.73v15.755h-32.73zm-43.653 337.598-12.743 22.027-12.743-22.027zm13.696 32.123c0 14.541-11.86 26.371-26.438 26.371-14.579 0-26.439-11.83-26.439-26.371a26.173 26.173 0 0 1 5.587-16.186l11.478 19.839c1.93 3.336 5.521 5.407 9.375 5.407s7.445-2.071 9.376-5.407l11.477-19.838a26.183 26.183 0 0 1 5.584 16.185zm193.023-32.123-12.743 22.026-12.743-22.026zm13.697 32.123c0 14.541-11.86 26.371-26.439 26.371s-26.439-11.83-26.439-26.371a26.175 26.175 0 0 1 5.587-16.187l11.477 19.839c1.93 3.336 5.521 5.407 9.375 5.407s7.445-2.071 9.376-5.407l11.477-19.839a26.183 26.183 0 0 1 5.586 16.187zm-84.833-223.688h63.137l-5.107 29.421h-59.346zm.671-15 1.267-28.311h68.717l-4.915 28.311zm29.359-93.933a3.609 3.609 0 0 1 3.605-3.605h55.525a3.609 3.609 0 0 1 3.605 3.605v50.623h-28.973c-4.947-17.021-17.653-30.662-33.763-37.114V95.054zm-20.96 24.446c17.26 0 32.562 10.744 38.892 26.177h-77.783c6.329-15.433 21.63-26.177 38.891-26.177zm-152.5 69.487H90.789l-6.069-28.311h68.454l1.673 28.311h-17.842c-4.143 0-7.5 3.357-7.5 7.5s3.357 7.5 7.5 7.5h18.729l1.738 29.421h-57.159l-6.307-29.421h8a7.501 7.501 0 0 0-.002-15zm72.676-69.954a3.608 3.608 0 0 1 3.604 3.604v23.039h-40.525v-26.644h36.921zM60.023 99.044h62.736v46.633H60.023zm-37.099 89.949-7.348-28.316h53.803l6.069 28.311H23.004c-.027-.001-.053.005-.08.005zm3.891 14.994h51.849l6.307 29.421H34.449zm19.161 73.842-7.635-29.421h49.845l6.307 29.421zm11.239 43.31-7.346-28.31H97.71l6.069 28.31zm46.312-72.731h54.83l1.738 29.421h-50.261zm15.592 72.731-6.069-28.31h47.931l1.673 28.31zm106.056 0H177.68l-1.673-28.31h50.435zm1.939-43.31h-51.992l-1.738-29.421h55.048zm1.988-44.421h-56.605l-1.738-29.421h59.661zm1.989-44.421h-61.218l-1.673-28.311h64.158zm57.142 132.152H240.19l1.267-28.31h51.69zm7.519-43.31h-53.623l1.317-29.421h57.414zm21.912 74.96v-16.65H338.2v16.65zm37.93-34.583a3.61 3.61 0 0 1-3.542 2.933h-48.594l4.915-28.31h52.04zm7.667-40.377h-52.284l5.107-29.421h52.763zm8.434-44.421h-53.007l5.107-29.421h53.486zm8.434-44.421h-53.73l4.915-28.311h54.191zM497 103.245h-58.294v-9.157a3.609 3.609 0 0 1 3.605-3.605H497z" fill="#000000" opacity="1" data-original="#000000"></path></g></svg>