<svg xmlns="http://www.w3.org/2000/svg" version="1.1" xmlns:xlink="http://www.w3.org/1999/xlink" width="512" height="512" x="0" y="0" viewBox="0 0 512 512" style="enable-background:new 0 0 512 512" xml:space="preserve"><g><path fill="#fe9901" d="M125.154 315.267c-11.102.281-22.155 2.853-32.365 7.72-15.624 7.448-33.15 9.943-50.151 6.694l-7.622-1.457c-2.697-.515-5.065 1.852-4.549 4.549l1.457 7.622c3.249 17.001.754 34.526-6.694 50.151-14.106 29.593-8.951 66.268 15.466 90.685 22.732 22.732 56.082 28.747 84.458 18.088z" opacity="1" data-original="#fe9901"></path><path fill="#fb8801" d="M125.154 345.176c-16.535-8.698-33.084-11.872-45.971-8.583-10.978 2.801-24.471 1.264-38.703-4.754l-6.38-2.698c-2.258-.955-3.672.459-2.717 2.717l2.698 6.38c6.019 14.231 7.555 27.725 4.754 38.703-5.306 20.792 6.197 51.119 30.614 75.537 17.429 17.429 37.869 28.277 55.704 31.129V345.176z" opacity="1" data-original="#fb8801"></path><path fill="#fe9901" d="M125.154 394.389c-24.004-23.802-47.483-41.051-59.394-44.373-6.394-1.783-15.909-7.298-27.408-16.049l-5.155-3.923c-1.824-1.388-2.297-.916-.909.909l3.923 5.155c8.751 11.499 14.266 21.014 16.049 27.408 3.377 12.11 21.143 36.174 45.56 60.591 9.385 9.385 18.713 17.777 27.334 24.758zM138.487 152.302c.046-.494.445-.893.939-.939 6.79-.635 14.019.81 20.699 4.255a1.035 1.035 0 0 0 1.521-.882c.447-11.441 4.384-21.815 10.593-29.714-.09-10.218 4.133-20.338 12.229-27.466a36.601 36.601 0 0 1-2.742-3.314c-5.88-8.063-7.937-17.745-6.51-26.883-5.18-7.357-12.542-12.636-20.776-15.322-9.122-2.976-19.102-1.707-27.412 3.091l-10.095 5.829c-8.31 4.798-14.399 12.806-16.383 22.194-2.512 11.889.221 24.852 8.87 35.023l29.064 34.18c.001-.019.001-.036.003-.052z" opacity="1" data-original="#fe9901"></path><path fill="#fb8801" d="M138.487 152.302c.046-.494.445-.893.939-.939 6.79-.635 14.019.81 20.699 4.255a1.035 1.035 0 0 0 1.521-.882c.308-7.896 2.289-15.277 5.52-21.696l-29.694-34.92c-8.649-10.171-11.382-23.134-8.87-35.023.811-3.839 2.319-7.441 4.374-10.693a35.305 35.305 0 0 0-5.948 2.724l-10.095 5.829c-8.31 4.798-14.399 12.806-16.383 22.194-2.512 11.889.221 24.852 8.87 35.023l29.064 34.18c.001-.019.001-.036.003-.052z" opacity="1" data-original="#fb8801"></path><path fill="#a2e62e" d="M172.238 125.021a43.32 43.32 0 0 1 6.566-6.74 1.048 1.048 0 0 1 1.322 0c9.93 8.143 16.57 21.377 17.159 36.455.03.771.835 1.236 1.521.882 6.68-3.446 13.909-4.891 20.699-4.255.494.046.893.445.939.939.656 7.019-.919 14.506-4.624 21.372-.411.763.243 1.661 1.094 1.496 4.277-.829 8.566-1.045 12.72-.634.491.048.887.444.936.936.429 4.334.173 8.813-.749 13.274 7.921-7.628 18.683-12.325 30.549-12.325.063 0 .126.004.189.004 2.024-22.463 20.892-40.068 43.881-40.068a43.854 43.854 0 0 1 22.2 6.005l-8.136-38.501a36.013 36.013 0 0 0-21.578-13.717 36.02 36.02 0 0 0-6.74-25.132c-11.1-15.221-31.854-19.228-47.715-9.756a36.385 36.385 0 0 0-2.317-3.623c-11.766-16.135-34.384-19.676-50.519-7.909-16.135 11.766-19.676 34.385-7.91 50.519a36.435 36.435 0 0 0 2.742 3.314c-8.096 7.126-12.319 17.246-12.229 27.464z" opacity="1" data-original="#a2e62e"></path><path fill="#97d729" d="M172.238 125.021a43.32 43.32 0 0 1 6.566-6.74 1.048 1.048 0 0 1 1.322 0c9.93 8.143 16.57 21.377 17.159 36.455.03.771.835 1.236 1.521.882 6.68-3.446 13.909-4.891 20.699-4.255.494.046.893.445.939.939.656 7.019-.919 14.506-4.624 21.372-.411.763.243 1.661 1.094 1.496 4.277-.829 8.566-1.045 12.72-.634.491.048.887.444.936.936.429 4.334.173 8.813-.749 13.274a44.08 44.08 0 0 1 13.828-9.035 36.1 36.1 0 0 1-2.123-16.59 36.024 36.024 0 0 1-21.87-14.098c-11.1-15.22-8.572-36.206 5.295-48.413a36.29 36.29 0 0 1-2.741-3.314c-11.766-16.134-8.225-38.752 7.909-50.519a36.737 36.737 0 0 1 3.314-2.147c-12.418-9.878-30.356-10.709-43.798-.906-16.135 11.766-19.676 34.385-7.91 50.519a36.435 36.435 0 0 0 2.742 3.314c-8.096 7.126-12.319 17.246-12.229 27.464z" opacity="1" data-original="#97d729"></path><path fill="#fe9901" d="M294.424 192.536c8.08-9.836 20.33-16.115 34.054-16.115 1.839 0 3.65.118 5.43.337l-7.269-34.396a43.854 43.854 0 0 0-22.2-6.005c-22.989 0-41.857 17.605-43.881 40.068 13.648.057 25.823 6.32 33.866 16.111z" opacity="1" data-original="#fe9901"></path><path fill="#fb8801" d="M294.424 192.519c.271-.329.554-.647.834-.969a44.1 44.1 0 0 1-1.423-11.123c0-18.415 11.298-34.184 27.338-40.773a43.927 43.927 0 0 0-16.733-3.297c-22.99 0-41.858 17.606-43.881 40.069 13.641.057 25.819 6.309 33.865 16.093z" opacity="1" data-original="#fb8801"></path><path fill="#0ed290" d="M219.826 209.974c8.212-10.469 11.881-23 10.743-34.503a1.05 1.05 0 0 0-.936-.936c-4.154-.411-8.442-.195-12.72.634-.851.165-1.505-.733-1.094-1.496 3.704-6.866 5.28-14.353 4.624-21.372a1.047 1.047 0 0 0-.939-.939c-6.79-.635-14.019.81-20.699 4.255a1.035 1.035 0 0 1-1.521-.882c-.589-15.078-7.229-28.311-17.159-36.455a1.048 1.048 0 0 0-1.322 0c-9.93 8.143-16.57 21.377-17.159 36.455a1.035 1.035 0 0 1-1.521.882c-6.68-3.445-13.909-4.891-20.699-4.255a1.047 1.047 0 0 0-.939.939c-.656 7.019.919 14.506 4.624 21.372.411.763-.243 1.661-1.094 1.496-4.277-.829-8.566-1.045-12.72-.634a1.05 1.05 0 0 0-.936.936c-1.137 11.503 2.532 24.034 10.744 34.503z" opacity="1" data-original="#0ed290"></path><path fill="#00c285" d="M158.89 209.974c-.281-9.598 1.361-20.114 5.193-30.624 6.596-18.093 18.145-32.088 30.656-39.039-2.883-8.953-8.014-16.62-14.613-22.031a1.048 1.048 0 0 0-1.322 0c-9.93 8.143-16.57 21.377-17.159 36.455a1.035 1.035 0 0 1-1.521.882c-6.68-3.445-13.909-4.891-20.699-4.255a1.047 1.047 0 0 0-.939.939c-.656 7.019.919 14.506 4.624 21.372.411.763-.243 1.661-1.094 1.496-4.277-.829-8.566-1.045-12.72-.634a1.05 1.05 0 0 0-.936.936c-1.137 11.503 2.532 24.034 10.744 34.503z" opacity="1" data-original="#00c285"></path><path fill="#0ed290" d="m370.882 208.097 14.988-70.923V9.503a2.003 2.003 0 0 0-2.003-2.003H357.71a2.003 2.003 0 0 0-2.003 2.003v127.142z" opacity="1" data-original="#0ed290"></path><path fill="#00c285" d="M369.835 203.167V9.503c0-1.106.897-2.003 2.003-2.003H357.71a2.003 2.003 0 0 0-2.003 2.003v127.142zM436.183 30.122h-26.068c-.947 0-1.764.663-1.96 1.589l-37.671 178.263h30.163L438.143 32.54a2.003 2.003 0 0 0-1.96-2.418z" opacity="1" data-original="#00c285"></path><path fill="#07b27b" d="M410.115 30.122c-.947 0-1.764.663-1.96 1.589l-37.671 178.263h13.661l37.671-178.263a2.004 2.004 0 0 1 1.96-1.589z" opacity="1" data-original="#07b27b"></path><path fill="#00c285" d="M333.908 176.757c17.344 2.132 31.557 14.344 36.628 30.595L333.42 31.711a2.004 2.004 0 0 0-1.96-1.589h-26.068a2.003 2.003 0 0 0-1.96 2.417z" opacity="1" data-original="#00c285"></path><path fill="#07b27b" d="M333.908 176.757a43.757 43.757 0 0 1 15.476 4.939L317.864 32.54a2.003 2.003 0 0 1 1.96-2.417h-14.432a2.003 2.003 0 0 0-1.96 2.417z" opacity="1" data-original="#07b27b"></path><path fill="#fedf30" d="M303.167 209.974c-4.717-19.26-22.084-33.554-42.798-33.554s-38.081 14.294-42.798 33.554z" opacity="1" data-original="#fedf30"></path><path fill="#fed402" d="M251.105 209.974c3.366-13.737 13.168-24.945 26.033-30.243a43.931 43.931 0 0 0-16.768-3.311c-20.714 0-38.08 14.294-42.798 33.554z" opacity="1" data-original="#fed402"></path><path fill="#e03d9c" d="M371.276 209.974c-4.717-19.26-22.084-33.554-42.798-33.554-20.713 0-38.08 14.294-42.798 33.554z" opacity="1" data-original="#e03d9c"></path><path fill="#c53287" d="M319.105 209.974c3.371-13.756 13.196-24.975 26.087-30.264a43.927 43.927 0 0 0-16.713-3.29c-20.714 0-38.081 14.294-42.798 33.554z" opacity="1" data-original="#c53287"></path><path fill="#ffbd86" d="M300.682 431.828c0-40.105 32.511-72.616 72.616-72.616 8.836 0 17.303 1.58 25.136 4.47a72.124 72.124 0 0 1 11.173-3.112V214.982a5.008 5.008 0 0 0-5.008-5.008H130.162a5.008 5.008 0 0 0-5.008 5.008v284.454a5.008 5.008 0 0 0 5.008 5.008h243.137c-40.106 0-72.617-32.511-72.617-72.616z" opacity="1" data-original="#ffbd86"></path><path fill="#f6a96c" d="M184.38 499.436V214.982a5.008 5.008 0 0 1 5.008-5.008h-59.227a5.008 5.008 0 0 0-5.008 5.008v284.454a5.008 5.008 0 0 0 5.008 5.008h59.227a5.008 5.008 0 0 1-5.008-5.008z" opacity="1" data-original="#f6a96c"></path><path fill="#f6a96c" d="M301.132 439.841H125.154v59.595a5.008 5.008 0 0 0 5.008 5.008h243.137c-37.396 0-68.177-28.27-72.167-64.603z" opacity="1" data-original="#f6a96c"></path><path fill="#ea9b58" d="M184.38 499.436v-59.595h-59.227v59.595a5.008 5.008 0 0 0 5.008 5.008h59.227a5.008 5.008 0 0 1-5.008-5.008z" opacity="1" data-original="#ea9b58"></path><path fill="#07b27b" d="M373.298 359.212c8.836 0 17.303 1.58 25.136 4.47a72.896 72.896 0 0 1 4.332-1.427c-13.964-5.301-42.457-19.375-52.536-48.612-.295-.856-1.504-.83-1.768.036-2.16 7.111-6.256 27.388 8.946 47.297a72.856 72.856 0 0 1 15.89-1.764z" opacity="1" data-original="#07b27b"></path><path fill="#07b27b" d="M398.435 363.682a72.472 72.472 0 0 1 25.136-4.47c4.152 0 8.216.367 12.178 1.037 14.556-19.673 10.536-39.544 8.402-46.569-.263-.866-1.472-.892-1.767-.036-9.667 28.044-36.275 42.135-50.755 47.917a72.288 72.288 0 0 1 6.806 2.121z" opacity="1" data-original="#07b27b"></path><path fill="#0ed290" d="M384.788 360.134a72.161 72.161 0 0 1 13.647 3.548 72.106 72.106 0 0 1 13.288-3.491c9.558-43.544-17.104-61.575-25.638-66.132-.797-.426-1.667.415-1.271 1.227 11.639 23.885 5.749 49.474-.026 64.848z" opacity="1" data-original="#0ed290"></path><path fill="#fb2b3a" d="M423.571 359.212a72.463 72.463 0 0 0-25.136 4.47 72.472 72.472 0 0 0-25.136-4.47c-40.105 0-72.616 32.511-72.616 72.616s32.511 72.616 72.616 72.616h50.273c40.105 0 72.616-32.511 72.616-72.616s-32.512-72.616-72.617-72.616z" opacity="1" data-original="#fb2b3a"></path><path fill="#e41f2d" d="M346.835 431.828c0-32.038 20.756-59.21 49.548-68.853a72.48 72.48 0 0 0-23.084-3.764c-40.105 0-72.616 32.511-72.616 72.616s32.511 72.616 72.616 72.616h46.152c-40.105.001-72.616-32.51-72.616-72.615z" opacity="1" data-original="#e41f2d"></path><path d="M495.508 444.21a7.5 7.5 0 0 0-9.244 5.201c-7.832 27.987-33.612 47.533-62.693 47.533h-50.272c-35.905 0-65.116-29.211-65.116-65.116s29.211-65.116 65.116-65.116a64.877 64.877 0 0 1 22.539 4.007 7.493 7.493 0 0 0 5.193 0 64.887 64.887 0 0 1 22.54-4.007c30.452 0 57.215 21.576 63.635 51.304a7.498 7.498 0 0 0 8.914 5.748 7.5 7.5 0 0 0 5.748-8.914c-3.806-17.62-13.629-33.638-27.66-45.101-7.926-6.475-17.014-11.325-26.69-14.357a59.635 59.635 0 0 0 3.681-9.121c4.689-15.184 2.094-28.302.128-34.774a8.41 8.41 0 0 0-7.914-5.979c-3.674-.091-6.924 2.217-8.119 5.683-3.165 9.182-8.429 16.717-14.477 22.855-.617-5.352-1.863-10.447-3.708-15.284v-48.825c0-4.143-3.357-7.5-7.5-7.5s-7.5 3.357-7.5 7.5v26.5c-4.732-4.421-9.333-7.316-12.489-9.001a8.406 8.406 0 0 0-9.821 1.364 8.409 8.409 0 0 0-1.724 9.768c7.354 15.095 6.823 31.15 4.02 44.248-10.047-7.219-19.895-17.474-24.772-31.624-1.195-3.468-4.491-5.739-8.124-5.683a8.41 8.41 0 0 0-7.911 5.983c-1.964 6.469-4.56 19.587.13 34.771a60.111 60.111 0 0 0 4.293 10.339c-30.625 11.268-52.528 40.733-52.528 75.219 0 .172.012.341.013.513H132.654v-214.87h269.454v17.471c0 4.143 3.357 7.5 7.5 7.5s7.5-3.357 7.5-7.5v-19.963c0-5.092-3.063-9.475-7.439-11.424L445.48 34.093a9.462 9.462 0 0 0-1.913-7.951 9.467 9.467 0 0 0-7.384-3.52h-26.067c-4.466 0-8.377 3.171-9.298 7.538l-7.449 35.251V9.503c0-5.24-4.263-9.503-9.503-9.503H357.71c-5.24 0-9.503 4.263-9.503 9.503v55.906l-7.448-35.246c-.922-4.37-4.832-7.541-9.298-7.541h-26.068a9.466 9.466 0 0 0-7.384 3.52 9.462 9.462 0 0 0-1.914 7.948l10.867 51.423a43.514 43.514 0 0 0-2.365-.964 43.55 43.55 0 0 0-8.351-23.957C284.3 44.209 263.26 38.42 245.026 45.657c-6.825-8.547-16.46-14.15-27.334-15.853-11.521-1.805-23.055.987-32.476 7.858a43.385 43.385 0 0 0-13.178 15.492 48.538 48.538 0 0 0-15.272-8.249c-5.585-1.822-11.49-2.359-17.301-1.669l.939-31.184a7.502 7.502 0 0 0-7.271-7.723 7.48 7.48 0 0 0-7.723 7.271l-.687 22.824-6.215-17.085c-1.415-3.893-5.72-5.907-9.611-4.484a7.499 7.499 0 0 0-4.484 9.611l5.059 13.906-9.515-11.332a7.5 7.5 0 0 0-11.488 9.644l11.689 13.925-20.11-10.817a7.5 7.5 0 0 0-7.105 13.211l27.474 14.778c-3.502 4.687-5.989 10.068-7.205 15.817-3.129 14.808.696 29.909 10.494 41.432l27.144 31.922a43.743 43.743 0 0 0 1.506 11.893 49.031 49.031 0 0 0-3.802.228c-4.035.4-7.256 3.621-7.657 7.66-.942 9.526.958 19.381 5.238 28.419-4.925 1.681-8.481 6.344-8.481 11.83v93.263a87.176 87.176 0 0 0-28.093 7.971c-14.495 6.911-30.234 9.016-45.515 6.099l-7.622-1.457a11.361 11.361 0 0 0-10.189 3.131 11.376 11.376 0 0 0-3.135 10.192l1.457 7.622c2.92 15.281.812 31.021-6.098 45.515-15.887 33.329-9.082 73.2 16.933 99.217C52.373 503.514 74.668 512 96.973 512a87.34 87.34 0 0 0 24.562-3.529c2.247 2.146 5.282 3.474 8.626 3.474H423.57c35.781 0 67.501-24.052 77.139-58.49a7.5 7.5 0 0 0-5.201-9.245zm-57.462-107.13a43.295 43.295 0 0 1-1.18 4.764c-1.112 3.601-2.703 7.048-4.73 10.349a79.606 79.606 0 0 0-8.565-.481l-.057.001c5.137-4.116 10.135-8.96 14.532-14.633zm-39.727-22.156a43.426 43.426 0 0 1 2.531 4.199c5.146 9.741 6.614 21.373 4.448 34.695a79.508 79.508 0 0 0-6.864 1.92 78.338 78.338 0 0 0-3.921-1.171c3.256-11.036 5.658-25.009 3.806-39.643zm-29.079 36.891a79.898 79.898 0 0 0-8.45.88c-2.179-3.452-3.873-7.067-5.042-10.851-.5-1.62-.888-3.212-1.18-4.764 4.437 5.723 9.486 10.597 14.672 14.735zM117.654 493.976c-24.568 7.32-52.292 1.314-71.654-18.05-20.821-20.82-26.765-52.374-15.241-79.395 2.858 20.118 14.834 42.695 33.387 61.249 15.914 15.913 34.768 27.221 53.088 31.841.141.036.28.065.42.1zm0-61.373a381.372 381.372 0 0 1-12.263-11.554 7.5 7.5 0 0 0-10.519 10.693c7.654 7.53 15.373 14.524 22.782 20.673v21.771c-14.09-4.315-29.508-13.621-42.9-27.014-21.625-21.624-33.406-49.742-28.65-68.379.585-2.292 1-4.66 1.263-7.086 5.369 11.685 16.411 25.736 23.2 33.83a7.5 7.5 0 0 0 11.492-9.64c-12.178-14.519-20.617-27.377-22.574-34.396-.609-2.183-1.521-4.512-2.646-6.906 2.396 1.124 4.723 2.036 6.906 2.646 8.731 2.435 29.088 16.041 53.909 40.29zm0-55.664c-16.701-15.131-32.46-26.614-43.74-31.813a50.837 50.837 0 0 0 7.123-1.267c10.228-2.61 23.315-.219 36.616 6.029v27.051zm0-43.321c-6.4-2.494-12.755-4.232-18.882-5.102a72.25 72.25 0 0 1 18.882-5.156zm162.521-131.144h-51.606c6.293-11.067 18.184-18.553 31.801-18.553 9.349 0 17.876 3.539 24.346 9.333a51.572 51.572 0 0 0-4.541 9.22zm-53.6-35.629a45.041 45.041 0 0 0 1.055-5.144l25.648 7.726a51.133 51.133 0 0 0-15.34 4.645c-.666-3.723-3.748-6.621-7.562-7l-.005-.001a49.315 49.315 0 0 0-3.796-.226zm42.905 2.893c4.583-14.964 18.514-25.882 34.96-25.882a36.327 36.327 0 0 1 15.59 3.504l4.589 21.715c-11.533.858-22.02 5.521-30.207 12.741-6.921-6.103-15.48-10.383-24.932-12.078zM414.572 37.622h14.831l-34.836 164.852h-14.831zM363.207 15h15.162v121.394l-7.581 35.874-7.581-35.876zm-2.927 187.474h-63.603c6.293-11.067 18.185-18.553 31.801-18.553 13.617 0 25.509 7.485 31.802 18.553zM327.003 37.622l29.502 139.61a51.274 51.274 0 0 0-16.301-6.958L312.172 37.622zm-132.949 12.16c6.185-4.512 13.756-6.345 21.318-5.158 7.562 1.184 14.211 5.242 18.721 11.426a29 29 0 0 1 1.841 2.882 7.497 7.497 0 0 0 10.382 2.762c12.773-7.628 29.029-4.305 37.81 7.735a28.583 28.583 0 0 1 5.341 19.916 7.5 7.5 0 0 0 5.937 8.141 28.576 28.576 0 0 1 16.125 9.643l4.892 23.15a51.439 51.439 0 0 0-11.981-1.423c-4.981 0-9.795.721-14.354 2.045l.291-16.161a7.502 7.502 0 0 0-7.364-7.634l-.138-.001a7.5 7.5 0 0 0-7.496 7.365l-.427 23.686a51.85 51.85 0 0 0-4.558 3.58l-4.797-6.579.956-53.085a7.501 7.501 0 0 0-7.364-7.634c-4.115-.033-7.559 3.223-7.634 7.364l-.599 33.278-20.992-28.785a7.497 7.497 0 0 0-10.479-1.641 7.5 7.5 0 0 0-1.641 10.479l20.991 28.785-31.868-9.6a7.5 7.5 0 0 0-4.326 14.364l50.836 15.313 6.98 9.572a51.82 51.82 0 0 0-1.165 2.006l-28.5-8.585a7.455 7.455 0 0 0-4.687.128 8.546 8.546 0 0 0-5.902-3.221c-5.448-.509-10.997.062-16.403 1.661-2.432-13.26-9.079-25.006-18.915-33.071a8.458 8.458 0 0 0-1.87-1.164 28.7 28.7 0 0 1 6.408-8.135 7.489 7.489 0 0 0 2.534-5.25 7.492 7.492 0 0 0-1.992-5.479 28.949 28.949 0 0 1-2.181-2.633c-9.309-12.769-6.496-30.731 6.27-40.042zm-14.589 78.271c6.15 7.013 9.926 16.719 10.326 26.977a8.502 8.502 0 0 0 4.229 7.048 8.51 8.51 0 0 0 8.224.206c3.447-1.778 7.041-2.907 10.616-3.353-.48 3.784-1.716 7.614-3.639 11.178a8.57 8.57 0 0 0 .628 9.104 8.558 8.558 0 0 0 8.491 3.321 38.377 38.377 0 0 1 4.859-.627 37.447 37.447 0 0 1-.357 3.252 51.648 51.648 0 0 0-10.783 17.315h-25.095v-22.438c0-4.143-3.357-7.5-7.5-7.5s-7.5 3.357-7.5 7.5v22.438h-29.038c-4.233-6.344-6.751-13.489-7.199-20.567 1.608.102 3.231.311 4.858.626a8.552 8.552 0 0 0 8.492-3.32 8.566 8.566 0 0 0 .631-9.099c-1.924-3.566-3.16-7.397-3.64-11.182 3.576.445 7.17 1.574 10.616 3.353a8.51 8.51 0 0 0 8.223-.207 8.503 8.503 0 0 0 4.229-7.049c.404-10.257 4.178-19.963 10.329-26.976zm-64.332-14.74c-6.766-7.957-9.407-18.386-7.246-28.613 1.509-7.139 6.173-13.426 12.795-17.249l10.096-5.829c6.622-3.823 14.397-4.719 21.336-2.456 6.103 1.992 11.361 5.595 15.326 10.353-.748 9.428 1.536 19.137 7.107 27.535a43.322 43.322 0 0 0-9.833 25.482c-4.739 6.678-8.028 14.536-9.584 23.019-4.65-1.374-9.412-1.981-14.115-1.804zm17.521 383.631V447.34h162.049c4.009 20.343 15.743 37.933 32.008 49.604z" fill="#000000" opacity="1" data-original="#000000"></path></g></svg>