<svg xmlns="http://www.w3.org/2000/svg" version="1.1" xmlns:xlink="http://www.w3.org/1999/xlink" width="512" height="512" x="0" y="0" viewBox="0 0 512 512" style="enable-background:new 0 0 512 512" xml:space="preserve" class=""><g><path d="M375.38 452.244H102.465c-24.735-.017-45.921-17.705-50.341-42.039l-26.51-145.673h426.617l-26.45 145.673c-4.428 24.351-25.648 42.048-50.401 42.039z" style="" fill="#bf7341" data-original="#bf7341"></path><path d="M114.453 452.244H375.38c24.735-.017 45.921-17.705 50.341-42.039l26.51-145.673h-56.177c-74.368 107.329-204.221 162.815-281.601 187.712z" style="" fill="#b56d3e" data-original="#b56d3e" class=""></path><path d="M196.261 230.403H93.873V59.756c0-28.276 22.918-51.194 51.194-51.194 28.276 0 51.194 22.918 51.194 51.194v170.647z" style="" fill="#c96e23" data-original="#c96e23"></path><path d="M121.983 119.458h54.631v17.064h-54.631z" style="" transform="scale(-1) rotate(-38.654 -364.94 425.696)" fill="#b5611d" data-original="#b5611d"></path><path d="M426.634 230.403H324.246v-17.065c0-28.276 22.918-51.194 51.194-51.194 28.276 0 51.194 22.918 51.194 51.194v17.065z" style="" fill="#c96e23" data-original="#c96e23"></path><path d="M349.826 187.707h17.065v17.065h-17.065zM392.488 196.24h17.065v17.065h-17.065z" style="" fill="#b5611d" data-original="#b5611d"></path><path d="M361.089 230.403h-110.92l89.436-193.684a48.38 48.38 0 0 1 43.907-28.157h3.259a48.351 48.351 0 0 1 30.23 10.606c17.295 13.831 22.986 37.645 13.822 57.807l-69.734 153.428z" style="" fill="#d68033" data-original="#d68033"></path><path d="M342.829 68.266h62.117v17.065h-62.117z" style="" transform="scale(-1) rotate(-15.956 -547.977 2667.774)" fill="#c96e23" data-original="#c96e23"></path><path d="m336.865 149.977-5.153-16.271 43.865-13.831 5.153 16.28z" style="" fill="#c96e23" data-original="#c96e23"></path><path d="M288.781 187.706h56.544v17.065h-56.544z" style="" transform="rotate(162.44 317.053 196.239)" fill="#c96e23" data-original="#c96e23"></path><path d="M25.614 230.403h426.617c9.428 0 17.065 7.636 17.065 17.065 0 9.428-7.636 17.065-17.065 17.065H25.614c-9.428 0-17.065-7.636-17.065-17.065.001-9.428 7.646-17.065 17.065-17.065z" style="" fill="#bf7341" data-original="#bf7341"></path><path d="M409.569 230.403v-17.065c0-94.248-76.399-170.647-170.647-170.647-94.248 0-170.647 76.399-170.647 170.647v17.065H34.147v-17.065c0-113.096 91.68-204.776 204.776-204.776s204.776 91.68 204.776 204.776v17.065h-34.13z" style="" fill="#965735" data-original="#965735"></path><path d="M324.246 230.403c-2.355-85.545-39.599-153.582-85.323-153.582s-82.968 68.037-85.323 153.582h170.646z" style="" fill="#f09e3e" data-original="#f09e3e"></path><path d="m240.672 181.47-44.411 14.804c.009-20.392 13.072-38.489 32.423-44.923l44.368-14.804c0 20.376-13.046 38.473-32.38 44.923z" style="" fill="#d68033" data-original="#d68033"></path><path d="M316.473 170.882a250.601 250.601 0 0 1-84.189 59.522h91.962a284.438 284.438 0 0 0-7.773-59.522z" style="" fill="#eb9634" data-original="#eb9634"></path><path d="M341.294 298.628h51.194v17.065h-51.194zM255.97 298.628h51.194v17.065H255.97zM170.647 298.628h51.194v17.065h-51.194zM85.324 298.628h51.194v17.065H85.324zM85.324 349.822h51.194v17.065H85.324zM85.324 401.016h51.194v17.065H85.324z" style="" fill="#965735" data-original="#965735"></path><path d="M153.599 230.403H51.211v-17.065c0-28.276 22.918-51.194 51.194-51.194 28.276 0 51.194 22.918 51.194 51.194v17.065z" style="" fill="#d68033" data-original="#d68033"></path><path d="M153.599 213.339a51.054 51.054 0 0 0-18.251-39.155 122.425 122.425 0 0 1-54.556 56.22h72.806v-17.065z" style="" fill="#d97a27" data-original="#d97a27"></path><path d="M76.791 187.707h17.065v17.065H76.791zM110.921 196.24h17.065v17.065h-17.065z" style="" fill="#c96e23" data-original="#c96e23"></path><path d="M443.699 273.065H51.211a8.535 8.535 0 0 1-8.532-8.532 8.535 8.535 0 0 1 8.532-8.532h392.488a8.535 8.535 0 0 1 8.532 8.532 8.535 8.535 0 0 1-8.532 8.532z" style="" fill="#965735" data-original="#965735"></path><path d="M503.425 375.453c0 14.138-11.459 25.597-25.597 25.597v85.323c0 9.428-7.636 17.065-17.065 17.065h-255.97c-9.428 0-17.065-7.636-17.065-17.065V401.05c-14.138 0-25.597-11.459-25.597-25.597 0-14.138 11.459-25.597 25.597-25.597h290.099c14.139 0 25.598 11.459 25.598 25.597z" style="" fill="#f09e3e" data-original="#f09e3e"></path><path d="M446.907 401.05c-.145.162-.316.299-.461.461-23.498 49.488-65.699 82.09-101.595 101.927h115.912c9.428 0 17.065-7.636 17.065-17.065V401.05h-30.921z" style="" fill="#f09235" data-original="#f09235"></path><path d="M349.843 375.453c0 14.138-11.459 25.597-25.597 25.597v85.323c0 9.428-7.636 17.065-17.065 17.065H204.793c-9.428 0-17.065-7.636-17.065-17.065V401.05c-14.138 0-25.597-11.459-25.597-25.597 0-14.138 11.459-25.597 25.597-25.597h136.517c14.139 0 25.598 11.459 25.598 25.597z" style="" fill="#f0dbc2" data-original="#f0dbc2"></path><path d="M426.617 375.419h17.065v17.065h-17.065zM383.955 401.016h17.065v17.065h-17.065zM435.149 443.678h17.065v17.065h-17.065zM349.826 460.742h17.065v17.065h-17.065z" style="" fill="#d68033" data-original="#d68033"></path><path d="m18.276 271.862 25.426 139.871c5.162 28.396 29.897 49.044 58.762 49.044h59.667v-17.065h-59.667c-20.606 0-38.259-14.718-41.971-34.983l-24.64-135.664h406.139l-9.036 49.667 16.792 3.055 9.804-53.924c13.515-4.002 21.228-18.199 17.227-31.715a25.519 25.519 0 0 0-24.548-18.276v-8.532a211.993 211.993 0 0 0-26.928-103.591l13.276-29.24c13.012-28.617.358-62.363-28.259-75.375A56.915 56.915 0 0 0 386.771.032h-3.259a57.043 57.043 0 0 0-46.331 24.07A212.829 212.829 0 0 0 176.713 9.305 59.101 59.101 0 0 0 145.067.03c-32.969.034-59.692 26.757-59.726 59.726v5.776a212.496 212.496 0 0 0-59.726 147.806v8.532C11.519 221.811.051 233.202 0 247.289c-.042 11.339 7.406 21.348 18.276 24.573zM383.512 17.095h3.259c22.005 0 39.846 17.833 39.846 39.846a39.846 39.846 0 0 1-3.558 16.467l-8.592 18.942c-3.413-4.949-7.022-9.778-10.845-14.411l3.114-.956-5-16.322-10.734 3.293a214.942 214.942 0 0 0-38.933-31.322 39.934 39.934 0 0 1 31.443-15.537zm-238.445 0c2.79.026 5.572.333 8.302.904a213.185 213.185 0 0 0-49.129 30.076c5.179-18.284 21.834-30.921 40.827-30.98zm93.856 0c108.335.119 196.124 87.909 196.244 196.244v8.532h-17.065v-8.532c.017-98.924-80.161-179.136-179.085-179.154-80.69-.017-151.423 53.916-172.771 131.731a59.612 59.612 0 0 0-23.566 47.423c.118-108.336 87.916-196.125 196.243-196.244zm135.416 204.776 21.698-47.781a161.665 161.665 0 0 1 4.087 22.184h-7.619v17.065h8.532v8.532h-26.698zM238.923 68.289a59.894 59.894 0 0 0-34.129 11.263V59.756c0-1.587-.264-3.148-.392-4.727a163.626 163.626 0 0 1 34.522-3.805 161.019 161.019 0 0 1 75.81 18.925l-16.408 35.563c-16.093-23.524-36.682-37.423-59.403-37.423zm-51.194-8.771v35.418a129.404 129.404 0 0 0-13.985 19.863l-8.413-10.512-42.662 34.129 10.665 13.328 36.203-28.967a220.429 220.429 0 0 0-18.694 55.759c-14.258-20.102-39.488-29.249-63.318-22.969a161.044 161.044 0 0 1 100.204-96.049zm-85.324 111.159c23.549.026 42.636 19.112 42.662 42.662v8.532H59.744v-8.532c.025-23.55 19.112-42.637 42.661-42.662zm136.518-85.324c38.66 0 72.047 60.469 76.424 136.517H162.499c4.377-76.048 37.764-136.517 76.424-136.517zm93.403 136.518c-.375-7.21-.964-14.275-1.792-21.152l15.947-4.804-4.923-16.348-13.583 4.096a225.555 225.555 0 0 0-19.172-59.914l20.665-44.786a163.704 163.704 0 0 1 42.457 41.971l-40.051 12.287 5.009 16.322 44.368-13.652a163.797 163.797 0 0 1 6.911 14.258l-32.568 71.723h-23.268zM25.614 238.936h426.617a8.535 8.535 0 0 1 8.532 8.532 8.535 8.535 0 0 1-8.532 8.532H25.614a8.535 8.535 0 0 1-8.532-8.532 8.535 8.535 0 0 1 8.532-8.532z" fill="#000000" opacity="1" data-original="#000000"></path><path d="M278.043 129.628a8.529 8.529 0 0 0-7.679-1.177l-44.368 14.804c-22.85 7.577-38.276 28.942-38.268 53.02a8.535 8.535 0 0 0 11.228 8.097l44.411-14.804c22.833-7.594 38.233-28.959 38.216-53.02a8.51 8.51 0 0 0-3.54-6.92zm-40.102 43.745-31.117 10.375a38.764 38.764 0 0 1 24.479-24.3l31.117-10.375a38.753 38.753 0 0 1-24.445 24.3h-.034zM341.294 298.628h51.194v17.065h-51.194zM255.97 298.628h51.194v17.065H255.97zM170.647 298.628h51.194v17.065h-51.194zM85.324 298.628h51.194v17.065H85.324zM85.324 349.822h51.194v17.065H85.324zM85.324 401.016h51.194v17.065H85.324zM76.791 187.707h17.065v17.065H76.791zM110.921 196.24h17.065v17.065h-17.065zM477.828 341.324H187.729c-18.848-.026-34.146 15.239-34.163 34.095-.017 15.589 10.537 29.206 25.631 33.088v77.866c0 14.138 11.459 25.597 25.597 25.597h255.97c14.138 0 25.597-11.459 25.597-25.597v-77.866c18.259-4.693 29.249-23.293 24.556-41.552-3.883-15.103-17.5-25.648-33.089-25.631zM204.793 494.906a8.535 8.535 0 0 1-8.532-8.532V401.05a8.535 8.535 0 0 0-8.532-8.532c-9.428 0-17.065-7.636-17.065-17.065 0-9.428 7.636-17.065 17.065-17.065h136.517c9.428 0 17.065 7.636 17.065 17.065 0 9.428-7.636 17.065-17.065 17.065a8.535 8.535 0 0 0-8.532 8.532v85.323a8.535 8.535 0 0 1-8.532 8.532H204.793zm273.035-102.388a8.535 8.535 0 0 0-8.532 8.532v85.323a8.535 8.535 0 0 1-8.532 8.532H331.208a25.344 25.344 0 0 0 1.57-8.532v-77.866c15.06-3.916 25.571-17.5 25.597-33.054a33.754 33.754 0 0 0-4.744-17.065h124.197c9.428 0 17.065 7.636 17.065 17.065 0 9.428-7.637 17.065-17.065 17.065z" fill="#000000" opacity="1" data-original="#000000"></path><path d="M426.617 375.419h17.065v17.065h-17.065zM383.955 401.016h17.065v17.065h-17.065zM435.149 443.678h17.065v17.065h-17.065zM349.826 460.742h17.065v17.065h-17.065z" fill="#000000" opacity="1" data-original="#000000"></path></g></svg>