<svg xmlns="http://www.w3.org/2000/svg" version="1.1" xmlns:xlink="http://www.w3.org/1999/xlink" width="512" height="512" x="0" y="0" viewBox="0 0 512 512" style="enable-background:new 0 0 512 512" xml:space="preserve"><g><g fill-rule="evenodd" clip-rule="evenodd"><path fill="#90d8f9" d="M320.801 99.838V39.459c0-17.575-14.371-31.947-31.947-31.947h-15.591c-17.574 0-31.946 14.372-31.946 31.947v60.379z" opacity="1" data-original="#90d8f9"></path><path fill="#75cef9" d="M320.801 99.838V39.459c0-17.575-14.371-31.947-31.947-31.947h-15.591c-2.324 0-4.592.256-6.774.709 14.372 3.146 25.2 15.988 25.2 31.238v60.379z" opacity="1" data-original="#75cef9"></path><path fill="#f4fbff" d="M320.801 99.838c28.375 8.844 47.82 26.844 47.82 47.594v357.085H193.523V147.432c0-20.75 19.418-38.75 47.793-47.594z" opacity="1" data-original="#f4fbff"></path><path fill="#e4f6ff" d="M320.801 99.838c28.375 8.844 47.82 26.844 47.82 47.594v357.085h-29.14V147.432c0-20.75-19.418-38.75-47.793-47.594z" opacity="1" data-original="#e4f6ff"></path><path fill="#90d8f9" d="M229.41 153.498v312.183h103.296V153.498c0-10.516-23.13-19.02-51.647-19.02-28.517.001-51.649 8.504-51.649 19.02z" opacity="1" data-original="#90d8f9"></path><path fill="#d3effb" d="M399.889 303.283v-55.476c0-3.6 1.928-5.811 5.81-5.811h35.349c11.707 0 21.288-9.609 21.288-21.316 0-11.708-9.581-21.289-21.288-21.289H333.104c-11.735 0-21.316 9.581-21.316 21.289v82.603z" opacity="1" data-original="#d3effb"></path><path fill="#b1e4f9" d="M399.889 298.435v-50.627c0-3.6 1.928-5.811 5.81-5.811h-29.112c-3.912 0-5.84 2.211-5.84 5.811v50.627zm12.046-56.438h29.112c11.707 0 21.288-9.609 21.288-21.316 0-11.708-9.581-21.289-21.288-21.289h-29.112c11.707 0 21.288 9.581 21.288 21.289.001 11.707-9.58 21.316-21.288 21.316z" opacity="1" data-original="#b1e4f9"></path><path fill="#ffe07d" d="M399.889 298.435c48.16 17.888 82.489 64.263 82.489 118.66 0 31.578-11.595 60.464-30.728 82.659-2.807 3.232-5.84 4.763-10.177 4.763h-177.11c-21.714-22.733-35.065-53.52-35.065-87.422 0-54.397 34.328-100.772 82.49-118.66z" opacity="1" data-original="#ffe07d"></path><path fill="#ffc269" d="M399.889 298.435c48.16 17.888 82.489 64.263 82.489 118.66 0 31.578-11.595 60.464-30.728 82.659-2.807 3.232-5.84 4.763-10.177 4.763h-29.111c4.337 0 7.37-1.53 10.147-4.763 19.162-22.195 30.728-51.081 30.728-82.659 0-54.397-34.327-100.772-82.489-118.66z" opacity="1" data-original="#ffc269"></path><path fill="#ffa95f" d="M467.41 357.368c9.554 17.802 14.968 38.127 14.968 59.727a127.35 127.35 0 0 1-3.231 28.46H232.528a127.292 127.292 0 0 1-3.231-28.46c0-21.6 5.415-41.925 14.968-59.727z" opacity="1" data-original="#ffa95f"></path><path fill="#ff8b5a" d="M467.41 357.368c9.554 17.802 14.968 38.127 14.968 59.727a127.35 127.35 0 0 1-3.231 28.46h-29.113a127.286 127.286 0 0 0 3.203-28.46c0-21.6-5.414-41.925-14.938-59.727z" opacity="1" data-original="#ff8b5a"></path><path fill="#fcbdbd" d="M147.828 504.517h154.633c17.575 0 31.975-14.399 31.975-31.946v-28.745c0-17.573-14.399-31.945-31.975-31.945H147.828c-17.575 0-31.946 14.372-31.946 31.945v28.745c0 17.546 14.371 31.946 31.946 31.946z" opacity="1" data-original="#fcbdbd"></path><path fill="#f5a1a1" d="M273.348 504.517h29.113c17.575 0 31.975-14.372 31.975-31.946v-28.745c0-17.573-14.399-31.945-31.975-31.945h-29.113c17.575 0 31.948 14.372 31.948 31.945v28.745c0 17.574-14.373 31.946-31.948 31.946z" opacity="1" data-original="#f5a1a1"></path><path fill="#e28086" d="M302.461 411.88H147.828v28.913c0 17.575 14.372 31.947 31.947 31.947h90.738c17.574 0 31.947-14.372 31.947-31.947V411.88z" opacity="1" data-original="#e28086"></path><path fill="#dd636e" d="M302.461 411.88h-29.113v28.913c0 17.575-14.371 31.947-31.946 31.947h29.112c17.574 0 31.947-14.372 31.947-31.947z" opacity="1" data-original="#dd636e"></path><path fill="#f4fbff" d="M94.849 93.431h52.895c3.204 0 5.84 2.608 5.84 5.812v126.683c0 3.203-2.636 5.84-5.84 5.84H94.849c-3.203 0-5.812-2.637-5.812-5.84V99.242a5.82 5.82 0 0 1 5.812-5.811z" opacity="1" data-original="#f4fbff"></path><path fill="#e4f6ff" d="M118.631 93.431h29.112c3.204 0 5.84 2.608 5.84 5.812v126.683c0 3.203-2.636 5.84-5.84 5.84h-29.112c3.203 0 5.812-2.637 5.812-5.84V99.242a5.82 5.82 0 0 0-5.812-5.811z" opacity="1" data-original="#e4f6ff"></path><path fill="#407093" d="M83.963 251.606c8.589-2.523 14.91-10.488 14.91-19.842V93.431c0-11.395-9.297-20.692-20.664-20.692H50.315c-11.367 0-20.665 9.298-20.665 20.692v405.247c0 3.203 2.608 5.839 5.811 5.839h36.907c3.203 0 5.84-2.636 5.84-5.839V258.212c.001-3.232-.821-4.678 5.755-6.606z" opacity="1" data-original="#407093"></path><path fill="#365e7d" d="M83.963 251.606c8.589-2.523 14.91-10.488 14.91-19.842V93.431c0-11.395-9.297-20.692-20.664-20.692H49.691c11.084.341 20.07 9.524 20.07 20.692v138.334c0 9.354-6.321 17.318-14.911 19.842-6.576 1.928-5.754 3.373-5.754 6.606v240.466c0 3.203-2.637 5.839-5.84 5.839h29.112c3.203 0 5.84-2.636 5.84-5.839V258.213c.001-3.233-.821-4.679 5.755-6.607z" opacity="1" data-original="#365e7d"></path><path fill="#dd636e" d="M385.205 385.801c9.864 0 18.283 6.095 21.77 14.683 3.459-8.588 11.906-14.683 21.742-14.683 12.954 0 23.442 10.517 23.442 23.471 0 12.048-11.225 26.617-20.523 36.283h-49.352c-9.298-9.666-20.523-24.235-20.523-36.283.001-12.955 10.489-23.471 23.444-23.471z" opacity="1" data-original="#dd636e"></path></g><path d="M186.012 404.368v-130c0-4.139 3.345-7.482 7.512-7.482a7.475 7.475 0 0 1 7.483 7.482v130h20.892v-250.87c0-8.73 7.682-15.93 20.07-20.494 10.119-3.713 23.952-6.038 39.09-6.038 15.137 0 28.971 2.325 39.091 6.038 12.387 4.564 20.068 11.764 20.068 20.494h-.027l.312 38.381h20.607v-44.447c0-8.106-3.883-15.845-10.63-22.563-7.342-7.314-18-13.38-30.784-17.519H242.45c-12.813 4.139-23.472 10.204-30.813 17.519-6.746 6.719-10.63 14.457-10.63 22.563v92.978a7.476 7.476 0 0 1-7.483 7.484c-4.167 0-7.512-3.346-7.512-7.484v-92.978c0-12.302 5.499-23.642 15.08-33.165 8.192-8.164 19.446-14.968 32.741-19.787V39.459c0-10.857 4.422-20.722 11.565-27.865C252.542 4.451 262.406 0 273.263 0h15.591c10.857 0 20.723 4.451 27.865 11.594 7.143 7.144 11.594 17.008 11.594 27.865V94.48c13.267 4.819 24.521 11.623 32.74 19.787 9.553 9.523 15.052 20.863 15.052 33.165v44.447h64.943c7.936 0 15.137 3.232 20.352 8.447 5.217 5.217 8.447 12.417 8.447 20.354s-3.23 15.137-8.447 20.353c-5.216 5.216-12.416 8.447-20.352 8.447h-33.676v43.88a134.566 134.566 0 0 1 58.592 47.311c15.592 22.422 23.897 48.983 23.897 76.423 0 16.016-2.807 31.691-8.391 46.688a134.223 134.223 0 0 1-24.181 40.848c-4.224 4.933-9.27 7.37-15.817 7.37H147.828c-10.856 0-20.722-4.422-27.864-11.565-7.172-7.144-11.594-17.008-11.594-27.864v-28.745c0-10.855 4.422-20.721 11.594-27.863 7.143-7.172 17.008-11.594 27.864-11.594h38.184zm199.193-26.052c6.406 0 12.331 1.955 17.291 5.272a32.65 32.65 0 0 1 4.479 3.686 30.954 30.954 0 0 1 4.451-3.686c4.961-3.317 10.885-5.272 17.291-5.272 8.532 0 16.272 3.458 21.884 9.071 5.612 5.584 9.07 13.323 9.07 21.884 0 6.605-2.522 13.521-6.265 20.154-1.672 2.948-3.6 5.868-5.641 8.645h25.286a121.607 121.607 0 0 0 1.814-20.977c0-18.736-4.31-36.454-12.021-52.215h-90.029c-4.139 0-7.483-3.373-7.483-7.512s3.345-7.483 7.483-7.483h81.271c-13.663-19.899-32.967-35.264-55.502-43.938H313.09c-22.508 8.647-41.897 24.038-55.532 43.938h81.299a7.476 7.476 0 0 1 7.483 7.483c0 4.139-3.345 7.512-7.483 7.512h-90.029a117.62 117.62 0 0 0-11.367 39.488h65c10.857 0 20.722 4.422 27.893 11.594 5.84 5.839 9.894 13.549 11.141 22.109h24.661c-2.041-2.777-3.969-5.669-5.641-8.617-3.742-6.633-6.265-13.55-6.265-20.183 0-8.561 3.458-16.3 9.07-21.884 5.614-5.611 13.352-9.069 21.885-9.069zm8.9 17.689c-2.522-1.7-5.584-2.692-8.9-2.692a15.921 15.921 0 0 0-11.283 4.677 15.873 15.873 0 0 0-4.677 11.282c0 4.309 2.183 9.099 4.28 12.812 3.43 5.868 7.398 10.97 11.963 15.987h42.945c4.309-4.734 8.787-10.318 11.962-15.959 2.552-4.535 4.28-9.014 4.28-12.841 0-4.422-1.785-8.391-4.677-11.282s-6.889-4.677-11.282-4.677c-3.316 0-6.378.992-8.9 2.692a16.3 16.3 0 0 0-5.925 7.258c-.708 1.842-2.183 3.373-4.139 4.166-3.854 1.531-8.192-.312-9.723-4.166-1.189-2.948-3.287-5.471-5.924-7.257zM256.34 234.712c-4.139 0-7.483-3.345-7.483-7.455a7.476 7.476 0 0 1 7.483-7.483h47.964a28.832 28.832 0 0 1 8.447-19.447 29.363 29.363 0 0 1 12.812-7.455l-.312-39.373h-.028c0-1.785-3.911-4.109-10.204-6.434-8.561-3.146-20.553-5.104-33.96-5.104-13.38 0-25.37 1.957-33.932 5.104-6.321 2.324-10.232 4.648-10.232 6.434v201.744a135.051 135.051 0 0 1 10.432-16.81 134.377 134.377 0 0 1 53.207-43.428H256.34a7.476 7.476 0 0 1-7.483-7.483c0-4.11 3.345-7.455 7.483-7.455h47.964v-15.222H256.34c-4.139 0-7.483-3.346-7.483-7.455a7.477 7.477 0 0 1 7.483-7.484h47.964v-15.193H256.34zm6.293-45.185c-4.139 0-7.512-3.374-7.512-7.512 0-4.139 3.373-7.484 7.512-7.484h10.913V163.59c0-4.139 3.374-7.483 7.513-7.483s7.512 3.345 7.512 7.483v10.941h10.914c4.139 0 7.512 3.346 7.512 7.484s-3.373 7.512-7.512 7.512H288.57v10.941c0 4.139-3.373 7.483-7.512 7.483s-7.513-3.345-7.513-7.483v-10.941zm-73.731 258.778c-4.138 0-7.483-3.374-7.483-7.512a7.476 7.476 0 0 1 7.483-7.483h72.483c4.139 0 7.512 3.345 7.512 7.483s-3.373 7.512-7.512 7.512zm-82.516-330.071h17.717c4.139 0 7.512 3.345 7.512 7.483 0 4.14-3.373 7.513-7.512 7.513h-17.717v21.855h17.717a7.507 7.507 0 0 1 7.512 7.512c0 4.139-3.373 7.483-7.512 7.483h-17.717v21.854h17.717c4.139 0 7.512 3.374 7.512 7.513s-3.373 7.483-7.512 7.483h-17.717v17.32h39.685V100.915h-39.685zm-1.021-32.315h48.218c4.139 0 7.483 3.346 7.483 7.512v138.334a7.475 7.475 0 0 1-7.483 7.482h-48.218a28.345 28.345 0 0 1-19.673 19.673v245.597A7.476 7.476 0 0 1 78.209 512H29.65c-4.138 0-7.512-3.345-7.512-7.483v-324.94c0-4.139 3.374-7.512 7.512-7.512 4.139 0 7.483 3.373 7.483 7.512v317.428h33.564V252.429c0-4.139 3.373-7.511 7.512-7.511 3.6 0 6.916-1.476 9.298-3.857 2.381-2.409 3.883-5.697 3.883-9.297V93.431c0-3.628-1.502-6.916-3.883-9.325a13.16 13.16 0 0 0-9.298-3.855H50.315c-3.6 0-6.917 1.474-9.298 3.855-2.381 2.409-3.884 5.697-3.884 9.325v52.159c0 4.139-3.345 7.512-7.483 7.512s-7.512-3.373-7.512-7.512V93.431c0-7.766 3.175-14.824 8.277-19.927 5.103-5.103 12.161-8.277 19.899-8.277h27.894c7.738 0 14.797 3.175 19.899 8.277a28.328 28.328 0 0 1 7.258 12.415zm136.774 394.333c-4.139 0-7.512-3.373-7.512-7.512 0-4.14 3.373-7.484 7.512-7.484h28.375c6.718 0 12.841-2.75 17.263-7.2 4.45-4.422 7.2-10.545 7.2-17.263v-21.431H155.313v21.431c0 6.718 2.749 12.841 7.2 17.263 4.422 4.45 10.544 7.2 17.263 7.2h28.375c4.139 0 7.512 3.345 7.512 7.484s-3.373 7.512-7.512 7.512h-28.375c-10.857 0-20.722-4.45-27.864-11.595-7.145-7.143-11.595-17.008-11.595-27.864v-20.239a24.426 24.426 0 0 0-9.751 6.01c-4.45 4.422-7.2 10.545-7.2 17.262v28.745c0 6.689 2.75 12.812 7.2 17.263 4.422 4.422 10.545 7.172 17.263 7.172h154.633c6.718 0 12.841-2.75 17.263-7.172 4.45-4.45 7.2-10.573 7.2-17.263v-28.745c0-6.717-2.75-12.84-7.2-17.262a24.426 24.426 0 0 0-9.751-6.01v20.239c0 10.856-4.422 20.722-11.594 27.864-7.145 7.145-17.009 11.595-27.865 11.595zm99.78-27.185v19.503c0 9.213-3.203 17.717-8.532 24.435h108.086c2.126 0 3.146-.567 4.507-2.154 9.185-10.63 16.526-22.904 21.487-36.285.68-1.813 1.305-3.656 1.898-5.498l-127.446-.001zm50.458-162.144v-43.115c0-3.855 1.219-7.143 3.713-9.609 2.381-2.409 5.584-3.713 9.609-3.713h35.349c3.77 0 7.227-1.559 9.751-4.054 2.494-2.522 4.054-5.952 4.054-9.751s-1.56-7.229-4.054-9.753c-2.523-2.494-5.981-4.053-9.751-4.053H333.103a13.778 13.778 0 0 0-9.751 4.053c-2.495 2.524-4.054 5.954-4.054 9.753v70.242zM313.289 92.354V39.459c0-6.719-2.749-12.842-7.172-17.264-4.45-4.45-10.545-7.199-17.264-7.199h-15.591c-6.718 0-12.812 2.749-17.263 7.199-4.422 4.422-7.172 10.545-7.172 17.264v52.896h64.462z" fill="#000000" opacity="1" data-original="#000000"></path></g></svg>