<svg xmlns="http://www.w3.org/2000/svg" version="1.1" xmlns:xlink="http://www.w3.org/1999/xlink" width="512" height="512" x="0" y="0" viewBox="0 0 512 512" style="enable-background:new 0 0 512 512" xml:space="preserve"><g><path d="M286.133 249.366V215.5c0-59.094-47.905-107-107-107h0c-59.094 0-107 47.906-107 107V238" style="stroke-width:15;stroke-linecap:round;stroke-linejoin:round;stroke-miterlimit:10;" fill="none" stroke="#000000" stroke-width="15" stroke-linecap="round" stroke-linejoin="round" stroke-miterlimit="10" data-original="#000000"></path><path d="M260.344 285.673a3.99 3.99 0 0 1-3.944-3.331l-1.075-6.345a5.984 5.984 0 0 0-5.916-4.997h-46.553a5.985 5.985 0 0 0-5.916 4.997l-1.075 6.345a3.989 3.989 0 0 1-3.944 3.331h-60.289v120.782c0 4.963-4.038 9-9 9H72.886l9.473 67.519c1.732 12.344 12.292 21.526 24.758 21.526h154.215a13.29 13.29 0 0 0 13.16-11.442l29.081-207.271-.133-.115h-43.096z" style="" fill="#fe646f" data-original="#fe646f"></path><path d="M303.441 285.673h-31.573l.133.115-29.081 207.271a13.29 13.29 0 0 1-13.16 11.442h31.573a13.29 13.29 0 0 0 13.16-11.442l29.081-207.271-.133-.115z" style="" fill="#fd4755" data-original="#fd4755"></path><path d="m73.026 416.455 9.333 66.518c1.732 12.344 12.292 21.526 24.758 21.526h147.516a5 5 0 0 1-5-5V451a5 5 0 0 1 5-5h26.462l22.355-159.327" style="stroke-width:15;stroke-linecap:round;stroke-linejoin:round;stroke-miterlimit:10;" fill="none" stroke="#000000" stroke-width="15" stroke-linecap="round" stroke-linejoin="round" stroke-miterlimit="10" data-original="#000000"></path><path d="M309.274 249.366H131.633v37.307h60.289a5 5 0 0 0 4.93-4.165l1.075-6.344a5 5 0 0 1 4.93-4.165h46.552a5 5 0 0 1 4.93 4.165l1.075 6.344a5 5 0 0 0 4.93 4.165h48.93a8.859 8.859 0 0 0 8.859-8.859v-19.589a8.859 8.859 0 0 0-8.859-8.859z" style="" fill="#fd4755" data-original="#fd4755"></path><path d="M309.274 249.366h-41.633a8.859 8.859 0 0 1 8.859 8.859v19.589a8.859 8.859 0 0 1-8.859 8.859h41.633a8.859 8.859 0 0 0 8.859-8.859v-19.589a8.859 8.859 0 0 0-8.859-8.859z" style="" fill="#fb2b3a" data-original="#fb2b3a"></path><path d="M309.274 249.366H132.633v37.307h59.289a5 5 0 0 0 4.93-4.165l1.075-6.344a5 5 0 0 1 4.93-4.165h46.552a5 5 0 0 1 4.93 4.165l1.075 6.344a5 5 0 0 0 4.93 4.165h48.93a8.859 8.859 0 0 0 8.859-8.859v-19.589a8.859 8.859 0 0 0-8.859-8.859z" style="stroke-width:15;stroke-linecap:round;stroke-linejoin:round;stroke-miterlimit:10;" fill="none" stroke="#000000" stroke-width="15" stroke-linecap="round" stroke-linejoin="round" stroke-miterlimit="10" data-original="#000000"></path><path d="M351.426 383h23.207c1.202 0 2.348.241 3.397.671V12.5a5 5 0 0 0-5-5h-20a5 5 0 0 0-5 5v371.17a8.948 8.948 0 0 1 3.396-.67z" style="" fill="#26a6fe" data-original="#26a6fe"></path><path d="M373.03 7.5H359a5 5 0 0 1 5 5V383h10.633c1.202 0 2.348.241 3.397.671V12.5a5 5 0 0 0-5-5z" style="" fill="#0593fc" data-original="#0593fc"></path><path d="M348.03 175v207.604a9.96 9.96 0 0 1 3.397-.604h23.206a9.96 9.96 0 0 1 3.397.604V12.5a5 5 0 0 0-5-5h-20a5 5 0 0 0-5 5V140" style="stroke-width:15;stroke-linecap:round;stroke-linejoin:round;stroke-miterlimit:10;" fill="none" stroke="#000000" stroke-width="15" stroke-linecap="round" stroke-linejoin="round" stroke-miterlimit="10" data-original="#000000"></path><path d="M384.633 447v-55c0-5.523-4.477-10-10-10h-23.206c-5.523 0-10 4.477-10 10v55h43.206z" style="" fill="#ffd15b" data-original="#ffd15b"></path><path d="M374.633 382H354c5.523 0 10 4.477 10 10v55h20.633v-55c0-5.523-4.477-10-10-10z" style="" fill="#ffc344" data-original="#ffc344"></path><path d="M384.633 446v-54c0-5.523-4.477-10-10-10h-23.206c-5.523 0-10 4.477-10 10v54h43.206z" style="stroke-width:15;stroke-linecap:round;stroke-linejoin:round;stroke-miterlimit:10;" fill="none" stroke="#000000" stroke-width="15" stroke-linecap="round" stroke-linejoin="round" stroke-miterlimit="10" data-original="#000000"></path><path d="M471.427 504.5H254.633a5 5 0 0 1-5-5V451a5 5 0 0 1 5-5h216.794a5 5 0 0 1 5 5v48.5a5 5 0 0 1-5 5z" style="" fill="#ffe177" data-original="#ffe177"></path><path d="M471.427 446h-41.633a5 5 0 0 1 5 5v48.5a5 5 0 0 1-5 5h41.633a5 5 0 0 0 5-5V451a5 5 0 0 0-5-5z" style="" fill="#ffd15b" data-original="#ffd15b"></path><path d="M296 446h-41.367a5 5 0 0 0-5 5v48.5a5 5 0 0 0 5 5h216.794a5 5 0 0 0 5-5V451a5 5 0 0 0-5-5H331" style="stroke-width:15;stroke-linecap:round;stroke-linejoin:round;stroke-miterlimit:10;" fill="none" stroke="#000000" stroke-width="15" stroke-linecap="round" stroke-linejoin="round" stroke-miterlimit="10" data-original="#000000"></path><path d="M249.633 499.5a5 5 0 0 0 5 5h216.794a5 5 0 0 0 5-5V479H249.633v20.5z" style="" fill="#7a6d79" data-original="#7a6d79"></path><path d="M476.427 499.5V479h-41.633v20.5a5 5 0 0 1-5 5h41.633a5 5 0 0 0 5-5z" style="" fill="#685e68" data-original="#685e68"></path><path d="M249.633 499.5a5 5 0 0 0 5 5h216.794a5 5 0 0 0 5-5V479H249.633v20.5z" style="stroke-width:15;stroke-linecap:round;stroke-linejoin:round;stroke-miterlimit:10;" fill="none" stroke="#000000" stroke-width="15" stroke-linecap="round" stroke-linejoin="round" stroke-miterlimit="10" data-original="#000000"></path><path d="M122.633 416.455h-77.06c-5.523 0-10-4.477-10-10V259.462c0-11.853 9.609-21.462 21.462-21.462h65.597c5.523 0 10 4.477 10 10v158.455c.001 5.523-4.476 10-9.999 10z" style="" fill="#ffe177" data-original="#ffe177"></path><path d="M122.633 238H93.06c5.523 0 10 4.477 10 10v158.455c0 5.523-4.477 10-10 10h29.573c5.523 0 10-4.477 10-10V248c0-5.523-4.477-10-10-10z" style="" fill="#ffd15b" data-original="#ffd15b"></path><path d="M35.573 325v81.455c0 5.523 4.477 10 10 10h77.06c5.523 0 10-4.477 10-10V248c0-5.523-4.477-10-10-10H57.036c-11.853 0-21.462 9.609-21.462 21.462V290" style="stroke-width:15;stroke-linecap:round;stroke-linejoin:round;stroke-miterlimit:10;" fill="none" stroke="#000000" stroke-width="15" stroke-linecap="round" stroke-linejoin="round" stroke-miterlimit="10" data-original="#000000"></path><path d="M35.573 350.455h97.06v34.154h-97.06z" style="" fill="#0182fc" data-original="#0182fc"></path><path d="M103.06 350.455h29.573v34.155H103.06z" style="" fill="#0172fb" data-original="#0172fb"></path><path d="M35.573 350.455h97.06v34.154h-97.06z" style="stroke-width:15;stroke-linecap:round;stroke-linejoin:round;stroke-miterlimit:10;" fill="none" stroke="#000000" stroke-width="15" stroke-linecap="round" stroke-linejoin="round" stroke-miterlimit="10" data-original="#000000"></path></g></svg>