<svg xmlns="http://www.w3.org/2000/svg" version="1.1" xmlns:xlink="http://www.w3.org/1999/xlink" width="512" height="512" x="0" y="0" viewBox="0 0 682.667 682.667" style="enable-background:new 0 0 512 512" xml:space="preserve"><g><defs><clipPath id="a" clipPathUnits="userSpaceOnUse"><path d="M0 512h512V0H0Z" fill="#000000" opacity="1" data-original="#000000"></path></clipPath></defs><g clip-path="url(#a)" transform="matrix(1.33333 0 0 -1.33333 0 682.667)"><path d="m0 0-6.739-5.233-136.283 1.764a10 10 0 0 0-9.973 9.256l-17.335 188.33 107.889 15.5 78.127-15.5z" style="fill-opacity:1;fill-rule:nonzero;stroke:none" transform="translate(238.08 11.383)" fill="#ffe177" data-original="#ffe177"></path><path d="m0 0-6.128-15.224L-6.479-17h-133.469c-5.231 0-9.58 4.04-9.97 9.26L-164.229 184h17.05l12.695-170.116C-133.9 6.055-127.377 0-119.526 0Z" style="fill-opacity:1;fill-rule:nonzero;stroke:none" transform="translate(231.978 21.5)" fill="#ffd15b" data-original="#ffd15b"></path><path d="M0 0c0 12.427-10.073 22.5-22.5 22.5-2.719 0-5.324-.482-7.736-1.365 0 0-3.69-2.504-5.567-4.003C-40.964 13.01-43.931 7.12-43.931 0c0-12.427 9.004-21.268 21.431-21.268 8.825 0 16.104 4.043 19.791 11.439.368.74 1.344 2.092 1.344 2.092A22.462 22.462 0 0 1 0 0" style="fill-opacity:1;fill-rule:nonzero;stroke:none" transform="translate(290.5 400)" fill="#ace5ff" data-original="#ace5ff"></path><path d="M0 0c-3.15-8.617-11.426-14.763-21.135-14.763-12.428 0-22.5 10.073-22.5 22.5 0 9.709 6.147 17.985 14.764 21.135a22.475 22.475 0 0 1-1.359-7.73c0-12.428 10.072-22.5 22.5-22.5C-5.012-1.358-2.413-.881 0 0" style="fill-opacity:1;fill-rule:nonzero;stroke:none" transform="translate(289.135 392.263)" fill="#72dcff" data-original="#72dcff"></path><path d="m0 0-288.766-1.287a5 5 0 0 0-5 5l.021 36.755c0 4.845 2.308 8.237 5.873 10.979 2.529 1.946 7.516 4.266 7.516 4.266h272c8.284 0 15-6.716 15-15v-39C6.644-1.049 2.762 0 0 0" style="fill-opacity:1;fill-rule:nonzero;stroke:none" transform="translate(330.106 206.787)" fill="#ffd15b" data-original="#ffd15b"></path><path d="M0 0v-10a5 5 0 0 0-5-5h-292a5 5 0 0 0-5 5v39c0 8.28 6.72 15 15 15V10c0-5.522 4.478-10 10-10z" style="fill-opacity:1;fill-rule:nonzero;stroke:none" transform="translate(336.75 218.5)" fill="#fcc34e" data-original="#fcc34e"></path><path d="m0 0 2.979-269.159H33.42v270a3 3 0 0 1-3 3h-16L3 3a3 3 0 0 1-3-3" style="fill-opacity:1;fill-rule:nonzero;stroke:none" transform="translate(324.83 500.66)" fill="#e39b6c" data-original="#e39b6c"></path><path d="M0 0v-273h-16V-3c0 1.66 1.34 3 3 3z" style="fill-opacity:1;fill-rule:nonzero;stroke:none" transform="translate(339.25 504.5)" fill="#d58d64" data-original="#d58d64"></path><path d="M0 0v-139.14h-15V0c0 4.141 3.359 7.5 7.5 7.5S0 4.141 0 0" style="fill-opacity:1;fill-rule:nonzero;stroke:none" transform="translate(258.25 146.64)" fill="#e9e9e9" data-original="#e9e9e9"></path><path d="M0 0v-139.14h-15V0c0 4.141 3.359 7.5 7.5 7.5S0 4.141 0 0" style="fill-opacity:1;fill-rule:nonzero;stroke:none" transform="translate(288.25 146.64)" fill="#e9e9e9" data-original="#e9e9e9"></path><path d="M0 0v-139.14h-15V0c0 4.141 3.359 7.5 7.5 7.5S0 4.141 0 0" style="fill-opacity:1;fill-rule:nonzero;stroke:none" transform="translate(318.25 146.64)" fill="#e9e9e9" data-original="#e9e9e9"></path><path d="M0 0v-139.14h-15V0c0 4.141 3.359 7.5 7.5 7.5S0 4.141 0 0" style="fill-opacity:1;fill-rule:nonzero;stroke:none" transform="translate(348.25 146.64)" fill="#e9e9e9" data-original="#e9e9e9"></path><path d="M0 0v-139.14h-15V0c0 4.141 3.359 7.5 7.5 7.5S0 4.141 0 0" style="fill-opacity:1;fill-rule:nonzero;stroke:none" transform="translate(378.25 146.64)" fill="#e9e9e9" data-original="#e9e9e9"></path><path d="M0 0v-139.14h-15V0c0 4.141 3.359 7.5 7.5 7.5S0 4.141 0 0" style="fill-opacity:1;fill-rule:nonzero;stroke:none" transform="translate(408.25 146.64)" fill="#e9e9e9" data-original="#e9e9e9"></path><path d="M0 0v-139.14h-15V0c0 4.141 3.359 7.5 7.5 7.5S0 4.141 0 0" style="fill-opacity:1;fill-rule:nonzero;stroke:none" transform="translate(438.25 146.64)" fill="#e9e9e9" data-original="#e9e9e9"></path><path d="M0 0v-106a5 5 0 0 0-5-5h-17.75l-7.5 9.64-7.5-9.64h-15l-7.5 9.64-7.5-9.64h-15l-7.5 9.64-7.5-9.64h-15l-7.5 9.64-7.5-9.64h-15l-7.5 9.64-7.5-9.64h-15l-7.5 9.64-7.5-9.64h-15l-7.5 9.64-7.5-9.64h-8.75l-11.117 1.479.936 125.521H-4.38Z" style="fill-opacity:1;fill-rule:nonzero;stroke:none" transform="translate(461 115.5)" fill="#f9f7f7" data-original="#f9f7f7"></path><path d="M0 0v-16h-215.5c-6.075 0-11-4.925-11-11v-100h-9a5 5 0 0 0-5 5V0l120.25 10.266z" style="fill-opacity:1;fill-rule:nonzero;stroke:none" transform="translate(461 131.5)" fill="#e9e9e9" data-original="#e9e9e9"></path><path d="M0 0h-32l-7.984-2.074L-47 0h-32a15.17 15.17 0 0 1-2.001-.132s-2.026-1.006-3.186-1.479c-5.47-2.238-9.308-7.187-9.308-13.463l1.808-147.979c0-2.761 2.24-5 5-5l65.15-.362a5 5 0 0 1 5 5L-14.97-157v17l7.5 1.989L.03-140H10a5 5 0 0 1 5 5v120C15-6.716 8.284 0 0 0" style="fill-opacity:1;fill-rule:nonzero;stroke:none" transform="translate(158.75 278.5)" fill="#ff8187" data-original="#ff8187"></path><path d="M0 0v-8c0-2.76-2.24-5-5-5h-69.03c-2.76 0-5 2.24-5 5v150c0 7.6 5.659 13.897 12.999 14.868L-66.03 12c0-6.63 5.37-12 12-12z" style="fill-opacity:1;fill-rule:nonzero;stroke:none" transform="translate(143.78 121.5)" fill="#ff646f" data-original="#ff646f"></path><path d="M0 0h-60.044l.235 50.989a5 5 0 0 0 5 5L-45.313 57h44a5 5 0 0 0 5-5V16Z" style="fill-opacity:1;fill-rule:nonzero;stroke:none" transform="translate(370.063 231.5)" fill="#f9f7f7" data-original="#f9f7f7"></path><path d="M0 0v-16l-33.559-5.437L-66-16v52a5 5 0 0 0 5 5h12V11c0-6.075 4.925-11 11-11z" style="fill-opacity:1;fill-rule:nonzero;stroke:none" transform="translate(373.75 247.5)" fill="#e9e9e9" data-original="#e9e9e9"></path><path d="M0 0c0 15.464-12.536 28-28 28a27.877 27.877 0 0 1-12.804-3.093s-2.564-3.437-4.335-5.024c-5.719-5.126-9.35-11.598-9.35-19.883 0-15.464 11.025-26.904 26.489-26.904 9.686 0 17.68 4.317 22.707 11.793.988 1.467 3.082 4.187 3.082 4.187A27.904 27.904 0 0 1 0 0" style="fill-opacity:1;fill-rule:nonzero;stroke:none" transform="translate(248 322)" fill="#ace5ff" data-original="#ace5ff"></path><path d="M0 0c-4.25-10.05-14.198-17.096-25.798-17.096-15.46 0-28 12.54-28 28 0 10.85 6.166 20.268 15.196 24.908a27.935 27.935 0 0 1-2.196-10.908c0-15.46 12.54-28 28-28A27.85 27.85 0 0 1 0 0" style="fill-opacity:1;fill-rule:nonzero;stroke:none" transform="translate(245.798 311.096)" fill="#72dcff" data-original="#72dcff"></path><path d="M0 0c0 12.979-10.521 23.5-23.5 23.5-2.839 0-5.561-.504-8.08-1.426 0 0-3.854-2.615-5.814-4.18C-42.785 13.588-45.883 7.437-45.883 0c0-12.979 9.404-22.213 22.383-22.213 9.217 0 16.82 4.223 20.67 11.947.386.773 1.403 2.185 1.403 2.185A23.443 23.443 0 0 1 0 0" style="fill-opacity:1;fill-rule:nonzero;stroke:none" transform="translate(146.5 347)" fill="#ace5ff" data-original="#ace5ff"></path><path d="M0 0c-3.29-9-11.934-15.419-22.073-15.419-12.981 0-23.5 10.52-23.5 23.5 0 10.14 6.42 18.784 15.42 22.074a23.474 23.474 0 0 1-1.42-8.074c0-12.98 10.519-23.5 23.5-23.5C-5.233-1.419-2.52-.92 0 0" style="fill-opacity:1;fill-rule:nonzero;stroke:none" transform="translate(145.073 338.919)" fill="#72dcff" data-original="#72dcff"></path><path d="M0 0c0 7.731-6.268 14-14 14S-28 7.731-28 0c0-7.732 6.268-14 14-14S0-7.732 0 0" style="fill-opacity:1;fill-rule:nonzero;stroke:none" transform="translate(237.904 456.33)" fill="#ace5ff" data-original="#ace5ff"></path><path d="M0 0c0 9.665-7.835 17.5-17.5 17.5S-35 9.665-35 0s7.835-17.5 17.5-17.5S0-9.665 0 0" style="fill-opacity:1;fill-rule:nonzero;stroke:none" transform="translate(203.25 398.914)" fill="#ace5ff" data-original="#ace5ff"></path><path d="M0 0c0 7.732-6.268 14-14 14S-28 7.732-28 0s6.268-14 14-14S0-7.732 0 0" style="fill-opacity:1;fill-rule:nonzero;stroke:none" transform="translate(164 478.5)" fill="#ace5ff" data-original="#ace5ff"></path><path d="m0 0-250.149.628c-5.523 0-10 4.477-10 10l1.489 25.159a49.998 49.998 0 0 0 17.393 37.905l17.884 16.564a30.569 30.569 0 0 0 19.932 7.393l8.053.979h148.683a30.56 30.56 0 0 0 19.932-7.394L-6.271 73.59a50 50 0 0 0 17.393-37.905V13.628L10 10C10 4.478 5.522 0 0 0" style="fill-opacity:1;fill-rule:nonzero;stroke:none" transform="translate(466.128 132.872)" fill="#ff8187" data-original="#ff8187"></path><path d="M0 0v-5c0-5.522-4.478-10-10-10h-253c-5.522 0-10 4.478-10 10v27.061a50 50 0 0 0 17.391 37.899l20.519 17.65A30.536 30.536 0 0 0-215.16 85h8.639l-39.299-36.41A34.968 34.968 0 0 1-258 22.061V10c0-5.522 4.478-10 10-10z" style="fill-opacity:1;fill-rule:nonzero;stroke:none" transform="translate(477.25 146.5)" fill="#ff646f" data-original="#ff646f"></path><path d="M0 0h44.574" style="stroke-width:15;stroke-linecap:round;stroke-linejoin:round;stroke-miterlimit:10;stroke-dasharray:none;stroke-opacity:1" transform="translate(262.724 262.5)" fill="none" stroke="#000000" stroke-width="15" stroke-linecap="round" stroke-linejoin="round" stroke-miterlimit="10" stroke-dasharray="none" stroke-opacity="" data-original="#000000"></path><path d="M0 0h53.234" style="stroke-width:15;stroke-linecap:round;stroke-linejoin:round;stroke-miterlimit:10;stroke-dasharray:none;stroke-opacity:1" transform="translate(174.49 262.5)" fill="none" stroke="#000000" stroke-width="15" stroke-linecap="round" stroke-linejoin="round" stroke-miterlimit="10" stroke-dasharray="none" stroke-opacity="" data-original="#000000"></path><path d="M0 0h-24.313a5 5 0 0 0-5 5v34c0 8.284 6.715 15 15 15H0" style="stroke-width:15;stroke-linecap:round;stroke-linejoin:round;stroke-miterlimit:10;stroke-dasharray:none;stroke-opacity:1" transform="translate(64.064 208.5)" fill="none" stroke="#000000" stroke-width="15" stroke-linecap="round" stroke-linejoin="round" stroke-miterlimit="10" stroke-dasharray="none" stroke-opacity="" data-original="#000000"></path><path d="M0 0h-49.245" style="stroke-width:15;stroke-linecap:round;stroke-linejoin:round;stroke-miterlimit:10;stroke-dasharray:none;stroke-opacity:1" transform="translate(223.734 208.5)" fill="none" stroke="#000000" stroke-width="15" stroke-linecap="round" stroke-linejoin="round" stroke-miterlimit="10" stroke-dasharray="none" stroke-opacity="" data-original="#000000"></path><path d="M0 0h-34.182a10 10 0 0 0-9.971 9.256l-6.826 91.542" style="stroke-width:15;stroke-linecap:round;stroke-linejoin:round;stroke-miterlimit:10;stroke-dasharray:none;stroke-opacity:1" transform="translate(126.213 7.5)" fill="none" stroke="#000000" stroke-width="15" stroke-linecap="round" stroke-linejoin="round" stroke-miterlimit="10" stroke-dasharray="none" stroke-opacity="" data-original="#000000"></path><path d="M0 0h-58.787" style="stroke-width:15;stroke-linecap:round;stroke-linejoin:round;stroke-miterlimit:10;stroke-dasharray:none;stroke-opacity:1" transform="translate(220 7.5)" fill="none" stroke="#000000" stroke-width="15" stroke-linecap="round" stroke-linejoin="round" stroke-miterlimit="10" stroke-dasharray="none" stroke-opacity="" data-original="#000000"></path><path d="M0 0h-253c-5.522 0-10 4.478-10 10v27.057a50 50 0 0 0 17.394 37.905l20.511 17.644A30.56 30.56 0 0 0-205.163 100h157.326a30.56 30.56 0 0 0 19.932-7.394l20.511-17.644A50 50 0 0 0 10 37.057V10C10 4.478 5.522 0 0 0Z" style="stroke-width:15;stroke-linecap:round;stroke-linejoin:round;stroke-miterlimit:10;stroke-dasharray:none;stroke-opacity:1" transform="translate(467.25 131.5)" fill="none" stroke="#000000" stroke-width="15" stroke-linecap="round" stroke-linejoin="round" stroke-miterlimit="10" stroke-dasharray="none" stroke-opacity="" data-original="#000000"></path><path d="M0 0v46.644" style="stroke-width:15;stroke-linecap:round;stroke-linejoin:round;stroke-miterlimit:10;stroke-dasharray:none;stroke-opacity:1" transform="translate(358.25 457.856)" fill="none" stroke="#000000" stroke-width="15" stroke-linecap="round" stroke-linejoin="round" stroke-miterlimit="10" stroke-dasharray="none" stroke-opacity="" data-original="#000000"></path><path d="M0 0v133.687" style="stroke-width:15;stroke-linecap:round;stroke-linejoin:round;stroke-miterlimit:10;stroke-dasharray:none;stroke-opacity:1" transform="translate(358.25 289.17)" fill="none" stroke="#000000" stroke-width="15" stroke-linecap="round" stroke-linejoin="round" stroke-miterlimit="10" stroke-dasharray="none" stroke-opacity="" data-original="#000000"></path><path d="M0 0v-215.33" style="stroke-width:15;stroke-linecap:round;stroke-linejoin:round;stroke-miterlimit:10;stroke-dasharray:none;stroke-opacity:1" transform="translate(323.25 504.5)" fill="none" stroke="#000000" stroke-width="15" stroke-linecap="round" stroke-linejoin="round" stroke-miterlimit="10" stroke-dasharray="none" stroke-opacity="" data-original="#000000"></path><path d="M461 7.5H220.5v124H461Z" style="stroke-width:15;stroke-linecap:round;stroke-linejoin:round;stroke-miterlimit:10;stroke-dasharray:none;stroke-opacity:1" fill="none" stroke="#000000" stroke-width="15" stroke-linecap="round" stroke-linejoin="round" stroke-miterlimit="10" stroke-dasharray="none" stroke-opacity="" data-original="#000000"></path><path d="M0 0v122" style="stroke-width:15;stroke-linecap:round;stroke-linejoin:round;stroke-miterlimit:10;stroke-dasharray:none;stroke-opacity:1" transform="translate(250.75 8.5)" fill="none" stroke="#000000" stroke-width="15" stroke-linecap="round" stroke-linejoin="round" stroke-miterlimit="10" stroke-dasharray="none" stroke-opacity="" data-original="#000000"></path><path d="M0 0v32.181" style="stroke-width:15;stroke-linecap:round;stroke-linejoin:round;stroke-miterlimit:10;stroke-dasharray:none;stroke-opacity:1" transform="translate(280.75 98.32)" fill="none" stroke="#000000" stroke-width="15" stroke-linecap="round" stroke-linejoin="round" stroke-miterlimit="10" stroke-dasharray="none" stroke-opacity="" data-original="#000000"></path><path d="M0 0v54.819" style="stroke-width:15;stroke-linecap:round;stroke-linejoin:round;stroke-miterlimit:10;stroke-dasharray:none;stroke-opacity:1" transform="translate(280.75 8.5)" fill="none" stroke="#000000" stroke-width="15" stroke-linecap="round" stroke-linejoin="round" stroke-miterlimit="10" stroke-dasharray="none" stroke-opacity="" data-original="#000000"></path><path d="M0 0v122" style="stroke-width:15;stroke-linecap:round;stroke-linejoin:round;stroke-miterlimit:10;stroke-dasharray:none;stroke-opacity:1" transform="translate(310.75 8.5)" fill="none" stroke="#000000" stroke-width="15" stroke-linecap="round" stroke-linejoin="round" stroke-miterlimit="10" stroke-dasharray="none" stroke-opacity="" data-original="#000000"></path><path d="M0 0v122" style="stroke-width:15;stroke-linecap:round;stroke-linejoin:round;stroke-miterlimit:10;stroke-dasharray:none;stroke-opacity:1" transform="translate(340.75 8.5)" fill="none" stroke="#000000" stroke-width="15" stroke-linecap="round" stroke-linejoin="round" stroke-miterlimit="10" stroke-dasharray="none" stroke-opacity="" data-original="#000000"></path><path d="M0 0v122" style="stroke-width:15;stroke-linecap:round;stroke-linejoin:round;stroke-miterlimit:10;stroke-dasharray:none;stroke-opacity:1" transform="translate(370.75 8.5)" fill="none" stroke="#000000" stroke-width="15" stroke-linecap="round" stroke-linejoin="round" stroke-miterlimit="10" stroke-dasharray="none" stroke-opacity="" data-original="#000000"></path><path d="M0 0v122" style="stroke-width:15;stroke-linecap:round;stroke-linejoin:round;stroke-miterlimit:10;stroke-dasharray:none;stroke-opacity:1" transform="translate(400.75 8.5)" fill="none" stroke="#000000" stroke-width="15" stroke-linecap="round" stroke-linejoin="round" stroke-miterlimit="10" stroke-dasharray="none" stroke-opacity="" data-original="#000000"></path><path d="M0 0v122" style="stroke-width:15;stroke-linecap:round;stroke-linejoin:round;stroke-miterlimit:10;stroke-dasharray:none;stroke-opacity:1" transform="translate(430.75 8.5)" fill="none" stroke="#000000" stroke-width="15" stroke-linecap="round" stroke-linejoin="round" stroke-miterlimit="10" stroke-dasharray="none" stroke-opacity="" data-original="#000000"></path><path d="M0 0h-79c-8.284 0-15-6.716-15-15v-150a5 5 0 0 1 5-5h69a5 5 0 0 1 5 5v25h25a5 5 0 0 1 5 5v120C15-6.716 8.284 0 0 0Z" style="stroke-width:15;stroke-linecap:round;stroke-linejoin:round;stroke-miterlimit:10;stroke-dasharray:none;stroke-opacity:1" transform="translate(158.75 278.5)" fill="none" stroke="#000000" stroke-width="15" stroke-linecap="round" stroke-linejoin="round" stroke-miterlimit="10" stroke-dasharray="none" stroke-opacity="" data-original="#000000"></path><path d="M0 0v51.437a5 5 0 0 0 5 5h56a5 5 0 0 0 5-5V-.085" style="stroke-width:15;stroke-linecap:round;stroke-linejoin:round;stroke-miterlimit:10;stroke-dasharray:none;stroke-opacity:1" transform="translate(307.75 232.064)" fill="none" stroke="#000000" stroke-width="15" stroke-linecap="round" stroke-linejoin="round" stroke-miterlimit="10" stroke-dasharray="none" stroke-opacity="" data-original="#000000"></path><path d="M0 0c0 15.464-12.536 28-28 28S-56 15.464-56 0s12.536-28 28-28S0-15.464 0 0z" style="stroke-width:15;stroke-linecap:round;stroke-linejoin:round;stroke-miterlimit:10;stroke-dasharray:none;stroke-opacity:1" transform="translate(248 322)" fill="none" stroke="#000000" stroke-width="15" stroke-linecap="round" stroke-linejoin="round" stroke-miterlimit="10" stroke-dasharray="none" stroke-opacity="" data-original="#000000"></path><path d="M0 0c0 12.979-10.521 23.5-23.5 23.5S-47 12.979-47 0s10.521-23.5 23.5-23.5S0-12.979 0 0Z" style="stroke-width:15;stroke-linecap:round;stroke-linejoin:round;stroke-miterlimit:10;stroke-dasharray:none;stroke-opacity:1" transform="translate(146.5 347)" fill="none" stroke="#000000" stroke-width="15" stroke-linecap="round" stroke-linejoin="round" stroke-miterlimit="10" stroke-dasharray="none" stroke-opacity="" data-original="#000000"></path><path d="M0 0c0 12.427-10.073 22.5-22.5 22.5S-45 12.427-45 0s10.073-22.5 22.5-22.5S0-12.427 0 0Z" style="stroke-width:15;stroke-linecap:round;stroke-linejoin:round;stroke-miterlimit:10;stroke-dasharray:none;stroke-opacity:1" transform="translate(290.5 400)" fill="none" stroke="#000000" stroke-width="15" stroke-linecap="round" stroke-linejoin="round" stroke-miterlimit="10" stroke-dasharray="none" stroke-opacity="" data-original="#000000"></path><path d="M0 0c0 7.731-6.268 14-14 14S-28 7.731-28 0c0-7.732 6.268-14 14-14S0-7.732 0 0z" style="stroke-width:15;stroke-linecap:round;stroke-linejoin:round;stroke-miterlimit:10;stroke-dasharray:none;stroke-opacity:1" transform="translate(237.904 456.33)" fill="none" stroke="#000000" stroke-width="15" stroke-linecap="round" stroke-linejoin="round" stroke-miterlimit="10" stroke-dasharray="none" stroke-opacity="" data-original="#000000"></path><path d="M0 0c0 9.665-7.835 17.5-17.5 17.5S-35 9.665-35 0s7.835-17.5 17.5-17.5S0-9.665 0 0Z" style="stroke-width:15;stroke-linecap:round;stroke-linejoin:round;stroke-miterlimit:10;stroke-dasharray:none;stroke-opacity:1" transform="translate(203.25 398.914)" fill="none" stroke="#000000" stroke-width="15" stroke-linecap="round" stroke-linejoin="round" stroke-miterlimit="10" stroke-dasharray="none" stroke-opacity="" data-original="#000000"></path><path d="M0 0c0 7.732-6.268 14-14 14S-28 7.732-28 0s6.268-14 14-14S0-7.732 0 0z" style="stroke-width:15;stroke-linecap:round;stroke-linejoin:round;stroke-miterlimit:10;stroke-dasharray:none;stroke-opacity:1" transform="translate(164 478.5)" fill="none" stroke="#000000" stroke-width="15" stroke-linecap="round" stroke-linejoin="round" stroke-miterlimit="10" stroke-dasharray="none" stroke-opacity="" data-original="#000000"></path><path d="M0 0v46.798" style="stroke-width:15;stroke-linecap:round;stroke-linejoin:round;stroke-miterlimit:10;stroke-dasharray:none;stroke-opacity:1" transform="translate(143.75 138.5)" fill="none" stroke="#000000" stroke-width="15" stroke-linecap="round" stroke-linejoin="round" stroke-miterlimit="10" stroke-dasharray="none" stroke-opacity="" data-original="#000000"></path><path d="M0 0v-31.299" style="stroke-width:15;stroke-linecap:round;stroke-linejoin:round;stroke-miterlimit:10;stroke-dasharray:none;stroke-opacity:1" transform="translate(119.25 277.916)" fill="none" stroke="#000000" stroke-width="15" stroke-linecap="round" stroke-linejoin="round" stroke-miterlimit="10" stroke-dasharray="none" stroke-opacity="" data-original="#000000"></path></g></g></svg>