<svg xmlns="http://www.w3.org/2000/svg" version="1.1" xmlns:xlink="http://www.w3.org/1999/xlink" width="512" height="512" x="0" y="0" viewBox="0 0 512 512" style="enable-background:new 0 0 512 512" xml:space="preserve"><g><path d="M388.456 91.425H127.164c-7.87 0-14.25-6.38-14.25-14.25V58.468c0-7.87 6.38-14.25 14.25-14.25h261.292c7.87 0 14.25 6.38 14.25 14.25v18.707c0 7.87-6.38 14.25-14.25 14.25z" style="" fill="#d8ecfe" data-original="#d8ecfe"></path><path d="M285.149 44.217H230.47V15.639a8.14 8.14 0 0 1 8.139-8.139h38.4a8.14 8.14 0 0 1 8.139 8.139v28.578zM137.889 91.425H374.11v35.854H137.889z" style="" fill="#60b7ff" data-original="#60b7ff"></path><path d="M388.915 127.279h-265.83c-31.627 0-57.266 25.639-57.266 57.266v288.742c0 17.239 13.975 31.213 31.213 31.213h317.936c17.239 0 31.213-13.975 31.213-31.213V184.545c0-31.627-25.639-57.266-57.266-57.266z" style="" fill="#d8ecfe" data-original="#d8ecfe"></path><path d="M411.533 131.927a57.061 57.061 0 0 1 4.648 22.618v288.741c0 17.239-13.975 31.213-31.213 31.213H67.032c-.397 0-.79-.015-1.183-.03.623 16.689 14.341 30.03 31.183 30.03h317.936c17.238 0 31.213-13.975 31.213-31.213V184.545c0-23.593-14.271-43.847-34.648-52.618z" style="" fill="#c4e2ff" data-original="#c4e2ff"></path><path d="M402.426 504.5H179.83a7.025 7.025 0 0 1-7.025-7.025v-9.124c0-25.828 20.938-46.766 46.766-46.766h143.114c25.828 0 46.766 20.938 46.766 46.766v9.124a7.025 7.025 0 0 1-7.025 7.025z" style="" fill="#ffbd86" data-original="#ffbd86"></path><path d="M402.426 441.586H179.83a7.025 7.025 0 0 1-7.025-7.025v-9.124c0-25.828 20.938-46.766 46.766-46.766h143.114c25.828 0 46.766 20.938 46.766 46.766v9.124a7.025 7.025 0 0 1-7.025 7.025z" style="" fill="#ffe5c2" data-original="#ffe5c2"></path><path d="M402.426 378.672H179.83a7.025 7.025 0 0 1-7.025-7.025v-9.124c0-25.828 20.938-46.766 46.766-46.766h143.114c25.828 0 46.766 20.938 46.766 46.766v9.124a7.025 7.025 0 0 1-7.025 7.025z" style="" fill="#ffbd86" data-original="#ffbd86"></path><path d="M402.426 315.758H179.83a7.025 7.025 0 0 1-7.025-7.025v-9.124c0-25.828 20.938-46.766 46.766-46.766h143.114c25.828 0 46.766 20.938 46.766 46.766v9.124a7.025 7.025 0 0 1-7.025 7.025z" style="" fill="#ffe5c2" data-original="#ffe5c2"></path><path d="M402.426 252.844H179.83a7.025 7.025 0 0 1-7.025-7.025v-9.124c0-25.828 20.938-46.766 46.766-46.766h143.114c25.828 0 46.766 20.938 46.766 46.766v9.124a7.025 7.025 0 0 1-7.025 7.025z" style="" fill="#ffbd86" data-original="#ffbd86"></path><path d="M362.685 441.586h-30c25.828 0 46.766 20.938 46.766 46.766v9.124a7.025 7.025 0 0 1-7.025 7.024h30a7.025 7.025 0 0 0 7.025-7.024v-9.124c0-25.829-20.938-46.766-46.766-46.766z" style="" fill="#f6a96c" data-original="#f6a96c"></path><path d="M362.685 378.672h-30c25.828 0 46.766 20.938 46.766 46.766v9.124a7.025 7.025 0 0 1-7.025 7.025h30a7.025 7.025 0 0 0 7.025-7.025v-9.124c0-25.829-20.938-46.766-46.766-46.766z" style="" fill="#fed2a4" data-original="#fed2a4"></path><path d="M362.685 315.758h-30c25.828 0 46.766 20.938 46.766 46.766v9.124a7.025 7.025 0 0 1-7.025 7.025h30a7.025 7.025 0 0 0 7.025-7.025v-9.124c0-25.829-20.938-46.766-46.766-46.766z" style="" fill="#f6a96c" data-original="#f6a96c"></path><path d="M362.685 252.843h-30c25.828 0 46.766 20.938 46.766 46.766v9.124a7.025 7.025 0 0 1-7.025 7.025h30a7.025 7.025 0 0 0 7.025-7.025v-9.124c0-25.828-20.938-46.766-46.766-46.766z" style="" fill="#fed2a4" data-original="#fed2a4"></path><path d="M362.685 189.929h-30c25.828 0 46.766 20.938 46.766 46.766v9.124a7.025 7.025 0 0 1-7.025 7.025h30a7.025 7.025 0 0 0 7.025-7.025v-9.124c0-25.828-20.938-46.766-46.766-46.766z" style="" fill="#f6a96c" data-original="#f6a96c"></path><circle cx="193.81" cy="407.182" r="97.318" style="" fill="#ffbd86" data-original="#ffbd86"></circle><path d="M245.37 327.08c9.963 15.271 15.758 33.509 15.758 53.102 0 53.748-43.571 97.318-97.318 97.318-20.53 0-39.571-6.363-55.271-17.216 17.367 26.619 47.406 44.216 81.56 44.216 53.747 0 97.318-43.571 97.318-97.318 0-33.217-16.646-62.542-42.047-80.102z" style="" fill="#f6a96c" data-original="#f6a96c"></path><path d="m171.415 410.701 4.789-15.627a12.918 12.918 0 0 1 13.589-9.073l12.699 1.223a12.918 12.918 0 0 1 11.503 10.734l2.604 15.623a12.917 12.917 0 0 1-5.633 12.909l-8.641 5.695a12.917 12.917 0 0 1-13.785.273l-11.451-6.914a12.917 12.917 0 0 1-5.674-14.843zM98.209 347.787l4.789-15.627a12.918 12.918 0 0 1 13.589-9.073l12.699 1.223a12.918 12.918 0 0 1 11.503 10.734l2.604 15.622a12.917 12.917 0 0 1-5.633 12.909l-8.641 5.695a12.917 12.917 0 0 1-13.785.273l-11.451-6.914a12.916 12.916 0 0 1-5.674-14.842zM188.787 314.299l9.493-13.305a12.917 12.917 0 0 1 15.763-4.301l11.658 5.183a12.916 12.916 0 0 1 7.51 13.825l-2.479 15.643a12.917 12.917 0 0 1-9.432 10.46l-10 2.665a12.917 12.917 0 0 1-13.161-4.108l-8.671-10.185a12.918 12.918 0 0 1-.681-15.877zM95.823 448.516l9.493-13.305a12.917 12.917 0 0 1 15.763-4.301l11.658 5.183a12.916 12.916 0 0 1 7.51 13.825l-2.479 15.643a12.917 12.917 0 0 1-9.432 10.46l-10 2.665a12.917 12.917 0 0 1-13.161-4.108l-8.671-10.185a12.916 12.916 0 0 1-.681-15.877zM253.092 432.505l9.492-13.305a12.917 12.917 0 0 1 15.763-4.301l11.658 5.183a12.916 12.916 0 0 1 7.51 13.825l-2.479 15.643a12.915 12.915 0 0 1-9.432 10.46l-10 2.665a12.917 12.917 0 0 1-13.161-4.108l-8.671-10.185a12.919 12.919 0 0 1-.68-15.877z" style="" fill="#ae6c6c" data-original="#ae6c6c"></path><path d="M298.838 441.586h63.847c25.828 0 46.766 20.938 46.766 46.766v9.124a7.025 7.025 0 0 1-7.025 7.025H179.83M299.29 485.359l9.516 16.591M325.327 441.586l9.516 16.591" style="stroke-width:15;stroke-linecap:round;stroke-linejoin:round;stroke-miterlimit:10;" fill="none" stroke="#000000" stroke-width="15" stroke-linecap="round" stroke-linejoin="round" stroke-miterlimit="10" data-original="#000000"></path><path d="M287.88 378.672h74.805c25.828 0 46.766 20.938 46.766 46.766v9.124a7.025 7.025 0 0 1-7.025 7.025H300.524M325.327 378.672l9.516 16.591" style="stroke-width:15;stroke-linecap:round;stroke-linejoin:round;stroke-miterlimit:10;" fill="none" stroke="#000000" stroke-width="15" stroke-linecap="round" stroke-linejoin="round" stroke-miterlimit="10" data-original="#000000"></path><path d="M235.41 315.758h127.275c25.828 0 46.766 20.938 46.766 46.766v9.124a7.025 7.025 0 0 1-7.025 7.025H291.128M319.29 359.531l9.516 16.591M335.327 315.758l9.516 16.591M172.806 308.733v-9.124c0-25.828 20.938-46.766 46.766-46.766h143.114c25.828 0 46.766 20.938 46.766 46.766v9.124a7.025 7.025 0 0 1-7.025 7.025H235.41M242.904 252.844l9.515 16.59M299.29 296.617l9.516 16.591M325.327 252.844l9.516 16.59" style="stroke-width:15;stroke-linecap:round;stroke-linejoin:round;stroke-miterlimit:10;" fill="none" stroke="#000000" stroke-width="15" stroke-linecap="round" stroke-linejoin="round" stroke-miterlimit="10" data-original="#000000"></path><path d="M402.426 252.844H179.83a7.025 7.025 0 0 1-7.025-7.025v-9.124c0-25.828 20.938-46.766 46.766-46.766h143.114c25.828 0 46.766 20.938 46.766 46.766v9.124a7.025 7.025 0 0 1-7.025 7.025zM242.904 190.929l9.515 16.591M299.29 233.703l9.516 16.591M325.327 190.929l9.516 16.591M171.415 410.701l4.789-15.627a12.918 12.918 0 0 1 13.589-9.073l12.699 1.223a12.918 12.918 0 0 1 11.503 10.734l2.604 15.623a12.917 12.917 0 0 1-5.633 12.909l-8.641 5.695a12.917 12.917 0 0 1-13.785.273l-11.451-6.914a12.917 12.917 0 0 1-5.674-14.843zM98.209 347.787l4.789-15.627a12.918 12.918 0 0 1 13.589-9.073l12.699 1.223a12.918 12.918 0 0 1 11.503 10.734l2.604 15.622a12.917 12.917 0 0 1-5.633 12.909l-8.641 5.695a12.917 12.917 0 0 1-13.785.273l-11.451-6.914a12.916 12.916 0 0 1-5.674-14.842zM188.787 314.299l9.493-13.305a12.917 12.917 0 0 1 15.763-4.301l11.658 5.183a12.916 12.916 0 0 1 7.51 13.825l-2.479 15.643a12.917 12.917 0 0 1-9.432 10.46l-10 2.665a12.917 12.917 0 0 1-13.161-4.108l-8.671-10.185a12.918 12.918 0 0 1-.681-15.877zM95.823 448.516l9.493-13.305a12.917 12.917 0 0 1 15.763-4.301l11.658 5.183a12.916 12.916 0 0 1 7.51 13.825l-2.479 15.643a12.917 12.917 0 0 1-9.432 10.46l-10 2.665a12.917 12.917 0 0 1-13.161-4.108l-8.671-10.185a12.916 12.916 0 0 1-.681-15.877zM253.092 432.505l9.492-13.305a12.917 12.917 0 0 1 15.763-4.301l11.658 5.183a12.916 12.916 0 0 1 7.51 13.825l-2.479 15.643a12.915 12.915 0 0 1-9.432 10.46l-10 2.665a12.917 12.917 0 0 1-13.161-4.108l-8.671-10.185a12.919 12.919 0 0 1-.68-15.877zM233.37 318.241c34.033 15.16 57.758 49.28 57.758 88.941 0 3.558-.191 7.072-.563 10.531" style="stroke-width:15;stroke-linecap:round;stroke-linejoin:round;stroke-miterlimit:10;" fill="none" stroke="#000000" stroke-width="15" stroke-linecap="round" stroke-linejoin="round" stroke-miterlimit="10" data-original="#000000"></path><path d="M137.484 327.811a96.82 96.82 0 0 1 52.614-17.878M101.623 438.447c-3.327-9.813-5.131-20.328-5.131-31.265 0-14.473 3.159-28.207 8.826-40.552M270.966 466.5c-17.793 23.109-45.736 38-77.156 38-26.077 0-49.758-10.257-67.231-26.956M378.666 44.217h9.79c7.87 0 14.25 6.38 14.25 14.25v18.707c0 7.87-6.38 14.25-14.25 14.25H127.164c-7.87 0-14.25-6.38-14.25-14.25V58.468c0-7.87 6.38-14.25 14.25-14.25h216.502M285.149 44.217H230.47V15.639a8.14 8.14 0 0 1 8.139-8.139h38.4a8.14 8.14 0 0 1 8.139 8.139v28.578zM137.889 91.425H374.11v35.854H137.889z" style="stroke-width:15;stroke-linecap:round;stroke-linejoin:round;stroke-miterlimit:10;" fill="none" stroke="#000000" stroke-width="15" stroke-linecap="round" stroke-linejoin="round" stroke-miterlimit="10" data-original="#000000"></path><path d="M65.819 469.881v3.406c0 17.239 13.975 31.213 31.213 31.213h317.936c17.239 0 31.213-13.975 31.213-31.213V184.545c0-31.627-25.639-57.266-57.266-57.266h-265.83c-31.627 0-57.266 25.639-57.266 57.266v249.336" style="stroke-width:15;stroke-linecap:round;stroke-linejoin:round;stroke-miterlimit:10;" fill="none" stroke="#000000" stroke-width="15" stroke-linecap="round" stroke-linejoin="round" stroke-miterlimit="10" data-original="#000000"></path></g></svg>