<svg xmlns="http://www.w3.org/2000/svg" version="1.1" xmlns:xlink="http://www.w3.org/1999/xlink" width="512" height="512" x="0" y="0" viewBox="0 0 511.994 511.994" style="enable-background:new 0 0 512 512" xml:space="preserve"><g><path fill="#d3effb" d="M376.936 463.494c-1.09 22.95-20.03 41-43 41H198.027c-22.97 0-41.91-18.05-43-41a3305.48 3305.48 0 0 1-3.66-185.159c.24-28.99.87-57.99 1.87-86.99l.03-.62c2.09-51.56 43.54-92.82 95.18-94.49 11.69-.38 23.38-.38 35.07 0 51.85 1.68 93.42 43.26 95.21 95.11a3307.085 3307.085 0 0 1-1.791 272.149z" opacity="1" data-original="#d3effb"></path><path fill="#b1e4f9" d="M265.989 95.961c-2.633 0-5.266.089-7.898.278-23.35 1.677-42.058 43.257-42.868 95.102a7336.166 7336.166 0 0 0 .811 272.164c.489 22.94 9.009 40.991 19.362 40.991h-37.37c-22.973 0-41.902-18.052-43.002-40.991a3304.328 3304.328 0 0 1-1.788-272.164c1.8-51.844 43.369-93.424 95.213-95.102a542.244 542.244 0 0 1 17.54-.278z" opacity="1" data-original="#b1e4f9"></path><path fill="#ececec" d="M258.426 260.261c-1.114 9.37-8.846 16.593-18.27 17.056-8.592.422-17.182.749-25.768.978-21.01.58-42.02.59-63.02.04.242-29.194.879-58.397 1.891-87.601l.009-.009c20.65-.51 41.31-.47 61.96.11 8.314.227 16.624.548 24.935.958 9.422.465 17.149 7.687 18.264 17.055a216.985 216.985 0 0 1-.001 51.413z" opacity="1" data-original="#ececec"></path><path fill="#dadada" d="M215.227 190.835c0 .17-.01.34-.01.51-.45 28.98-.73 57.96-.83 86.95-21.01.58-42.02.59-63.02.04.24-28.99.87-57.99 1.87-86.99l.03-.62c20.65-.51 41.31-.47 61.96.11z" opacity="1" data-original="#dadada"></path><path fill="#ececec" d="M321.925 64.3H210.038c-11.209 0-20.295 9.087-20.295 20.295 0 11.209 9.087 20.295 20.295 20.295h111.888c11.209 0 20.295-9.087 20.295-20.295 0-11.208-9.087-20.295-20.296-20.295z" opacity="1" data-original="#ececec"></path><path fill="#dadada" d="M241.542 98.948a20.235 20.235 0 0 0 14.353 5.943h-45.857a20.232 20.232 0 0 1-14.352-5.943c-3.666-3.677-5.943-8.743-5.943-14.352 0-11.209 9.087-20.296 20.296-20.296h45.857c-11.209 0-20.296 9.087-20.296 20.296-.001 5.61 2.277 10.675 5.942 14.352z" opacity="1" data-original="#dadada"></path><path fill="#ececec" d="M298.112 7.5h-64.261c-13.152 0-23.813 10.661-23.813 23.813V64.3h111.888V31.313C321.925 18.161 311.264 7.5 298.112 7.5z" opacity="1" data-original="#ececec"></path><path fill="#dadada" d="M268.026 7.496c-13.153 0-23.806 10.664-23.806 23.817v32.982h-34.182V31.313c0-13.153 10.653-23.817 23.806-23.817z" opacity="1" data-original="#dadada"></path><path fill="#ffd064" d="M500.166 435.74c-1.231 1.74-2.737 13.942-4.478 15.332-60.85 48.394-147.525 48.394-208.375 0-1.74-1.39-3.247-13.592-4.478-15.332l83.832-166.794c10.271-20.414 39.417-20.414 49.688.011l12.573 25.019c-12.297 2.419-21.571 13.252-21.571 26.25 0 14.78 11.979 26.759 26.748 26.759a26.61 26.61 0 0 0 17.974-6.939z" opacity="1" data-original="#ffd064"></path><path fill="#db5b6f" d="M495.689 468.207c-60.85 48.383-147.525 48.383-208.375 0-8.669-6.897-11.279-18.939-6.303-28.839l1.825-3.629a23.22 23.22 0 0 0 4.478 4.722c60.85 48.394 147.525 48.394 208.375 0a23.221 23.221 0 0 0 4.478-4.722l1.825 3.629c4.975 9.9 2.365 21.942-6.303 28.839z" opacity="1" data-original="#db5b6f"></path><g fill="#ffc250"><circle cx="426.019" cy="414.469" r="25.897" fill="#ffc250" opacity="1" data-original="#ffc250"></circle><circle cx="371.434" cy="364.462" r="16.848" fill="#ffc250" opacity="1" data-original="#ffc250"></circle></g><path fill="#ececec" d="M339.055 410.54c0-40.359-32.718-103.658-73.077-103.658s-73.077 63.299-73.077 103.658 32.718 73.077 73.077 73.077 73.077-32.718 73.077-73.077z" opacity="1" data-original="#ececec"></path><path fill="#dadada" d="M265.981 483.619c-40.358 0-73.079-32.714-73.079-73.079 0-40.358 32.721-103.656 73.079-103.656-19.553 0-35.408 63.299-35.408 103.656 0 40.365 15.854 73.079 35.408 73.079z" opacity="1" data-original="#dadada"></path><path fill="#ececec" d="M181.402 410.54c0-40.359-32.718-103.658-73.077-103.658S35.248 370.18 35.248 410.54s32.718 73.077 73.077 73.077 73.077-32.718 73.077-73.077z" opacity="1" data-original="#ececec"></path><path fill="#dadada" d="M108.328 483.619c-40.358 0-73.079-32.714-73.079-73.079 0-40.358 32.721-103.656 73.079-103.656-19.553 0-35.408 63.299-35.408 103.656 0 40.365 15.854 73.079 35.408 73.079z" opacity="1" data-original="#dadada"></path><path fill="#e49542" d="M344.806 410.538c0 .577 0 1.154-.009 1.731-.093 7.967-.847 15.943-1.936 23.91-2.317 16.985-6.198 33.971-8.646 50.965-1.07 7.418-6.971 13.197-14.417 14.044-27.809 3.155-51.068 4.058-76.299 2.68-9.977-.53-20.271-1.424-31.262-2.671-7.464-.856-13.43-6.617-14.5-14.054-.707-4.905-1.526-10.759-2.401-17.004-.745-5.305-5.352-7.641-9.502-7.017-3.276.484-6.273 2.829-6.859 7.017a4514.232 4514.232 0 0 1-2.41 17.004c-1.07 7.436-7.036 13.197-14.5 14.054-38.792 4.402-68.751 4.393-107.561-.009-7.446-.847-13.346-6.627-14.417-14.044-2.448-16.995-6.319-33.98-8.637-50.965-1.089-7.967-1.843-15.943-1.936-23.91-.009-.577-.009-1.154-.009-1.731z" opacity="1" data-original="#e49542"></path><g fill="#e28424"><path d="M344.796 412.269c-.093 7.967-.847 15.943-1.936 23.91H31.448c-1.089-7.967-1.843-15.943-1.936-23.91z" fill="#e28424" opacity="1" data-original="#e28424"></path><path d="M85.792 503.873c-9.986-.54-20.28-1.443-31.29-2.69-7.446-.847-13.346-6.627-14.417-14.044-3.676-25.538-10.582-51.067-10.582-76.606H65.01c.866 26.665 7.874 53.329 11.708 79.984a18.351 18.351 0 0 0 9.074 13.356zM243.499 503.868c-9.977-.53-20.271-1.424-31.262-2.671-7.464-.856-13.43-6.617-14.5-14.054-.707-4.905-1.526-10.759-2.401-17.004-.745-5.305-5.352-7.641-9.502-7.017.447-19.722 1.405-39.573 1.405-52.575h35.506c.866 26.665 7.874 53.329 11.708 79.984a18.35 18.35 0 0 0 9.046 13.337z" fill="#e28424" opacity="1" data-original="#e28424"></path></g><path fill="#e49542" d="M354.854 422.496h-335.4c-6.603 0-11.957-5.353-11.957-11.957s5.353-11.957 11.957-11.957h335.399c6.603 0 11.957 5.353 11.957 11.957s-5.353 11.957-11.956 11.957z" opacity="1" data-original="#e49542"></path><path fill="#e28424" d="M61.739 422.499H19.448c-6.599 0-11.95-5.361-11.95-11.959 0-6.608 5.352-11.96 11.95-11.96h42.291c-6.608 0-11.96 5.352-11.96 11.96 0 6.598 5.352 11.959 11.96 11.959z" opacity="1" data-original="#e28424"></path><path d="m508.711 435.996-49.92-99.32a7.5 7.5 0 0 0-11.753-2.175 19.125 19.125 0 0 1-12.917 4.983c-10.615 0-19.25-8.64-19.25-19.26 0-9.176 6.526-17.12 15.519-18.891a7.501 7.501 0 0 0 5.253-10.726l-12.571-25.023c-6.032-11.994-18.12-19.445-31.545-19.446h-.003c-1.298 0-2.577.09-3.846.227a3262.94 3262.94 0 0 0-1.439-55.279c-.635-18.389-6.042-36.35-15.638-51.942a7.5 7.5 0 0 0-12.774 7.862c8.235 13.381 12.876 28.803 13.421 44.6a3246.154 3246.154 0 0 1 1.518 59.898 35.248 35.248 0 0 0-12.784 14.072l-36.693 73.009c-14.205-22.076-34.094-39.201-57.297-39.201-40.472 0-70.865 52.09-78.583 91.697h-.485c-3.958-20.31-13.879-43.897-28.064-62.066a3265.409 3265.409 0 0 1-.017-43.033c7.749.154 15.516.255 23.304.255 19.46 0 38.999-.479 58.383-1.433a26.797 26.797 0 0 0 25.36-23.664 225.412 225.412 0 0 0 0-53.175 26.794 26.794 0 0 0-25.356-23.663 1192.757 1192.757 0 0 0-79.085-1.243c3.91-30.791 22.989-57.27 51.366-70.67h106.366a90.646 90.646 0 0 1 20.699 13.491 7.467 7.467 0 0 0 4.91 1.834 7.501 7.501 0 0 0 4.917-13.166 106.217 106.217 0 0 0-10.635-8.089c6.486-5.093 10.665-12.998 10.665-21.865 0-12.728-8.602-23.477-20.295-26.759V31.313C329.439 14.047 315.393 0 298.126 0h-64.261c-17.266 0-31.313 14.047-31.313 31.313v26.524c-11.694 3.282-20.296 14.031-20.296 26.759 0 8.866 4.177 16.769 10.661 21.862a106.218 106.218 0 0 0-28.883 28.612c-11.265 16.553-17.586 35.924-18.279 56.016a3325.458 3325.458 0 0 0-1.976 122.273c-10.498-8.599-22.448-13.974-35.439-13.974-18.236 0-36.689 11.165-51.96 31.438a7.499 7.499 0 0 0 1.478 10.503 7.499 7.499 0 0 0 10.503-1.478c7.164-9.51 21.884-25.463 39.98-25.463 14.095 0 28.902 9.871 41.695 27.793 10.13 14.192 17.9 31.947 21.582 48.904H45.056c1.916-8.8 4.963-17.919 8.979-26.796a7.5 7.5 0 0 0-13.667-6.183c-4.925 10.887-8.527 22.159-10.601 32.978H19.469c-10.729 0-19.457 8.728-19.457 19.457 0 10.728 8.729 19.457 19.457 19.457h3.686c1.245 11.49 3.344 22.941 5.397 34.075 1.463 7.934 2.976 16.139 4.126 24.135 1.558 10.797 10.19 19.198 20.996 20.431 19.664 2.235 37.156 3.353 54.655 3.353 17.473 0 34.953-1.114 54.602-3.343a23.967 23.967 0 0 0 9.854-3.413c7.654 4.435 16.278 6.759 25.257 6.759h67.96l-.019-.005c17.504.001 35.005-1.116 54.679-3.352 5.21-.594 9.905-2.867 13.556-6.26a174.88 174.88 0 0 0 57.074 9.555c39.084 0 77.797-12.983 109.075-37.856 11.374-9.037 14.884-25.051 8.344-38.078zM217.552 31.313c0-8.995 7.318-16.313 16.313-16.313h64.261c8.995 0 16.313 7.318 16.313 16.313V56.8h-96.887zm-7.5 40.487h111.887c7.056 0 12.795 5.74 12.795 12.795 0 7.056-5.74 12.796-12.795 12.796H210.052c-7.056 0-12.796-5.74-12.796-12.796 0-7.055 5.741-12.795 12.796-12.795zm29.743 127.486a11.833 11.833 0 0 1 11.198 10.452 210.416 210.416 0 0 1 0 49.632 11.836 11.836 0 0 1-11.202 10.453 1173.653 1173.653 0 0 1-80.825 1.173c.257-24.325.782-48.687 1.574-72.915a1179.11 1179.11 0 0 1 79.255 1.205zm133.585 73.03c3.522-6.999 10.303-11.177 18.142-11.177h.002c7.84.001 14.624 4.182 18.145 11.183l8.768 17.452c-11.148 5.761-18.566 17.407-18.566 30.451 0 18.891 15.364 34.26 34.25 34.26a34.175 34.175 0 0 0 15.08-3.489l41.962 83.486c-.045.036-.086.076-.131.112-21.096 16.779-46.322 28.002-72.95 32.456-24.004 4.015-48.769 2.483-72.038-4.381 1.97-10.695 3.943-21.665 5.134-32.674h3.69c10.729 0 19.457-8.728 19.457-19.457s-8.728-19.457-19.457-19.457h-10.296c-2.279-11.695-6.534-24.476-12.444-36.686zM224.293 342.18c12.794-17.924 27.603-27.795 41.697-27.795 14.098 0 28.907 9.871 41.7 27.795 10.129 14.191 17.898 31.946 21.579 48.903H202.711c3.681-16.955 11.451-34.71 21.582-48.903zM15.012 410.54c0-2.458 2-4.457 4.457-4.457h335.399a4.462 4.462 0 0 1 4.457 4.457 4.462 4.462 0 0 1-4.457 4.457H19.469a4.463 4.463 0 0 1-4.457-4.457zm167.595 82.934a23.906 23.906 0 0 0 1.399-5.27 5114.99 5114.99 0 0 0 2.403-17.028c.06-.424.092-.658.757-.658.666 0 .698.234.757.652.871 6.259 1.703 12.118 2.405 17.043a23.88 23.88 0 0 0 2.924 8.457 35.048 35.048 0 0 1-10.645-3.196zm136.357.26c-38.085 4.328-67.768 4.331-105.865.01-4.083-.465-7.342-3.617-7.923-7.657a5250.725 5250.725 0 0 1-2.398-16.992c-1.12-7.994-7.541-13.577-15.613-13.576-8.072 0-14.492 5.583-15.612 13.583a5161.408 5161.408 0 0 1-2.396 16.977c-.582 4.048-3.841 7.2-7.921 7.665-38.104 4.321-67.787 4.318-105.865-.01-4.035-.46-7.262-3.614-7.847-7.667-1.192-8.286-2.732-16.639-4.222-24.716-1.903-10.318-3.844-20.913-5.054-31.355h297.836c-1.212 10.47-3.158 21.094-5.065 31.44-1.484 8.052-3.019 16.377-4.211 24.637-.584 4.051-3.811 7.201-7.844 7.661zm172.068-31.4c-41.996 33.395-98.652 43.323-149.523 26.659.046-.26.108-.514.146-.776a401.948 401.948 0 0 1 1.714-10.698 176.282 176.282 0 0 0 48.229 6.725c9.684 0 19.378-.797 28.959-2.399 27.71-4.635 54.023-15.983 76.403-32.888.288 5.049-1.81 10.105-5.928 13.377z" fill="#000000" opacity="1" data-original="#000000"></path><path d="M398.513 433.389c5.054 7.351 12.668 12.293 21.439 13.917 2.052.38 4.109.568 6.151.568 6.69 0 13.219-2.014 18.851-5.886 7.351-5.054 12.293-12.668 13.917-21.439 1.625-8.771-.265-17.65-5.318-25.001-5.054-7.351-12.668-12.293-21.439-13.917-8.774-1.624-17.65.265-25.001 5.318-7.351 5.054-12.293 12.668-13.917 21.439-1.626 8.772.263 17.651 5.317 25.001zm9.431-22.27a18.279 18.279 0 0 1 7.667-11.81 18.261 18.261 0 0 1 10.383-3.242c1.125 0 2.259.104 3.388.313a18.28 18.28 0 0 1 11.811 7.667 18.279 18.279 0 0 1 2.93 13.772 18.279 18.279 0 0 1-7.667 11.81 18.28 18.28 0 0 1-13.771 2.93 18.28 18.28 0 0 1-11.811-7.667 18.278 18.278 0 0 1-2.93-13.773zM367.015 388.403c1.496.277 2.996.414 4.485.414 4.877 0 9.637-1.469 13.743-4.291a24.19 24.19 0 0 0 10.146-15.63c1.185-6.395-.193-12.868-3.877-18.228s-9.236-8.963-15.63-10.147c-13.201-2.443-25.93 6.307-28.374 19.508-2.446 13.201 6.306 25.93 19.507 28.374zm-4.759-25.643c.938-5.068 5.826-8.43 10.894-7.489 2.455.455 4.586 1.838 6.001 3.896s1.943 4.543 1.489 6.998a9.286 9.286 0 0 1-3.896 6.001 9.28 9.28 0 0 1-6.998 1.489c-5.068-.94-8.428-5.827-7.49-10.895z" fill="#000000" opacity="1" data-original="#000000"></path></g></svg>