<svg xmlns="http://www.w3.org/2000/svg" version="1.1" xmlns:xlink="http://www.w3.org/1999/xlink" width="512" height="512" x="0" y="0" viewBox="0 0 512 512" style="enable-background:new 0 0 512 512" xml:space="preserve"><g><path fill="#ffd15b" d="M384.25 234.04H504.5v242.42H384.25z" opacity="1" data-original="#ffd15b"></path><path fill="#ffc344" d="M479.5 234.04h25v242.42h-25z" opacity="1" data-original="#ffc344"></path><path fill="#d8ecfe" d="M498.459 181.756v26.142H390.285v-26.142z" opacity="1" data-original="#d8ecfe"></path><path fill="#b3dafe" d="M473.46 181.76h25v26.14h-25z" opacity="1" data-original="#b3dafe"></path><path fill="#ffd15b" d="M504.5 234.04H384.25l6.04-26.14h108.17z" opacity="1" data-original="#ffd15b"></path><path fill="#ffc344" d="M504.5 234.04h-25l-6.04-26.14h25z" opacity="1" data-original="#ffc344"></path><path fill="#d8ecfe" d="m390.29 502.606-6.04-26.142H504.5l-6.04 26.142z" opacity="1" data-original="#d8ecfe"></path><path fill="#b3dafe" d="m504.5 476.46-6.04 26.15h-24.999l6.04-26.15z" opacity="1" data-original="#b3dafe"></path><path fill="#ffd15b" d="M444.375 403c-16.063 0-29.085-13.022-29.085-29.085v-63.47c0-16.063 13.022-29.085 29.085-29.085 16.063 0 29.085 13.022 29.085 29.085v63.47c0 16.063-13.022 29.085-29.085 29.085z" opacity="1" data-original="#ffd15b"></path><path fill="#ffc344" d="M473.46 310.44v63.48c0 16.06-13.02 29.08-29.08 29.08h-.01c-4.28 0-8.34-.92-11.99-2.59 10.07-4.56 17.08-14.71 17.08-26.49v-63.48c0-11.78-7.01-21.93-17.08-26.49 3.65-1.67 7.71-2.59 11.99-2.59h.01c16.06 0 29.08 13.02 29.08 29.08z" opacity="1" data-original="#ffc344"></path><path fill="#a4ccff" d="M7.501 195.902h142.787v100.937H7.501z" opacity="1" data-original="#a4ccff"></path><path fill="#8bb3ea" d="M125.29 195.9h25v100.94h-25z" opacity="1" data-original="#8bb3ea"></path><path fill="#d8ecfe" d="M144.576 447.395c3.768 7.699 5.713 16.01 5.713 24.411v14.141c0 9.2-8.352 16.659-18.656 16.659H26.156c-10.303 0-18.656-7.458-18.656-16.659v-14.141c0-8.402 1.945-16.713 5.713-24.411 3.858-7.881 5.181-16.566 3.823-25.081l-7.89-49.466A131.828 131.828 0 0 1 7.5 352.09v-55.245h142.789v55.245c0 6.945-.55 13.881-1.647 20.757l-7.89 49.466c-1.357 8.516-.033 17.201 3.824 25.082z" opacity="1" data-original="#d8ecfe"></path><path fill="#b3dafe" d="M140.75 422.31c-1.36 8.52-.03 17.2 3.83 25.09 3.76 7.69 5.71 16 5.71 24.41v14.14c0 9.2-8.35 16.66-18.66 16.66h-25c10.31 0 18.66-7.46 18.66-16.66v-14.14c0-8.41-1.95-16.72-5.71-24.41-3.86-7.89-5.18-16.57-3.83-25.09l7.89-49.46c1.1-6.88 1.65-13.81 1.65-20.76v-55.24h25v55.24c0 6.95-.55 13.88-1.65 20.76z" opacity="1" data-original="#b3dafe"></path><path fill="#557983" d="M114.927 35.536H42.863V20.257c0-5.999 4.863-10.863 10.863-10.863h50.339c5.999 0 10.863 4.863 10.863 10.863v15.279z" opacity="1" data-original="#557983"></path><path fill="#3e5959" d="M114.93 20.26v15.28h-25V20.26c0-6-4.87-10.87-10.87-10.87h25c6 0 10.87 4.87 10.87 10.87z" opacity="1" data-original="#3e5959"></path><path fill="#ffd15b" d="M300.024 59.591H227.96V44.312c0-5.999 4.863-10.863 10.863-10.863h50.339c5.999 0 10.863 4.863 10.863 10.863v15.279z" opacity="1" data-original="#ffd15b"></path><path fill="#ffc344" d="M300.02 44.31v15.28h-24V44.31c0-6-4.86-10.86-10.86-10.86h24c6 0 10.86 4.86 10.86 10.86z" opacity="1" data-original="#ffc344"></path><path fill="#d8ecfe" d="M150.288 195.904H7.501c0-14.272 3.613-28.302 10.49-40.731l15.332-27.712c10.956-19.802 16.714-42.156 16.714-64.896V35.537h57.716v27.028c0 22.739 5.757 45.093 16.714 64.896l15.332 27.712c6.876 12.429 10.489 26.459 10.489 40.731z" opacity="1" data-original="#d8ecfe"></path><path fill="#b3dafe" d="M150.29 195.9h-25c0-14.27-3.62-28.3-10.49-40.73l-15.33-27.71c-10.96-19.8-16.72-42.15-16.72-64.89V35.54h25v27.03c0 22.74 5.76 45.09 16.72 64.89l15.33 27.71a84.246 84.246 0 0 1 10.49 40.73z" opacity="1" data-original="#b3dafe"></path><path fill="#b3e59f" d="M303.648 144.733h-79.312c7.103-15.445 10.803-32.521 10.803-49.848V59.593h57.705v35.292c.001 17.327 3.701 34.403 10.804 49.848z" opacity="1" data-original="#b3e59f"></path><path fill="#95d6a4" d="M303.65 144.73h-24c-7.11-15.44-10.81-32.52-10.81-49.85V59.59h24v35.29c0 17.33 3.7 34.41 10.81 49.85z" opacity="1" data-original="#95d6a4"></path><path fill="#b3e59f" d="M344.964 461.803v20.987c0 10.948-8.036 19.816-17.937 19.816h-126.07c-9.901 0-17.937-8.868-17.937-19.816v-20.987c0-15.204 5.484-29.091 8.917-43.574 4.93-12.308 5.432-25.63 5.432-39.098v-93.848h133.245v93.848c0 13.468.502 26.79 5.432 39.098 3.435 14.483 8.918 28.37 8.918 43.574z" opacity="1" data-original="#b3e59f"></path><path fill="#95d6a4" d="M344.96 461.8v20.99c0 10.95-8.03 19.82-17.93 19.82h-24c9.9 0 17.93-8.87 17.93-19.82V461.8c0-15.2-5.48-29.09-8.91-43.57-4.93-12.31-5.44-25.63-5.44-39.1v-93.85h24v93.85c0 13.47.51 26.79 5.44 39.1 3.43 14.48 8.91 28.37 8.91 43.57z" opacity="1" data-original="#95d6a4"></path><path fill="#d8ecfe" d="M330.615 224.926v60.357H197.37v-60.357c0-14.159 3.024-28.119 8.825-40.74l18.142-39.454h79.312l18.142 39.454c5.8 12.622 8.824 26.582 8.824 40.74z" opacity="1" data-original="#d8ecfe"></path><path fill="#b3dafe" d="M330.61 224.93v60.35h-24.09v-60.35c0-14.16-3.02-28.12-8.83-40.74l-18.14-39.46h24.1l18.14 39.46c5.8 12.62 8.82 26.58 8.82 40.74z" opacity="1" data-original="#b3dafe"></path><path fill="#d8ecfe" d="M93.963 228H63.825c-10.145 0-18.37 8.225-18.37 18.37 0 10.145 8.225 18.37 18.37 18.37h30.138c10.145 0 18.37-8.225 18.37-18.37 0-10.145-8.224-18.37-18.37-18.37z" opacity="1" data-original="#d8ecfe"></path><path d="M157.788 195.902c-.001-15.51-3.952-30.849-11.427-44.359l-15.333-27.712c-10.321-18.654-15.776-39.839-15.776-61.265V43.02c3.99-.172 7.175-3.451 7.175-7.484v-15.28c0-10.125-8.237-18.362-18.363-18.362H53.725c-10.125 0-18.362 8.237-18.362 18.362v15.28c0 4.032 3.184 7.312 7.174 7.483v19.546c0 21.426-5.456 42.611-15.776 61.265l-15.333 27.712C3.952 165.054 0 180.394 0 195.904l.001.019L0 352.09c0 7.316.585 14.697 1.741 21.938l7.89 49.466c1.114 6.986.024 14.111-3.153 20.603C2.179 452.879 0 462.202 0 471.807v14.141c0 13.321 11.733 24.159 26.155 24.159h105.479c14.422 0 26.156-10.837 26.156-24.159v-14.141c0-9.605-2.179-18.928-6.477-27.708-3.177-6.492-4.268-13.617-3.153-20.604l7.89-49.466a139.718 139.718 0 0 0 1.741-21.938zm-15 7.502v85.936H15.001v-85.936zM57.537 55.065V43.037h42.715v12.028zm-7.174-34.809a3.366 3.366 0 0 1 3.362-3.362h50.339a3.366 3.366 0 0 1 3.363 3.362v7.78H50.363zM39.885 131.092c10.341-18.689 16.3-39.646 17.437-61.027h43.145c1.136 21.381 7.096 42.338 17.436 61.027l15.333 27.712c5.041 9.11 8.164 19.219 9.184 29.598H15.368c1.02-10.379 4.144-20.487 9.184-29.598zm97.955 319.6c3.284 6.711 4.95 13.815 4.95 21.115v14.141c0 5.05-5.004 9.159-11.156 9.159H26.155c-6.151 0-11.155-4.108-11.155-9.159v-14.141c0-7.3 1.666-14.404 4.95-21.115 4.543-9.283 6.097-19.504 4.493-29.56l-7.89-49.466A124.632 124.632 0 0 1 15 352.09v-20.257h76a7.5 7.5 0 0 0 0-15H15v-12.488h127.79v12.488h-17.456a7.5 7.5 0 0 0 0 15h17.456v20.257c0 6.527-.522 13.114-1.553 19.576l-7.89 49.465c-1.604 10.057-.051 20.278 4.493 29.561zM343.009 415.44c-4.517-11.274-4.895-24.119-4.895-36.309V224.926c0-15.165-3.289-30.335-9.511-43.873l-18.14-39.451-.001-.003c-6.619-14.392-10.117-30.545-10.117-46.714v-27.81c3.992-.169 7.18-3.45 7.18-7.484V44.312c0-10.125-8.237-18.363-18.363-18.363h-50.339c-10.125 0-18.363 8.237-18.363 18.363v15.279c0 4.034 3.187 7.315 7.18 7.484v27.81c0 16.169-3.499 32.323-10.117 46.714l-.001.003-16.606 36.113c-1.73 3.763-.083 8.217 3.681 9.947s8.217.083 9.947-3.681l14.599-31.749h69.699l16.133 35.086c5.325 11.585 8.14 24.59 8.14 37.607v52.857H204.87v-52.857c0-3.548.208-7.129.619-10.645a7.5 7.5 0 0 0-14.898-1.74c-.478 4.09-.72 8.257-.72 12.385V379.13c0 12.189-.378 25.034-4.895 36.31-1.557 3.888-9.455 34.307-9.455 46.362v20.987c0 15.062 11.411 27.315 25.437 27.315h126.07c14.026 0 25.437-12.253 25.437-27.315v-20.987c-.001-12.053-9.318-46.017-9.456-46.362zM242.64 67.093h42.705v12.028H242.64zm-7.18-22.781a3.367 3.367 0 0 1 3.363-3.363h50.339a3.367 3.367 0 0 1 3.363 3.363v7.779H235.46zm-.014 92.921c4.84-13.798 7.27-28.492 7.194-43.112h42.705c-.076 14.62 2.354 29.314 7.194 43.112zm87.669 155.551v86.348c0 13.479.449 27.765 5.761 41.36 3.418 14.206 8.613 28.717 8.588 43.47H190.52c-.086-14.727 5.175-29.287 8.588-43.47 5.312-13.596 5.761-27.881 5.761-41.36v-86.348zm3.912 202.322h-126.07c-5.755 0-10.437-5.525-10.437-12.315v-3.829h146.944v3.829c0 6.79-4.682 12.315-10.437 12.315z" fill="#000000" opacity="1" data-original="#000000"></path><path d="M246.215 210.754h35.553a7.5 7.5 0 0 0 0-15h-35.553a7.5 7.5 0 0 0 0 15zM246.215 241.541h35.553a7.5 7.5 0 0 0 0-15h-35.553a7.5 7.5 0 0 0 0 15zM63.825 272.24h30.138c14.265 0 25.87-11.605 25.87-25.87s-11.605-25.87-25.87-25.87H63.825c-14.265 0-25.87 11.605-25.87 25.87s11.606 25.87 25.87 25.87zm0-36.74h30.138c5.994 0 10.87 4.876 10.87 10.87s-4.876 10.87-10.87 10.87H63.825c-5.994 0-10.87-4.876-10.87-10.87s4.877-10.87 10.87-10.87zM444.375 273.86c-20.173 0-36.585 16.412-36.585 36.585v63.47c0 20.173 16.412 36.585 36.585 36.585s36.585-16.412 36.585-36.585v-63.47c0-20.173-16.412-36.585-36.585-36.585zm21.585 100.055c0 11.902-9.683 21.585-21.585 21.585s-21.585-9.683-21.585-21.585v-63.47c0-11.902 9.683-21.585 21.585-21.585s21.585 9.683 21.585 21.585zM458.625 421.5h-28.5a7.5 7.5 0 0 0 0 15h28.5a7.5 7.5 0 0 0 0-15z" fill="#000000" opacity="1" data-original="#000000"></path><path d="M512 476.46V234.04c0-.549-6.04-26.996-6.04-26.996v-25.288a7.5 7.5 0 0 0-7.5-7.5h-46.085a7.5 7.5 0 0 0 0 15h38.585v11.142h-93.174v-11.142H417.5a7.5 7.5 0 0 0 0-15h-27.214a7.5 7.5 0 0 0-7.5 7.5v25.305s-6.036 26.421-6.036 26.979v242.42c0 .554 6.232 27.834 6.232 27.834a7.5 7.5 0 0 0 7.308 5.812h108.17a7.502 7.502 0 0 0 7.308-5.812S512 476.712 512 476.46zM391.75 241.54H497v227.42H391.75zm1.931-15 2.574-11.14h96.24l2.574 11.14zm98.814 268.566h-96.24l-2.574-11.142H495.07z" fill="#000000" opacity="1" data-original="#000000"></path></g></svg>