<svg xmlns="http://www.w3.org/2000/svg" version="1.1" xmlns:xlink="http://www.w3.org/1999/xlink" width="512" height="512" x="0" y="0" viewBox="0 0 512 512" style="enable-background:new 0 0 512 512" xml:space="preserve"><g><path d="M492.806 437.257H19.194c-6.458 0-11.694-5.235-11.694-11.694V136.557c0-6.458 5.235-11.694 11.694-11.694h473.612c6.458 0 11.694 5.235 11.694 11.694v289.007c0 6.458-5.236 11.693-11.694 11.693z" style="" fill="#dff6fd" data-original="#dff6fd"></path><path d="M504.5 136.56v289c0 6.46-5.24 11.7-11.69 11.7h-30.08c6.46 0 11.7-5.24 11.7-11.7v-289c0-6.46-5.24-11.7-11.7-11.7h30.08c6.45 0 11.69 5.24 11.69 11.7z" style="" fill="#c8effe" data-original="#c8effe"></path><path d="M79.371 437.257H34.494v22.198c0 5.482 4.444 9.926 9.926 9.926h25.025c5.482 0 9.926-4.444 9.926-9.926v-22.198z" style="" fill="#7a6d79" data-original="#7a6d79"></path><path d="M477.506 437.257h-44.877v22.198c0 5.482 4.444 9.926 9.926 9.926h25.025c5.482 0 9.926-4.444 9.926-9.926v-22.198z" style="" fill="#685e68" data-original="#685e68"></path><path d="M34.494 94.405h443.012v30.459H34.494z" style="" fill="#26a6fe" data-original="#26a6fe"></path><path d="M447.43 94.4h30.08v30.46h-30.08z" style="" fill="#0598e2" data-original="#0598e2"></path><path d="M492.806 94.405H19.194C12.736 94.405 7.5 89.17 7.5 82.711V54.313c0-6.458 5.235-11.694 11.694-11.694h473.612c6.458 0 11.694 5.235 11.694 11.694V82.71c0 6.459-5.236 11.695-11.694 11.695z" style="" fill="#dff6fd" data-original="#dff6fd"></path><path d="M504.5 54.31v28.4c0 6.46-5.24 11.69-11.69 11.69h-30.08c6.46 0 11.7-5.23 11.7-11.69v-28.4c0-6.45-5.24-11.69-11.7-11.69h30.08c6.45 0 11.69 5.24 11.69 11.69z" style="" fill="#c8effe" data-original="#c8effe"></path><path d="M200.546 124.863h110.908v21.775c0 8.397-6.807 15.205-15.205 15.205H215.75c-8.397 0-15.205-6.807-15.205-15.205v-21.775z" style="" fill="#99e6fc" data-original="#99e6fc"></path><path d="M281.383 124.863v21.775c0 8.397-6.807 15.205-15.205 15.205h30.072c8.397 0 15.205-6.807 15.205-15.205v-21.775h-30.072z" style="" fill="#62dbfb" data-original="#62dbfb"></path><path d="M106.044 392.244H62.83c-8.362 0-15.141-6.779-15.141-15.141s6.779-15.141 15.141-15.141h43.214c8.362 0 15.141 6.779 15.141 15.141.001 8.362-6.778 15.141-15.141 15.141z" style="" fill="#a2e62e" data-original="#a2e62e"></path><path d="M200.546 124.863h292.26c6.458 0 11.694 5.235 11.694 11.694v289.007c0 6.458-5.236 11.694-11.694 11.694H19.194c-6.458 0-11.694-5.235-11.694-11.694V136.557c0-6.458 5.235-11.694 11.694-11.694h146.237" style="stroke-width:15;stroke-linecap:round;stroke-linejoin:round;stroke-miterlimit:10;" fill="none" stroke="#000000" stroke-width="15" stroke-linecap="round" stroke-linejoin="round" stroke-miterlimit="10" data-original="#000000"></path><path d="M79.371 437.257H34.494v22.198c0 5.482 4.444 9.926 9.926 9.926h25.025c5.482 0 9.926-4.444 9.926-9.926v-22.198zM477.506 437.257h-44.877v22.198c0 5.482 4.444 9.926 9.926 9.926h25.025c5.482 0 9.926-4.444 9.926-9.926v-22.198zM477.506 124.863V94.405H34.494v30.458M444.718 42.62h48.088c6.458 0 11.694 5.235 11.694 11.694v28.397c0 6.458-5.236 11.694-11.694 11.694H19.194C12.736 94.405 7.5 89.17 7.5 82.711V54.313c0-6.458 5.235-11.694 11.694-11.694h390.481M200.546 124.863h110.908v21.775c0 8.397-6.807 15.205-15.205 15.205H215.75c-8.397 0-15.205-6.807-15.205-15.205v-21.775zM47.689 161.843h31.682M47.689 190.592h73.497M403.134 267.709v124.535M427.17 267.709l-24.036 40.83-24.035-40.83M427.17 392.244l-24.036-40.831-24.035 40.831M465.402 329.976H340.867M465.402 354.012l-40.83-24.036 40.83-24.036M340.867 354.012l40.83-24.036-40.83-24.036M449.844 284.664h0M357.293 284.664h0M449.844 375.288h0M357.293 375.288h0M106.044 392.244H62.83c-8.362 0-15.141-6.779-15.141-15.141v0c0-8.362 6.779-15.141 15.141-15.141h43.214c8.362 0 15.141 6.779 15.141 15.141v0c.001 8.362-6.778 15.141-15.141 15.141z" style="stroke-width:15;stroke-linecap:round;stroke-linejoin:round;stroke-miterlimit:10;" fill="none" stroke="#000000" stroke-width="15" stroke-linecap="round" stroke-linejoin="round" stroke-miterlimit="10" data-original="#000000"></path></g></svg>