<svg xmlns="http://www.w3.org/2000/svg" version="1.1" xmlns:xlink="http://www.w3.org/1999/xlink" width="512" height="512" x="0" y="0" viewBox="0 0 511.999 511.999" style="enable-background:new 0 0 512 512" xml:space="preserve"><g><path d="M111.714 143.786h288.573l-24.048 312.621H135.761z" style="" fill="#f0eced" data-original="#f0eced"></path><path d="m111.714 143.786 24.048 312.621h32.064l-15.429-200.578a103.501 103.501 0 0 0 41.211-31.495A128.143 128.143 0 0 0 255 239.976c22.237 0 43.806-5.719 62.834-16.427a104.542 104.542 0 0 0 22.755 21.676c15.032 10.528 32.328 16.792 50.482 18.382l9.217-119.821H111.714z" style="" fill="#e1d8dc" data-original="#e1d8dc"></path><path d="m128.979 368.231 6.782 88.176h240.478l6.783-88.176z" style="" fill="#ffbc68" data-original="#ffbc68"></path><path d="m128.979 368.231 6.782 88.176h33.297l-6.782-88.176z" style="" fill="#ffa535" data-original="#ffa535"></path><path d="M400.287 79.658a79.749 79.749 0 0 0-42.927 12.478c-9.165-48.188-51.504-84.621-102.361-84.621-50.462 0-92.544 35.87-102.147 83.502-12.027-7.206-26.096-11.359-41.138-11.359-44.271 0-80.159 35.888-80.159 80.159s35.888 80.159 80.159 80.159c33.651 0 62.44-20.745 74.325-50.137 18.374 16.232 42.514 26.089 68.96 26.089 27.161 0 51.891-10.395 70.44-27.418 11.544 30.094 40.693 51.466 74.849 51.466 44.271 0 80.159-35.888 80.159-80.159-.001-44.27-35.889-80.159-80.16-80.159z" style="" fill="#f0eced" data-original="#f0eced"></path><path d="M63.618 164.827c0-42.964 33.802-78.028 76.263-80.061a79.865 79.865 0 0 0-28.168-5.108c-44.271 0-80.159 35.888-80.159 80.159s35.888 80.159 80.159 80.159a81.49 81.49 0 0 0 3.872-.103c-30.358-11.409-51.967-40.698-51.967-75.046zM184.916 96.027c9.599-47.615 51.654-83.475 102.091-83.501a104.15 104.15 0 0 0-32.009-5.011c-48.437 0-89.134 33.056-100.816 77.833a79.658 79.658 0 0 1 30.734 10.679z" style="" fill="#e1d8dc" data-original="#e1d8dc"></path><path d="M400.287 72.143a87.42 87.42 0 0 0-37.916 8.626C348.772 33.404 305.141 0 254.998 0c-49.673 0-93.247 33.074-107.13 79.938a87.66 87.66 0 0 0-36.155-7.794c-48.344 0-87.674 39.33-87.674 87.674s39.33 87.674 87.674 87.674c.147 0 .294-.006.44-.007l16.115 209.498c.297 3.863 3.621 6.939 7.497 6.939h33.471c3.381 13.786 15.837 24.048 30.652 24.048 10.211 0 31.964-10.313 46.557-17.882-2.81 8.855-9.396 20.19-24.787 27.652-3.447 1.671-5.101 5.81-3.758 9.397 1.53 4.087 6.387 6.032 10.316 4.127 14.18-6.876 22.686-16.335 27.783-25.492 5.097 9.156 13.602 18.616 27.783 25.492 3.937 1.908 8.778-.044 10.316-4.127 1.351-3.583-.317-7.728-3.758-9.397-15.391-7.463-21.978-18.797-24.787-27.653 14.593 7.57 36.346 17.883 46.557 17.883 14.814 0 27.27-10.261 30.652-24.048h33.471c3.879 0 7.2-3.076 7.497-6.939l10.828-140.757a7.515 7.515 0 0 0-6.916-8.069 7.502 7.502 0 0 0-8.069 6.917l-3.511 45.643h-63.095l14.573-87.441a7.516 7.516 0 0 0-6.177-8.648 7.506 7.506 0 0 0-8.649 6.177l-14.986 89.912h-34.214V256.009a7.515 7.515 0 1 0-15.03 0v104.708H214.27l-14.986-89.912a7.514 7.514 0 0 0-8.649-6.177 7.515 7.515 0 0 0-6.177 8.648l14.574 87.441h-63.095l-8.817-114.61c21.716-3.922 41.542-16.002 54.914-33.952a7.514 7.514 0 0 0-1.537-10.516 7.512 7.512 0 0 0-10.516 1.537c-13.865 18.612-35.103 29.286-58.269 29.286-40.057 0-72.644-32.588-72.644-72.644s32.589-72.644 72.644-72.644a72.53 72.53 0 0 1 37.276 10.29c4.383 2.627 10.222.033 11.229-4.962 9.05-44.89 48.91-77.472 94.779-77.472 46.381 0 86.325 33.019 94.979 78.511.975 5.119 7.005 7.742 11.415 4.938a72.384 72.384 0 0 1 38.895-11.305c40.057 0 72.644 32.588 72.644 72.644s-32.588 72.644-72.644 72.644c-22.03 0-42.622-9.841-56.495-26.999a7.514 7.514 0 1 0-11.687 9.449c13.454 16.64 32.148 27.57 52.772 31.223l-2.682 34.88a7.515 7.515 0 1 0 14.985 1.152l2.667-34.683c.146.001.293.006.44.006 48.344 0 87.674-39.33 87.674-87.674s-39.327-87.673-87.672-87.673zM199.889 472.939c-9.116 0-16.533-7.417-16.533-16.533 0-9.116 7.417-16.533 16.533-16.533 6.12 0 24.418 8.319 40.265 16.533-15.846 8.215-34.144 16.533-40.265 16.533zm112.223 0c-6.12 0-24.418-8.319-40.265-16.533 15.845-8.214 34.144-16.533 40.265-16.533 9.116 0 16.533 7.417 16.533 16.533-.001 9.117-7.417 16.533-16.533 16.533zm62.794-97.193-5.626 73.145h-26.517c-3.381-13.786-15.837-24.048-30.652-24.048-12.853 0-43.988 16.334-56.111 22.973-12.123-6.638-43.259-22.973-56.111-22.973-14.814 0-27.27 10.261-30.652 24.048H142.72l-5.626-73.145h237.812z" fill="#000000" opacity="1" data-original="#000000"></path><path d="M309.597 191.531c-16.109 11.045-34.988 16.883-54.598 16.883-14.916 0-29.215-3.305-42.503-9.823a7.515 7.515 0 1 0-6.618 13.495c15.366 7.537 31.892 11.358 49.122 11.358 22.656 0 44.474-6.748 63.097-19.517a7.514 7.514 0 0 0 1.948-10.448 7.517 7.517 0 0 0-10.448-1.948z" fill="#000000" opacity="1" data-original="#000000"></path></g></svg>