<svg xmlns="http://www.w3.org/2000/svg" version="1.1" xmlns:xlink="http://www.w3.org/1999/xlink" width="512" height="512" x="0" y="0" viewBox="0 0 682.667 682.667" style="enable-background:new 0 0 512 512" xml:space="preserve"><g><defs><clipPath id="a" clipPathUnits="userSpaceOnUse"><path d="M0 512h512V0H0Z" fill="#000000" opacity="1" data-original="#000000"></path></clipPath></defs><g clip-path="url(#a)" transform="matrix(1.33333 0 0 -1.33333 0 682.667)"><path d="m0 0-18.36 177.466h-3.153c-8.129 0-14.718 6.589-14.718 14.718 0 8.128 6.589 14.717 14.718 14.717h126.172V482.75a6.805 6.805 0 0 1-6.805 6.804h-361.433c-9.571 0-17.33-7.759-17.33-17.33V-.641a6.803 6.803 0 0 1 6.804-6.803H8.254A8.298 8.298 0 0 0 0 0" style="fill-opacity:1;fill-rule:nonzero;stroke:none" transform="translate(301.73 14.945)" fill="#eeeeee" data-original="#eeeeee"></path><path d="M0 0h-180.44v-13.196A6.803 6.803 0 0 1-173.637-20h282.36a8.298 8.298 0 0 0-8.255 7.444L82.108 164.91h-3.153c-8.364 0-15.099 6.978-14.701 15.429.373 7.916 7.192 14.006 15.117 14.006h125.756v275.849a6.805 6.805 0 0 1-6.804 6.805h-33.196V274.311c0-33.119-26.847-59.966-59.965-59.966H39.371c-7.925 0-14.744-6.09-15.117-14.006-.398-8.451 6.337-15.429 14.701-15.429h3.153L54.937 60.914C58.307 28.337 32.75 0 0 0" style="fill-opacity:1;fill-rule:nonzero;stroke:none" transform="translate(201.261 27.501)" fill="#bdbdbd" data-original="#bdbdbd"></path><path d="M0 0h-3.153c-8.128 0-14.718 6.589-14.718 14.718 0 8.128 6.59 14.717 14.718 14.717h67.155C62.486 102.018 3.181 160.392-69.765 160.392c-73.897 0-133.803-59.906-133.803-133.803 0-73.898 59.906-133.803 133.803-133.803 29.216 0 56.24 9.37 78.244 25.26z" style="fill-opacity:1;fill-rule:nonzero;stroke:none" transform="translate(283.37 192.411)" fill="#eeeeee" data-original="#eeeeee"></path><path d="M0 0a6.804 6.804 0 0 1-6.804 6.804h-371.96A6.803 6.803 0 0 1-385.567 0v-89.042H0Z" style="fill-opacity:1;fill-rule:nonzero;stroke:none" transform="translate(406.388 497.695)" fill="#eeeeee" data-original="#eeeeee"></path><path d="M0 0h-33.196v-14.308c0-33.986-27.552-61.538-61.538-61.538h-284.029v-20H6.804v89.042A6.804 6.804 0 0 1 0 0" style="fill-opacity:1;fill-rule:nonzero;stroke:none" transform="translate(399.584 504.5)" fill="#bdbdbd" data-original="#bdbdbd"></path><path d="M0 0a6.804 6.804 0 0 1-6.804-6.804v-89.042h134.026V0Z" style="fill-opacity:1;fill-rule:nonzero;stroke:none" transform="translate(27.625 504.5)" fill="#eeeeee" data-original="#eeeeee"></path><path d="M0 0v-49.761c0-14.406-11.679-26.085-26.085-26.085h-67.941v-20H40V0Z" style="fill-opacity:1;fill-rule:nonzero;stroke:none" transform="translate(114.847 504.5)" fill="#bdbdbd" data-original="#bdbdbd"></path><path d="M0 0c0-12.521-10.15-22.672-22.671-22.672-12.522 0-22.672 10.151-22.672 22.672s10.15 22.671 22.672 22.671C-10.15 22.671 0 12.521 0 0" style="fill-opacity:1;fill-rule:nonzero;stroke:none" transform="translate(236.276 456.577)" fill="#bdbdbd" data-original="#bdbdbd"></path><path d="M370.13 437.309h-97.768v38.535h97.768z" style="fill-opacity:1;fill-rule:nonzero;stroke:none" fill="#757575" data-original="#757575"></path><path d="M0 0h-48.332a8.739 8.739 0 0 0-8.739 8.739v14.996h65.81V8.739A8.739 8.739 0 0 0 0 0" style="fill-opacity:1;fill-rule:nonzero;stroke:none" transform="translate(112 480.764)" fill="#757575" data-original="#757575"></path><path d="M0 0h-49.459a7.376 7.376 0 0 0-7.376 7.376v101.837H7.376V7.376A7.376 7.376 0 0 0 0 0" style="fill-opacity:1;fill-rule:nonzero;stroke:none" transform="translate(429.315 112.633)" fill="#ffca28" data-original="#ffca28"></path><path d="M0 0v-65.666C0-78.67-10.542-89.213-23.547-89.213h-10.665v-12.623a7.377 7.377 0 0 1 7.377-7.377h49.458A7.377 7.377 0 0 1 30-101.836V0Z" style="fill-opacity:1;fill-rule:nonzero;stroke:none" transform="translate(406.691 221.846)" fill="#ffa000" data-original="#ffa000"></path><path d="M0 0h-39.771v-29.435H0c8.128 0 14.717 6.589 14.717 14.718C14.717-6.589 8.128 0 0 0m-103.982-29.435h-92.264c-8.128 0-14.717 6.589-14.717 14.718 0 8.128 6.589 14.717 14.717 14.717h92.264z" style="fill-opacity:1;fill-rule:nonzero;stroke:none" transform="translate(476.462 221.846)" fill="#8d6e63" data-original="#8d6e63"></path><path d="M0 0v-72.401a7.377 7.377 0 0 0-7.376-7.377h-49.459a7.377 7.377 0 0 0-7.377 7.377V0h-89.11l18.36-177.466a8.298 8.298 0 0 1 8.254-7.444H10.003a8.298 8.298 0 0 1 8.254 7.444L36.618 0Z" style="fill-opacity:1;fill-rule:nonzero;stroke:none" transform="translate(436.691 192.411)" fill="#8d6e63" data-original="#8d6e63"></path><path d="M0 0v-72.401a7.376 7.376 0 0 0-7.376-7.376h-6.33l-2.023-19.566c-3.855-37.255-35.248-65.567-72.701-65.567h-47.831l1.299-12.556a8.298 8.298 0 0 1 8.254-7.444H10.003a8.298 8.298 0 0 1 8.254 7.444L36.618 0Z" style="fill-opacity:1;fill-rule:nonzero;stroke:none" transform="translate(436.691 192.411)" fill="#5d4037" data-original="#5d4037"></path><path d="M0 0h-3.153c-8.128 0-14.718 6.589-14.718 14.718 0 8.128 6.59 14.717 14.718 14.717h38.717c-.276 11.131-2.139 21.874-5.404 31.998-1.397 4.331-5.009 7.586-9.454 8.561a44.421 44.421 0 0 1-9.519 1.027c-25.592 0-46.13-21.635-44.322-47.614 1.373-19.711 15.869-36.138 34.877-40.244z" style="fill-opacity:1;fill-rule:nonzero;stroke:none" transform="translate(283.37 192.411)" fill="#bdbdbd" data-original="#bdbdbd"></path><path d="M0 0c-1.809 25.979 18.73 47.614 44.322 47.614.773 0 1.54-.023 2.304-.062C30.751 77.28-.575 97.51-36.63 97.51c-52.097 0-94.328-42.232-94.328-94.328 0-52.097 42.231-94.329 94.328-94.329 29.524 0 55.876 13.567 73.172 34.804l-1.665 16.098C15.869-36.138 1.373-19.711 0 0" style="fill-opacity:1;fill-rule:nonzero;stroke:none" transform="translate(250.234 215.818)" fill="#757575" data-original="#757575"></path><path d="M0 0c-19.693 0-19.693 14-39.387 14-7.122 0-11.665-1.834-15.498-4.173A94.8 94.8 0 0 1-54.931 7c0-52.096 42.232-94.329 94.329-94.329 29.524 0 55.876 13.568 73.172 34.804l-1.665 16.099C93.113-32.583 79.276-17.944 76.452.078 59.06 1.137 58.271 14 39.387 14 19.693 14 19.693 0 0 0" style="fill-opacity:1;fill-rule:nonzero;stroke:none" transform="translate(174.207 212)" fill="#bbdefb" data-original="#bbdefb"></path><path d="M0 0c-17.792 3.844-31.629 18.482-34.453 36.504-17.392 1.059-18.181 13.922-37.065 13.922-.522 0-1.028-.01-1.523-.029 3.833-12.451 13.047-22.664 24.936-27.798 4.997-2.158 8.532-6.728 9.092-12.142l.015-.148c.44-4.246-.959-8.493-3.887-11.598-17.199-18.232-41.58-29.613-68.622-29.613-7.201 0-14.214.807-20.953 2.336 16.44-13.933 37.715-22.336 60.953-22.336 29.524 0 55.876 13.567 73.173 34.803z" style="fill-opacity:1;fill-rule:nonzero;stroke:none" transform="translate(285.111 175.574)" fill="#64b5f6" data-original="#64b5f6"></path><path d="M0 0v1.396C0 7.755-5.155 12.91-11.513 12.91h-21.599c-6.827 0-12.155-5.908-11.452-12.699l.144-1.396a11.514 11.514 0 0 1 11.453-10.328h21.454C-5.155-11.513 0-6.358 0 0m-11.513-87.578h-11.202c-6.827 0-12.155-5.907-11.452-12.698l.144-1.396A11.512 11.512 0 0 1-22.571-112h11.058C-5.155-112 0-106.846 0-100.487v1.396c0 6.359-5.155 11.513-11.513 11.513m36.868-11.513v-1.396c0-6.359 5.155-11.513 11.513-11.513h17.359c5.9 0 10.845 4.459 11.453 10.328l.144 1.396c.702 6.791-4.625 12.698-11.452 12.698H36.868c-6.358 0-11.513-5.154-11.513-11.513m34.263 62.223h-22.75c-6.358 0-11.513-5.155-11.513-11.513v-2.328c0-6.359 5.155-11.514 11.513-11.514h22.509c5.9 0 10.846 4.46 11.453 10.328l.24 2.329c.703 6.791-4.625 12.698-11.452 12.698m-98.791-15.026-.241 2.328c-.703 6.791 4.625 12.698 11.452 12.698h16.449C-5.155-36.868 0-42.023 0-48.381v-2.328c0-6.359-5.155-11.514-11.513-11.514h-16.208c-5.9 0-10.845 4.46-11.452 10.329" style="fill-opacity:1;fill-rule:nonzero;stroke:none" transform="translate(362.51 149.501)" fill="#4e342e" data-original="#4e342e"></path><path d="M0 0a6.804 6.804 0 0 1-6.804 6.804h-371.96A6.803 6.803 0 0 1-385.567 0v-89.042H0Z" style="stroke-width:15;stroke-linecap:round;stroke-linejoin:round;stroke-miterlimit:10;stroke-dasharray:none;stroke-opacity:1" transform="translate(406.388 497.695)" fill="none" stroke="#000000" stroke-width="15" stroke-linecap="round" stroke-linejoin="round" stroke-miterlimit="10" stroke-dasharray="none" stroke-opacity="" data-original="#000000"></path><path d="M0 0a6.804 6.804 0 0 1-6.804-6.804v-89.042h134.026V0Z" style="stroke-width:15;stroke-linecap:round;stroke-linejoin:round;stroke-miterlimit:10;stroke-dasharray:none;stroke-opacity:1" transform="translate(27.625 504.5)" fill="none" stroke="#000000" stroke-width="15" stroke-linecap="round" stroke-linejoin="round" stroke-miterlimit="10" stroke-dasharray="none" stroke-opacity="" data-original="#000000"></path><path d="M0 0c0-12.521-10.15-22.672-22.671-22.672-12.522 0-22.672 10.151-22.672 22.672s10.15 22.671 22.672 22.671C-10.15 22.671 0 12.521 0 0Z" style="stroke-width:15;stroke-linecap:round;stroke-linejoin:round;stroke-miterlimit:10;stroke-dasharray:none;stroke-opacity:1" transform="translate(236.276 456.577)" fill="none" stroke="#000000" stroke-width="15" stroke-linecap="round" stroke-linejoin="round" stroke-miterlimit="10" stroke-dasharray="none" stroke-opacity="" data-original="#000000"></path><path d="M370.13 437.309h-97.768v38.535h97.768z" style="stroke-width:15;stroke-linecap:round;stroke-linejoin:round;stroke-miterlimit:10;stroke-dasharray:none;stroke-opacity:1" fill="none" stroke="#000000" stroke-width="15" stroke-linecap="round" stroke-linejoin="round" stroke-miterlimit="10" stroke-dasharray="none" stroke-opacity="" data-original="#000000"></path><path d="M0 0h-48.332a8.739 8.739 0 0 0-8.739 8.739v14.996h65.81V8.739A8.739 8.739 0 0 0 0 0Z" style="stroke-width:15;stroke-linecap:round;stroke-linejoin:round;stroke-miterlimit:10;stroke-dasharray:none;stroke-opacity:1" transform="translate(112 480.764)" fill="none" stroke="#000000" stroke-width="15" stroke-linecap="round" stroke-linejoin="round" stroke-miterlimit="10" stroke-dasharray="none" stroke-opacity="" data-original="#000000"></path><path d="M0 0v-13.955a7.377 7.377 0 0 0-7.376-7.377h-49.459a7.377 7.377 0 0 0-7.377 7.377V87.881H0V35" style="stroke-width:15;stroke-linecap:round;stroke-linejoin:round;stroke-miterlimit:10;stroke-dasharray:none;stroke-opacity:1" transform="translate(436.691 133.965)" fill="none" stroke="#000000" stroke-width="15" stroke-linecap="round" stroke-linejoin="round" stroke-miterlimit="10" stroke-dasharray="none" stroke-opacity="" data-original="#000000"></path><path d="M0 0h-39.771v-29.435H0c8.128 0 14.717 6.589 14.717 14.718C14.717-6.589 8.128 0 0 0Zm-103.982-29.435h-92.264c-8.128 0-14.717 6.589-14.717 14.718 0 8.128 6.589 14.717 14.717 14.717h92.264z" style="stroke-width:15;stroke-linecap:round;stroke-linejoin:round;stroke-miterlimit:10;stroke-dasharray:none;stroke-opacity:1" transform="translate(476.462 221.846)" fill="none" stroke="#000000" stroke-width="15" stroke-linecap="round" stroke-linejoin="round" stroke-miterlimit="10" stroke-dasharray="none" stroke-opacity="" data-original="#000000"></path><path d="M0 0v-290.303a6.803 6.803 0 0 1 6.804-6.803h282.359" style="stroke-width:15;stroke-linecap:round;stroke-linejoin:round;stroke-miterlimit:10;stroke-dasharray:none;stroke-opacity:1" transform="translate(20.82 304.607)" fill="none" stroke="#000000" stroke-width="15" stroke-linecap="round" stroke-linejoin="round" stroke-miterlimit="10" stroke-dasharray="none" stroke-opacity="" data-original="#000000"></path><path d="M0 0v275.849a6.804 6.804 0 0 1-6.804 6.804h-361.434c-9.571 0-17.329-7.759-17.329-17.33V117.761" style="stroke-width:15;stroke-linecap:round;stroke-linejoin:round;stroke-miterlimit:10;stroke-dasharray:none;stroke-opacity:1" transform="translate(406.388 221.846)" fill="none" stroke="#000000" stroke-width="15" stroke-linecap="round" stroke-linejoin="round" stroke-miterlimit="10" stroke-dasharray="none" stroke-opacity="" data-original="#000000"></path><path d="M0 0h-89.11l18.36-177.466a8.298 8.298 0 0 1 8.254-7.444H74.215a8.298 8.298 0 0 1 8.254 7.444L100.83 0H64.212" style="stroke-width:15;stroke-linecap:round;stroke-linejoin:round;stroke-miterlimit:10;stroke-dasharray:none;stroke-opacity:1" transform="translate(372.48 192.411)" fill="none" stroke="#000000" stroke-width="15" stroke-linecap="round" stroke-linejoin="round" stroke-miterlimit="10" stroke-dasharray="none" stroke-opacity="" data-original="#000000"></path><path d="M0 0c-.276 11.131-2.139 21.874-5.404 31.998-1.397 4.331-5.009 7.585-9.454 8.561a44.485 44.485 0 0 1-9.519 1.027c-25.592 0-46.13-21.635-44.322-47.614 1.373-19.711 15.869-36.138 34.877-40.244" style="stroke-width:15;stroke-linecap:round;stroke-linejoin:round;stroke-miterlimit:10;stroke-dasharray:none;stroke-opacity:1" transform="translate(318.933 221.846)" fill="none" stroke="#000000" stroke-width="15" stroke-linecap="round" stroke-linejoin="round" stroke-miterlimit="10" stroke-dasharray="none" stroke-opacity="" data-original="#000000"></path><path d="M0 0c-22.506 17.188-50.627 27.398-81.133 27.398-73.898 0-133.804-59.905-133.804-133.803 0-73.897 59.906-133.803 133.804-133.803 29.215 0 56.239 9.37 78.243 25.26" style="stroke-width:15;stroke-linecap:round;stroke-linejoin:round;stroke-miterlimit:10;stroke-dasharray:none;stroke-opacity:1" transform="translate(294.738 325.405)" fill="none" stroke="#000000" stroke-width="15" stroke-linecap="round" stroke-linejoin="round" stroke-miterlimit="10" stroke-dasharray="none" stroke-opacity="" data-original="#000000"></path><path d="M0 0c-.62 29.672-10.897 56.97-27.816 78.876" style="stroke-width:15;stroke-linecap:round;stroke-linejoin:round;stroke-miterlimit:10;stroke-dasharray:none;stroke-opacity:1" transform="translate(347.371 221.846)" fill="none" stroke="#000000" stroke-width="15" stroke-linecap="round" stroke-linejoin="round" stroke-miterlimit="10" stroke-dasharray="none" stroke-opacity="" data-original="#000000"></path><path d="M0 0c-15.875 29.728-47.201 49.958-83.256 49.958-52.097 0-94.328-42.232-94.328-94.328 0-52.096 42.231-94.329 94.328-94.329 29.524 0 55.876 13.568 73.173 34.804l-1.666 16.099" style="stroke-width:15;stroke-linecap:round;stroke-linejoin:round;stroke-miterlimit:10;stroke-dasharray:none;stroke-opacity:1" transform="translate(296.86 263.37)" fill="none" stroke="#000000" stroke-width="15" stroke-linecap="round" stroke-linejoin="round" stroke-miterlimit="10" stroke-dasharray="none" stroke-opacity="" data-original="#000000"></path><path d="M0 0c-17.393 1.06-18.182 13.922-37.065 13.922-19.694 0-19.694-14-39.387-14-19.694 0-19.694 14-39.387 14-7.122 0-11.665-1.834-15.498-4.172" style="stroke-width:15;stroke-linecap:round;stroke-linejoin:round;stroke-miterlimit:10;stroke-dasharray:none;stroke-opacity:1" transform="translate(250.659 212.078)" fill="none" stroke="#000000" stroke-width="15" stroke-linecap="round" stroke-linejoin="round" stroke-miterlimit="10" stroke-dasharray="none" stroke-opacity="" data-original="#000000"></path><path d="M0 0h16.208c6.358 0 11.513 5.155 11.513 11.513v2.328c0 6.359-5.155 11.513-11.513 11.513H-.241c-6.827 0-12.155-5.907-11.452-12.698l.241-2.327A11.513 11.513 0 0 1 0 0Z" style="stroke-width:15;stroke-linecap:round;stroke-linejoin:round;stroke-miterlimit:10;stroke-dasharray:none;stroke-opacity:1" transform="translate(334.79 87.279)" fill="none" stroke="#000000" stroke-width="15" stroke-linecap="round" stroke-linejoin="round" stroke-miterlimit="10" stroke-dasharray="none" stroke-opacity="" data-original="#000000"></path><path d="M0 0h-22.75c-6.358 0-11.513-5.155-11.513-11.513v-2.328c0-6.359 5.155-11.513 11.513-11.513H-.241c5.9 0 10.845 4.459 11.452 10.328l.241 2.328C12.155-5.907 6.827 0 0 0Z" style="stroke-width:15;stroke-linecap:round;stroke-linejoin:round;stroke-miterlimit:10;stroke-dasharray:none;stroke-opacity:1" transform="translate(422.129 112.633)" fill="none" stroke="#000000" stroke-width="15" stroke-linecap="round" stroke-linejoin="round" stroke-miterlimit="10" stroke-dasharray="none" stroke-opacity="" data-original="#000000"></path><path d="M0 0v-1.396C0-7.755 5.155-12.91 11.513-12.91h17.359c5.9 0 10.845 4.46 11.453 10.329l.144 1.396c.702 6.791-4.625 12.698-11.452 12.698H11.513C5.155 11.513 0 6.358 0 0Z" style="stroke-width:15;stroke-linecap:round;stroke-linejoin:round;stroke-miterlimit:10;stroke-dasharray:none;stroke-opacity:1" transform="translate(387.866 50.41)" fill="none" stroke="#000000" stroke-width="15" stroke-linecap="round" stroke-linejoin="round" stroke-miterlimit="10" stroke-dasharray="none" stroke-opacity="" data-original="#000000"></path><path d="M0 0h-11.202c-6.827 0-12.155-5.907-11.452-12.698l.144-1.396a11.513 11.513 0 0 1 11.452-10.329H0c6.358 0 11.513 5.155 11.513 11.513v1.397C11.513-5.155 6.358 0 0 0Z" style="stroke-width:15;stroke-linecap:round;stroke-linejoin:round;stroke-miterlimit:10;stroke-dasharray:none;stroke-opacity:1" transform="translate(350.998 61.924)" fill="none" stroke="#000000" stroke-width="15" stroke-linecap="round" stroke-linejoin="round" stroke-miterlimit="10" stroke-dasharray="none" stroke-opacity="" data-original="#000000"></path><path d="M0 0v1.396C0 7.755-5.155 12.91-11.513 12.91h-21.599c-6.827 0-12.155-5.908-11.452-12.699l.144-1.396a11.514 11.514 0 0 1 11.453-10.328h21.454C-5.155-11.513 0-6.358 0 0Z" style="stroke-width:15;stroke-linecap:round;stroke-linejoin:round;stroke-miterlimit:10;stroke-dasharray:none;stroke-opacity:1" transform="translate(362.51 149.501)" fill="none" stroke="#000000" stroke-width="15" stroke-linecap="round" stroke-linejoin="round" stroke-miterlimit="10" stroke-dasharray="none" stroke-opacity="" data-original="#000000"></path></g></g></svg>