<svg xmlns="http://www.w3.org/2000/svg" version="1.1" xmlns:xlink="http://www.w3.org/1999/xlink" width="512" height="512" x="0" y="0" viewBox="0 0 512 512" style="enable-background:new 0 0 512 512" xml:space="preserve"><g><path fill="#f9f6f9" d="M467.229 453.068H44.771V81.019l17.986-20.522h383.159l21.313 20.522z" opacity="1" data-original="#f9f6f9"></path><path fill="#dddaec" d="M446.12 71.02v382.048h21.109V81.02z" opacity="1" data-original="#dddaec"></path><path fill="#80b4fb" d="M408.11 7.5H103.891c-20.218 0-38.209 12.83-44.795 31.945L44.771 81.019h422.457l-14.324-41.574C446.318 20.33 428.328 7.5 408.11 7.5z" opacity="1" data-original="#80b4fb"></path><path fill="#61a2f9" d="M452.904 39.445C446.318 20.33 428.328 7.5 408.11 7.5h-21.109c20.218 0 38.209 12.83 44.795 31.945L446.12 81.02h21.109z" opacity="1" data-original="#61a2f9"></path><path fill="#407093" d="M467.229 453.068H44.771v27.011c0 13.487 10.933 24.42 24.42 24.42h373.617c13.487 0 24.42-10.933 24.42-24.42v-27.011z" opacity="1" data-original="#407093"></path><path fill="#365e7d" d="M446.12 453.068v27.011c0 13.487-10.933 24.42-24.42 24.42h21.109c13.487 0 24.42-10.933 24.42-24.42v-27.011z" opacity="1" data-original="#365e7d"></path><circle cx="122.322" cy="44.26" r="16.238" fill="#f9f6f9" opacity="1" data-original="#f9f6f9"></circle><circle cx="193.998" cy="44.26" r="16.238" fill="#f9f6f9" opacity="1" data-original="#f9f6f9"></circle><circle cx="255.81" cy="267.044" r="136.715" fill="#407093" opacity="1" data-original="#407093"></circle><path fill="#365e7d" d="M255.81 130.329c-4.115 0-8.184.192-12.207.549 69.786 6.176 124.508 64.776 124.508 136.167s-54.723 129.99-124.508 136.167c4.022.356 8.092.549 12.207.549 75.506 0 136.715-61.209 136.715-136.715S331.316 130.329 255.81 130.329z" opacity="1" data-original="#365e7d"></path><path fill="#80b4fb" d="M467.229 144.564h-58.357c-9.027 0-16.346-7.318-16.346-16.346 0-9.027 7.318-16.346 16.346-16.346h58.357z" opacity="1" data-original="#80b4fb"></path><path fill="#61a2f9" d="M446.12 111.873h21.109v32.691H446.12z" opacity="1" data-original="#61a2f9"></path><path fill="#80b4fb" d="M44.771 387.414h58.357c9.027 0 16.346 7.318 16.346 16.346 0 9.027-7.318 16.346-16.346 16.346H44.771z" opacity="1" data-original="#80b4fb"></path><path fill="#f9f6f9" d="M249.222 265.622c20.154 13.407 45.271 13.632 67.02 9.717a20.713 20.713 0 0 1-.239-3.143v-10.303a20.743 20.743 0 0 1 13.112-19.289c12.251-4.847 16.983-19.768 9.68-30.733-17.822-26.755-48.233-44.402-82.775-44.473-54.301-.112-99.09 43.929-99.847 98.225 0-.001 47.488-30.31 93.049-.001z" opacity="1" data-original="#f9f6f9"></path><path fill="#dddaec" d="M338.795 211.87c-17.822-26.755-48.233-44.402-82.775-44.473a99.363 99.363 0 0 0-11.683.67c29.813 3.431 55.622 20.01 71.471 43.803 7.304 10.965 2.571 25.886-9.68 30.733a20.744 20.744 0 0 0-13.112 19.289c.066 10.041-.312 11.814.708 15.641 7.674-.053 15.283-.893 22.518-2.195-.397-2.596-.175-3.656-.239-13.446a20.743 20.743 0 0 1 13.112-19.289c12.251-4.847 16.984-19.768 9.68-30.733z" opacity="1" data-original="#dddaec"></path><path fill="#80b4fb" d="M255.81 366.691c34.67 0 65.201-17.708 83.05-44.572 7.264-10.934 2.464-25.804-9.742-30.633l-.003-.001a20.747 20.747 0 0 1-12.874-16.146c-21.749 3.915-46.866 3.691-67.02-9.717-45.561-30.309-93.049 0-93.049 0-.775 55.685 44.131 101.069 99.638 101.069z" opacity="1" data-original="#80b4fb"></path><path fill="#61a2f9" d="m329.119 291.486-.003-.001a20.747 20.747 0 0 1-12.874-16.146c-7.235 1.302-14.844 2.142-22.518 2.195a20.74 20.74 0 0 0 12.404 13.951l.003.001c12.206 4.83 17.006 19.7 9.742 30.633-15.85 23.856-41.705 40.48-71.575 43.906 3.778.435 7.618.666 11.512.666 34.67 0 65.201-17.708 83.05-44.572 7.265-10.933 2.465-25.804-9.741-30.633z" opacity="1" data-original="#61a2f9"></path><path d="m474.319 78.576-14.324-41.574C452.37 14.87 431.518 0 408.11 0H233.573c-4.142 0-7.5 3.357-7.5 7.5s3.358 7.5 7.5 7.5H408.11c17.01 0 32.162 10.806 37.703 26.889l10.898 31.631H55.288l10.898-31.631C71.728 25.806 86.88 15 103.89 15h99.696c4.142 0 7.5-3.357 7.5-7.5s-3.358-7.5-7.5-7.5H103.89C80.481 0 59.63 14.87 52.005 37.002L37.681 78.576a7.733 7.733 0 0 0-.409 2.443V480.08c0 17.601 14.319 31.92 31.92 31.92h60.549c4.142 0 7.5-3.357 7.5-7.5s-3.358-7.5-7.5-7.5H69.192c-9.33 0-16.92-7.59-16.92-16.92v-19.512h407.457v19.512c0 9.33-7.59 16.92-16.92 16.92H159.727c-4.142 0-7.5 3.357-7.5 7.5s3.358 7.5 7.5 7.5h283.081c17.601 0 31.92-14.319 31.92-31.92V81.02c0-.78-.138-1.66-.409-2.444zm-14.591 58.487h-50.857c-4.877 0-8.845-3.968-8.845-8.846s3.968-8.846 8.845-8.846h50.857zM52.272 394.914h50.857c4.877 0 8.846 3.968 8.846 8.845 0 4.878-3.968 8.846-8.846 8.846H52.272zm0 50.654v-17.964h50.857c13.148 0 23.846-10.697 23.846-23.846s-10.697-23.845-23.846-23.845H52.272V88.52h407.457v15.853h-50.857c-13.148 0-23.845 10.697-23.845 23.846s10.696 23.846 23.845 23.846h50.857V445.57H52.272z" fill="#000000" opacity="1" data-original="#000000"></path><path d="M98.585 44.26c0 13.089 10.648 23.737 23.737 23.737S146.06 57.349 146.06 44.26s-10.649-23.738-23.738-23.738S98.585 31.171 98.585 44.26zm32.475 0c0 4.817-3.92 8.737-8.738 8.737s-8.737-3.92-8.737-8.737c0-4.818 3.919-8.738 8.737-8.738s8.738 3.919 8.738 8.738zM193.997 20.521c-13.089 0-23.737 10.649-23.737 23.738s10.648 23.737 23.737 23.737 23.738-10.648 23.738-23.737-10.649-23.738-23.738-23.738zm0 32.476c-4.818 0-8.737-3.92-8.737-8.737 0-4.818 3.919-8.738 8.737-8.738s8.738 3.92 8.738 8.738c0 4.817-3.92 8.737-8.738 8.737zM269.047 51.76c4.143 0 7.5-3.357 7.5-7.5s-3.357-7.5-7.5-7.5h-25.528c-4.142 0-7.5 3.357-7.5 7.5s3.358 7.5 7.5 7.5zM337.481 51.76c4.143 0 7.5-3.357 7.5-7.5s-3.357-7.5-7.5-7.5h-25.527c-4.143 0-7.5 3.357-7.5 7.5s3.357 7.5 7.5 7.5zM405.916 51.76c4.143 0 7.5-3.357 7.5-7.5s-3.357-7.5-7.5-7.5h-25.527c-4.143 0-7.5 3.357-7.5 7.5s3.357 7.5 7.5 7.5zM355.42 272.566v-11.045c0-4.143-3.357-7.5-7.5-7.5s-7.5 3.357-7.5 7.5v11.045c0 4.143 3.357 7.5 7.5 7.5s7.5-3.357 7.5-7.5z" fill="#000000" opacity="1" data-original="#000000"></path><path d="M331.875 249.577c7.979-3.157 14.024-9.666 16.587-17.858 2.552-8.157 1.304-16.907-3.425-24.007-19.895-29.867-53.166-47.741-89.001-47.814h-.223c-58.285 0-106.327 47.335-107.139 105.62-.403 28.921 10.55 56.181 30.842 76.758 20.296 20.581 47.391 31.916 76.294 31.916 35.978 0 69.36-17.915 89.297-47.922 4.691-7.061 5.922-15.768 3.375-23.89-2.562-8.172-8.584-14.669-16.529-17.838l-.079-.032a13.282 13.282 0 0 1-8.218-10.305l-.001-.004v-.002a13.101 13.101 0 0 1-.152-2.004v-10.303a13.174 13.174 0 0 1 8.372-12.315zm-5.515 48.883a13.273 13.273 0 0 1 7.81 8.407c1.186 3.782.618 7.828-1.557 11.102-17.149 25.812-45.861 41.223-76.803 41.223-24.856 0-48.158-9.748-65.613-27.448-16.449-16.679-25.763-38.467-26.488-61.745 26.426-13.718 56.549-14.635 81.359 1.868 19.319 12.85 42.841 15.075 65.921 11.9 2.973 6.591 8.422 11.921 15.289 14.661zm-17.857-36.567v7.055c-19.077 2.549-39.032 1.136-55.126-9.57-26.439-17.589-58.431-18.937-88.54-6.431l-.096.039c6.824-44.107 45.267-78.089 91.074-78.089h.191c30.818.062 59.435 15.438 76.548 41.131a13.086 13.086 0 0 1 1.594 11.212 13.233 13.233 0 0 1-7.79 8.39c-10.848 4.29-17.855 14.599-17.855 26.263zM90.97 471.284c-4.142 0-7.5 3.357-7.5 7.5s3.358 7.5 7.5 7.5h23.961c4.142 0 7.5-3.357 7.5-7.5s-3.358-7.5-7.5-7.5zM420.65 486.284c4.143 0 7.5-3.357 7.5-7.5s-3.357-7.5-7.5-7.5h-23.961c-4.143 0-7.5 3.357-7.5 7.5s3.357 7.5 7.5 7.5z" fill="#000000" opacity="1" data-original="#000000"></path><path d="M392.302 256.159a7.5 7.5 0 0 0-7.316 7.68c.026 1.065.041 2.134.041 3.205 0 71.25-57.966 129.216-129.216 129.216s-129.215-57.966-129.215-129.216c0-71.249 57.966-129.215 129.215-129.215 59.365 0 110.903 40.162 125.331 97.667 1.008 4.019 5.087 6.462 9.1 5.449a7.5 7.5 0 0 0 5.449-9.1c-16.104-64.188-73.625-109.017-139.88-109.017-79.521 0-144.215 64.694-144.215 144.215S176.29 411.26 255.81 411.26s144.216-64.695 144.216-144.216c0-1.192-.017-2.382-.045-3.568-.1-4.141-3.561-7.414-7.679-7.317z" fill="#000000" opacity="1" data-original="#000000"></path></g></svg>