<svg xmlns="http://www.w3.org/2000/svg" version="1.1" xmlns:xlink="http://www.w3.org/1999/xlink" width="512" height="512" x="0" y="0" viewBox="0 0 64 64" style="enable-background:new 0 0 512 512" xml:space="preserve"><g><g data-name="Layer 31"><path fill="#c9c9c9" d="M45 10a3 3 0 0 0-3-3 32.129 32.129 0 0 0-3.982.248 49.306 49.306 0 0 0-24.98 10.66l-.674.547A45.6 45.6 0 0 0 4.627 26.5 13.132 13.132 0 0 0 2 34.378a13.134 13.134 0 0 0 6.618 11.4L9 46a17.073 17.073 0 0 0 12.071 5A13.866 13.866 0 0 0 33.7 42.871a179.6 179.6 0 0 0 10.178-28.606z" opacity="1" data-original="#c9c9c9"></path><path fill="#dddddd" d="M45 10a3 3 0 0 0-3-3 32.129 32.129 0 0 0-3.982.248 49.32 49.32 0 0 0-9.7 2.228 49.3 49.3 0 0 0-10.284 6.432l-.674.547A45.6 45.6 0 0 0 9.627 24.5a13.134 13.134 0 0 0 3.991 19.284L14 44a17.073 17.073 0 0 0 12.071 5 13.791 13.791 0 0 0 2.564-.248 13.839 13.839 0 0 0 5.06-5.881 179.6 179.6 0 0 0 10.183-28.606z" opacity="1" data-original="#dddddd"></path><path fill="#5a5b5d" d="M19.77 26.2A44.293 44.293 0 0 0 9.485 46.388a43.143 43.143 0 0 0 20.943-13.163A54.117 54.117 0 0 0 38.1 21.79l6.57-13.13a2.976 2.976 0 0 0-.165-.3l-5.572 2.918A68.138 68.138 0 0 0 19.77 26.2z" opacity="1" data-original="#5a5b5d"></path><path fill="#f9cb6e" d="M17 47.6a9.4 9.4 0 0 0 2.18 6.021A9.406 9.406 0 0 0 26.405 57a22.644 22.644 0 0 0 12.159-3.541l8.389-5.338a66.45 66.45 0 0 0 14.328-12.3A2.91 2.91 0 0 0 62 33.908 2.908 2.908 0 0 0 59.092 31a8.814 8.814 0 0 1-5.507-1.932A9.436 9.436 0 0 0 47.689 27a39.565 39.565 0 0 0-16.579 3.641l-1.654.764A33.179 33.179 0 0 0 23 35.337 15.528 15.528 0 0 0 17 47.6z" opacity="1" data-original="#f9cb6e"></path><path fill="#ffd997" d="M48.953 44.121a66.425 66.425 0 0 0 12.983-10.816A2.909 2.909 0 0 0 59.092 31a8.814 8.814 0 0 1-5.507-1.932A9.436 9.436 0 0 0 47.689 27a39.565 39.565 0 0 0-16.579 3.641l-1.654.764A33.179 33.179 0 0 0 23 35.337a15.474 15.474 0 0 0-3.2 3.412A15.5 15.5 0 0 0 19 43.6a9.4 9.4 0 0 0 2.18 6.021A9.406 9.406 0 0 0 28.405 53a22.644 22.644 0 0 0 12.159-3.541z" opacity="1" data-original="#ffd997"></path><path fill="#ffecd2" d="m29.225 50.975-.45-1.95 1.891-.436a51.029 51.029 0 0 0 19.72-9.378l1.228 1.578a53.026 53.026 0 0 1-20.5 9.749zM31.5 35.868l-1-1.736A31.409 31.409 0 0 1 46.062 30H48v2h-1.938A29.416 29.416 0 0 0 31.5 35.868z" opacity="1" data-original="#ffecd2"></path><path d="m30.666 48.589-1.891.436.45 1.95 1.89-.437a53.026 53.026 0 0 0 20.5-9.749l-1.228-1.578a51.029 51.029 0 0 1-19.721 9.378zM46.062 32H48v-2h-1.938A31.409 31.409 0 0 0 30.5 34.132l.992 1.736A29.416 29.416 0 0 1 46.062 32z" fill="#000000" opacity="1" data-original="#000000"></path><path d="M59.093 30a7.848 7.848 0 0 1-4.883-1.712A10.47 10.47 0 0 0 47.689 26a40.419 40.419 0 0 0-6.463.526c1.34-3.954 2.56-7.982 3.619-12.006l1.122-4.265A1 1 0 0 0 46 10a4.006 4.006 0 0 0-4-4 33.185 33.185 0 0 0-4.106.256 50.265 50.265 0 0 0-25.488 10.875l-.674.548a46.71 46.71 0 0 0-7.9 8.219 14.133 14.133 0 0 0 4.289 20.751l.268.154a18.013 18.013 0 0 0 8.369 4.663A10.345 10.345 0 0 0 26.405 58a23.61 23.61 0 0 0 12.7-3.7l8.389-5.339A67.322 67.322 0 0 0 62.033 36.48a3.907 3.907 0 0 0-2.94-6.48zm-23.31-2.193A55.008 55.008 0 0 0 39 22.237l3.667-7.337a178.302 178.302 0 0 1-3.7 12.054 42.676 42.676 0 0 0-3.184.853zM16.817 42.494a42.024 42.024 0 0 1-5.938 2.426 43.361 43.361 0 0 1 9.637-18.055A66.925 66.925 0 0 1 39.4 12.159l3.26-1.707-5.45 10.891a53.162 53.162 0 0 1-4.624 7.579q-.959.382-1.895.811l-1.654.763a34.3 34.3 0 0 0-6.656 4.052 16.422 16.422 0 0 0-5.564 7.946zM9.171 41.3a22.077 22.077 0 0 1 6.3-18.356 41.07 41.07 0 0 1 19.076-10.8l1.36-.341a68.883 68.883 0 0 0-16.88 13.727 45.37 45.37 0 0 0-9.661 17.338zM3 34.378A12.212 12.212 0 0 1 5.427 27.1a44.7 44.7 0 0 1 7.567-7.867l.674-.547A48.251 48.251 0 0 1 38.141 8.24 31.329 31.329 0 0 1 42 8a1.98 1.98 0 0 1 .542.084l-8.48 2.121a43.065 43.065 0 0 0-20.007 11.326A24.069 24.069 0 0 0 7.187 41.55l.274 2.2A12.15 12.15 0 0 1 3 34.378zm8.483 12.448A44.1 44.1 0 0 0 16.227 45 16.7 16.7 0 0 0 16 47.6a10.278 10.278 0 0 0 .134 1.618 16.019 16.019 0 0 1-4.651-2.392zm49.044-11.662a65.334 65.334 0 0 1-14.111 12.112l-8.39 5.339A21.6 21.6 0 0 1 26.405 56 8.4 8.4 0 0 1 18 47.6a14.439 14.439 0 0 1 5.609-11.469 32.274 32.274 0 0 1 6.266-3.814l1.654-.762A38.832 38.832 0 0 1 47.689 28a8.458 8.458 0 0 1 5.272 1.85A9.858 9.858 0 0 0 59.093 32a1.907 1.907 0 0 1 1.434 3.164z" fill="#000000" opacity="1" data-original="#000000"></path></g></g></svg>