<svg xmlns="http://www.w3.org/2000/svg" version="1.1" xmlns:xlink="http://www.w3.org/1999/xlink" width="512" height="512" x="0" y="0" viewBox="0 0 512.001 512.001" style="enable-background:new 0 0 512 512" xml:space="preserve"><g><path fill="#a2abb8" d="m498.605 146.205-13.881-4.503a3.001 3.001 0 0 1-1.928-1.928l-5.943-18.32a3.004 3.004 0 0 0-1.928-1.928l-18.318-5.941a3.001 3.001 0 0 1-1.928-1.928l-5.941-18.317a3 3 0 0 0-1.928-1.928l-18.317-5.941a3 3 0 0 1-1.928-1.928l-5.941-18.317a3 3 0 0 0-1.928-1.928l-18.315-5.939a3 3 0 0 1-1.928-1.928l-5.939-18.314a3 3 0 0 0-1.928-1.928l-18.313-5.937a3 3 0 0 1-1.928-1.928l-1.011-3.117-3.574-9.125c-.774-2.385-3.959-2.825-5.35-.739l-17.482 29.578 54.523 67.882 72.624 59.265 29.268-19.512c2.087-1.393 1.648-4.578-.738-5.351z" opacity="1" data-original="#a2abb8"></path><path fill="#ffc269" d="M168.191 467.303 46.875 345.986l299.06-299.06 124.141 124.14-154.313 154.313-36.41 19.65-21.56 38.32-76.88 76.88z" opacity="1" data-original="#ffc269"></path><path fill="#ffa95f" d="m315.765 325.376-57.976 57.976c-16.405 16.405-37.505 25.258-58.98 26.552l-.056-10.551-20.154 9.547-.007.007a90.993 90.993 0 0 1-17.246-4.561l.623-10.604-15.006 3.773a90.196 90.196 0 0 1-12.742-9.079l4.172-14.778-14.778 4.172a90.115 90.115 0 0 1-9.079-12.742l6.652-17.556-13.483 3.174a90.993 90.993 0 0 1-4.561-17.246l.007-.007 10.073-20.109-11.077-.1c1.294-21.475 10.147-42.575 26.552-58.98l34.896-24.996 23.08-32.979c16.073-16.073 36.854-24.565 57.912-25.484l3.094 7.513 16.097-5.491a5.056 5.056 0 0 1 1.435 5.565 53.04 53.04 0 0 0-3.323 18.13l-7.297 17.904 10.331.276a52.635 52.635 0 0 0 7.622 14.199l-1.577 12.183 12.183-1.577a52.609 52.609 0 0 0 14.199 7.623l.276 10.331 17.904-7.297a53.084 53.084 0 0 0 18.13-3.323 5.056 5.056 0 0 1 5.565 1.435l-6.774 15.542 8.796 3.649c-.918 21.055-9.411 41.836-25.483 57.909z" opacity="1" data-original="#ffa95f"></path><path fill="#a2abb8" d="m16.397 366.158 8.943 3.615 1.935.628a3.001 3.001 0 0 1 1.928 1.928l5.943 18.32a3.004 3.004 0 0 0 1.928 1.928l18.318 5.941a3.001 3.001 0 0 1 1.928 1.928l5.941 18.317a3 3 0 0 0 1.928 1.928l18.317 5.941a3 3 0 0 1 1.928 1.928l5.941 18.317a3 3 0 0 0 1.928 1.928l18.315 5.939a3 3 0 0 1 1.928 1.928l5.939 18.314a3 3 0 0 0 1.928 1.928l18.313 5.937a3 3 0 0 1 1.928 1.928l4.5 13.876c.774 2.385 3.959 2.825 5.35.739l19.512-29.267-59.942-69.149-67.844-58.637-27.571 18.467c-2.087 1.391-1.647 4.576.738 5.35zM390.083 212.993l-91.024-91.024a4.604 4.604 0 0 1 0-6.511l32.933-32.933a4.604 4.604 0 0 1 6.511 0l91.024 91.024a4.604 4.604 0 0 1 0 6.511l-32.933 32.933a4.604 4.604 0 0 1-6.511 0z" opacity="1" data-original="#a2abb8"></path><path fill="#909ba6" d="m52.53 351.645-27.188 18.123-11.943-3.868c-2.39-.778-2.828-3.96-.742-5.353l29.267-19.509 10.761 1.551zM350.887 51.874l-8.68-2.78-1.22-7.12 19.509-29.267c1.393-2.086 4.575-1.647 5.353.742l3.486 10.755z" opacity="1" data-original="#909ba6"></path><path fill="#ffa95f" d="m180.912 460.228-9.9 9.9-129.089-129.09 86.779-86.779 31.82-21.921 26.15-36.049L340.987 41.975l9.9 9.899L66.672 336.089a7 7 0 0 0 0 9.9z" opacity="1" data-original="#ffa95f"></path><path fill="#ff8b5a" d="M230.106 172.655 104.241 298.52c3.67-16.214 11.83-31.629 24.459-44.258l57.976-57.976c12.367-12.367 27.513-20.244 43.43-23.631z" opacity="1" data-original="#ff8b5a"></path><path d="M393.339 221.841c3.233 0 6.272-1.259 8.559-3.545l32.934-32.934a12.026 12.026 0 0 0 3.545-8.56c0-3.232-1.259-6.272-3.545-8.559L343.806 77.22c-2.286-2.286-5.326-3.545-8.559-3.545s-6.272 1.259-8.559 3.545l-32.934 32.934a12.026 12.026 0 0 0-3.545 8.56c0 3.232 1.259 6.272 3.545 8.559l91.024 91.024a12.037 12.037 0 0 0 8.561 3.544zM335.248 89.875l86.929 86.929-28.838 28.837-86.929-86.929z" fill="#000000" opacity="1" data-original="#000000"></path><path d="M511.93 147.091a7.496 7.496 0 0 0-5.115-6.108l-17.592-5.707-5.708-17.592a7.499 7.499 0 0 0-4.82-4.819l-17.59-5.705-5.704-17.589a7.498 7.498 0 0 0-4.82-4.82l-17.589-5.705-5.704-17.589a7.498 7.498 0 0 0-4.821-4.82l-17.587-5.704-5.702-17.585a7.501 7.501 0 0 0-4.821-4.821l-17.584-5.701-5.703-17.587a7.5 7.5 0 0 0-13.374-1.846l-22.535 33.803L37.144 335.209 3.34 357.745a7.5 7.5 0 0 0 1.845 13.374l17.592 5.707 5.708 17.592a7.499 7.499 0 0 0 4.82 4.819l17.59 5.705 5.704 17.589a7.5 7.5 0 0 0 4.82 4.82l17.589 5.705 5.704 17.589a7.498 7.498 0 0 0 4.821 4.82l17.587 5.704 5.702 17.585a7.501 7.501 0 0 0 4.821 4.821l17.584 5.701 5.703 17.587c1.698 4.711 8.676 7.705 13.375 1.847l22.535-33.802 219.2-219.201a7.5 7.5 0 0 0-10.606-10.607l-38.715 38.715c2.381-11.009 2.805-22.516 1.109-34.068-.551-3.757-2.745-7.024-6.019-8.965s-7.194-2.295-10.751-.976c-16.728 6.2-35.676 2.065-48.278-10.536s-16.737-31.552-10.536-48.277c1.32-3.56.964-7.479-.976-10.752s-5.208-5.467-8.963-6.019c-11.555-1.695-23.062-1.271-34.071 1.11L340.985 52.581l33.04 33.041a7.501 7.501 0 0 0 10.606-10.607l-33.995-33.996 10.944-16.416 2.104 6.488a7.501 7.501 0 0 0 4.821 4.821l17.584 5.701 5.702 17.585a7.5 7.5 0 0 0 4.821 4.82l17.587 5.704 5.704 17.588a7.5 7.5 0 0 0 4.82 4.82l17.589 5.705 5.704 17.589a7.498 7.498 0 0 0 4.82 4.82l17.59 5.706 5.707 17.591a7.497 7.497 0 0 0 4.819 4.819l6.495 2.107-16.418 10.945-61.666-61.666a7.501 7.501 0 0 0-10.606 10.607l60.71 60.71-49.227 49.227a7.5 7.5 0 0 0 10.606 10.607l54.008-54.008 33.804-22.536a7.487 7.487 0 0 0 3.272-7.262zm-244.722 87.146-138.26 138.259a83.235 83.235 0 0 1-8.881-12.935l139.096-139.096a60.62 60.62 0 0 0 8.045 13.772zm24.379 18.65L152.442 392.033a84.5 84.5 0 0 1-12.889-8.928l138.261-138.261a60.567 60.567 0 0 0 13.773 8.043zM150.42 487.498l-2.104-6.488a7.501 7.501 0 0 0-4.821-4.821l-17.584-5.701-5.702-17.585a7.5 7.5 0 0 0-4.821-4.82l-17.587-5.704-5.704-17.588a7.498 7.498 0 0 0-4.82-4.82l-17.589-5.705-5.704-17.589a7.498 7.498 0 0 0-4.82-4.82l-17.59-5.706-5.707-17.591a7.497 7.497 0 0 0-4.819-4.819l-6.495-2.107 16.418-10.945 64.155 64.155c1.464 1.464 3.384 2.196 5.303 2.196s3.839-.732 5.303-2.196a7.5 7.5 0 0 0 0-10.607l-63.2-63.199 44.527-44.527c-7.396 32.194 1.509 67.312 26.342 92.144 23.506 23.642 58.751 34.189 92.072 26.412l-44.456 44.456-30.487-30.487a7.5 7.5 0 1 0-10.606 10.606l31.442 31.442zm100.372-107.8c-12.612 11.932-27.841 19.201-43.651 21.88l125.804-125.804c-2.437 16.051-9.749 31.068-21.339 43.133-.091.156-60.712 60.694-60.814 60.791zm81.543-124.528L185.138 402.367a83.079 83.079 0 0 1-17.987-3.83L308.428 257.26a60.716 60.716 0 0 0 23.907-2.09zm-139.231-54.686c12.075-11.616 27.106-18.946 43.179-21.384l-66.851 66.851a7.5 7.5 0 0 0 10.606 10.607l76.842-76.843a60.724 60.724 0 0 0-2.092 23.909L113.629 344.785a84.205 84.205 0 0 1-3.729-18.087l45.182-45.183a7.5 7.5 0 0 0-10.606-10.607l-33.769 33.77c2.513-14.851 9.023-29.172 19.625-41.203.829-1.524 61.726-61.756 62.772-62.991z" fill="#000000" opacity="1" data-original="#000000"></path><path d="m395.415 168.273-51.637-51.637a7.501 7.501 0 0 0-10.606 10.607l51.637 51.637c1.464 1.464 3.384 2.196 5.303 2.196s3.839-.732 5.303-2.196a7.5 7.5 0 0 0 0-10.607zM286.555 196.242a7.5 7.5 0 0 0 0 10.607l18.646 18.646c1.464 1.464 3.384 2.196 5.303 2.196s3.839-.732 5.303-2.196a7.5 7.5 0 0 0 0-10.607l-18.646-18.646a7.503 7.503 0 0 0-10.606 0zM340.627 214.783a7.5 7.5 0 0 0 5.303-12.803l-35.859-35.858a7.501 7.501 0 0 0-10.606 10.607l35.859 35.858a7.475 7.475 0 0 0 5.303 2.196z" fill="#000000" opacity="1" data-original="#000000"></path></g></svg>