<svg xmlns="http://www.w3.org/2000/svg" version="1.1" xmlns:xlink="http://www.w3.org/1999/xlink" width="512" height="512" x="0" y="0" viewBox="0 0 512 512" style="enable-background:new 0 0 512 512" xml:space="preserve"><g><g fill-rule="evenodd" clip-rule="evenodd"><path fill="#f76c82" d="M272.421 127.858c0 46.366 28.23 86.132 68.437 103.064 25.602 10.78 16.364 28.867 16.736 47.235.789 38.963 31.141 69.203 69.203 69.203s69.204-31.141 69.204-69.203V127.858c0-61.74-50.05-111.79-111.79-111.79-61.74 0-111.79 50.05-111.79 111.79z" opacity="1" data-original="#f76c82"></path><path fill="#eb5463" d="M306.484 127.858c0-42.938 34.789-77.727 77.727-77.727s77.727 34.789 77.727 77.727v150.299c0 19.26-15.88 35.14-35.141 35.14-20.133 0-34.747-16.056-35.147-35.829-.206-10.193 2.159-18.497.878-29.659-2.671-23.27-17.211-39.337-38.45-48.281-28.802-12.128-47.594-40.33-47.594-71.67z" opacity="1" data-original="#eb5463"></path><path fill="#e4e8eb" d="M357.449 125.767c0 13.487 10.933 24.419 24.419 24.419s24.419-10.933 24.419-24.419-10.933-24.419-24.419-24.419-24.419 10.932-24.419 24.419zM177.077 391.021l165.127-40.16c-1.025-24.496-23.521-47.552-38.685-45.277-60.974 5.433-123.373 47.878-126.442 85.437z" opacity="1" data-original="#e4e8eb"></path><path fill="#cad0d7" d="M176.969 391.086c34.853-20.755 69.272-42.259 121.139-45.215 35.688-2.034 79.393 13.381 117.486 38.501 1.323.872 2.1 2.171 2.246 3.748.146 1.579-.382 2.997-1.523 4.097l-27.651 26.648a5.054 5.054 0 0 0-.132 7.133l26.486 27.484c1.104 1.145 1.578 2.589 1.369 4.165s-1.043 2.846-2.407 3.663c-39.125 23.462-83.505 36.997-118.645 34.278-51.094-3.954-83.137-26.345-119.509-50.266l-38.321 20.206c-19.979 10.534-43.786-4.129-43.369-26.711l.819-44.325c.417-22.582 24.75-36.355 44.326-25.091z" opacity="1" data-original="#cad0d7"></path><g fill="#e4e8eb"><path d="M351.517 381.842c-6.792.363-12.004 6.163-11.641 12.954.363 6.792 6.163 12.004 12.954 11.641 6.792-.363 12.004-6.163 11.641-12.955-.363-6.791-6.163-12.003-12.954-11.64zM243.855 421.33c-5.315 3.459-8.164 9.064-7.826 15.397l.916 17.159c.338 6.333 3.768 11.602 9.421 14.476 5.654 2.874 11.413 1.566 17.247-.921l35.092-14.12c-3.076-7.061-5.006-15.011-5.446-23.653l-32.157-9.258c-6.089-1.772-11.932-2.539-17.247.92z" fill="#e4e8eb" opacity="1" data-original="#e4e8eb"></path></g><path fill="#e4e8eb" d="m114.537 94.323 94.603 163.858a4.479 4.479 0 0 0 5.442 1.984c9.463-3.432 20.311.302 25.519 9.323 5.843 10.121 2.375 23.062-7.745 28.905a21.083 21.083 0 0 1-15.681 2.209 3.897 3.897 0 0 0-4.685 2.705 21.084 21.084 0 0 1-9.754 12.475c-10.12 5.843-23.062 2.376-28.905-7.745-5.208-9.021-3.019-20.283 4.685-26.762a4.478 4.478 0 0 0 1.003-5.705L84.417 111.713a4.479 4.479 0 0 0-5.442-1.984c-9.463 3.433-20.311-.302-25.519-9.323-5.844-10.121-2.376-23.062 7.744-28.905a21.088 21.088 0 0 1 15.681-2.21 3.897 3.897 0 0 0 4.685-2.705 21.088 21.088 0 0 1 9.754-12.475c10.12-5.843 23.062-2.376 28.905 7.745 5.208 9.021 3.019 20.283-4.685 26.762a4.478 4.478 0 0 0-1.003 5.705z" opacity="1" data-original="#e4e8eb"></path><path fill="#d5a889" d="M55.375 26.632C17.722 48.371 4.822 96.517 26.56 134.17c9.522 16.492 24.111 28.23 40.663 34.393l-.004.003c27.855 13.78 60.757 18.595 86.918 63.906l30.12-17.39c-26.16-45.311-13.879-76.212-11.886-107.226l-.004.002c2.939-17.417.068-35.921-9.454-52.412C141.174 17.793 93.028 4.893 55.375 26.632z" opacity="1" data-original="#d5a889"></path><path d="M70.092 162.118c-17.245-7.731-29.848-18.328-37.458-31.508-9.578-16.591-12.124-35.922-7.165-54.419 4.957-18.512 16.826-33.969 33.418-43.549 16.591-9.58 35.918-12.131 54.424-7.171s33.972 16.832 43.552 33.419c7.571 13.109 10.369 28.901 8.551 48.25-.702 7.482-1.535 14.183-2.338 20.671-3.61 29.108-6.264 50.608 11.744 84.591l-18.249 10.526c-22.279-34.99-48.733-45.549-72.221-54.899-4.961-1.977-9.646-3.841-14.258-5.911zm135.054 103.07c1.934 3.341 6.215 4.494 9.562 2.56 6.762-3.91 15.438-1.581 19.344 5.181a14.088 14.088 0 0 1 1.414 10.752 14.065 14.065 0 0 1-6.597 8.588 14.05 14.05 0 0 1-10.492 1.482 10.854 10.854 0 0 0-13.102 7.567 14.065 14.065 0 0 1-6.527 8.343 14.067 14.067 0 0 1-10.744 1.421 14.075 14.075 0 0 1-8.599-6.602 14.061 14.061 0 0 1-1.413-10.743 14.051 14.051 0 0 1 6.597-8.597 7.014 7.014 0 0 0 3.26-4.249 6.994 6.994 0 0 0-.698-5.312L163.71 234.98l17.997-10.39zm-57.06-29.278 23.877 41.357c-3.579 3.492-6.167 7.891-7.494 12.841-1.949 7.27-.949 14.86 2.812 21.372 3.761 6.508 9.834 11.171 17.1 13.119 2.425.649 4.886.969 7.332.969 4.88 0 9.696-1.28 14.036-3.779 5.516-3.19 9.72-8.061 12.055-13.9 6.229.899 12.549-.31 18.064-3.491 6.514-3.76 11.174-9.83 13.12-17.1 1.947-7.27.949-14.851-2.812-21.368-6.557-11.364-19.884-16.422-31.967-13.044l-23.878-41.371c-19.37-33.536-17.109-51.775-13.361-81.989.816-6.588 1.66-13.387 2.383-21.076 2.099-22.342-1.292-40.854-10.365-56.561-11.449-19.829-29.935-34.021-52.053-39.94-22.117-5.927-45.22-2.887-65.049 8.561-19.83 11.449-34.014 29.936-39.94 52.048-5.926 22.12-2.884 45.22 8.564 65.049 9.113 15.792 23.869 28.332 43.858 37.291 4.882 2.179 9.926 4.192 14.802 6.131 23.771 9.468 48.348 19.26 68.916 54.881zm233.795-92.784c-9.606 0-17.419-7.806-17.419-17.42 0-9.599 7.814-17.415 17.419-17.415 9.604 0 17.418 7.816 17.418 17.415 0 9.614-7.814 17.42-17.418 17.42zm0-48.838c-17.324 0-31.418 14.102-31.418 31.419 0 17.321 14.094 31.423 31.418 31.423s31.419-14.102 31.419-31.423c-.001-17.317-14.095-31.419-31.419-31.419zM454.949 278.1V127.801c0-39.004-31.727-70.724-70.724-70.724-39.001 0-70.726 31.72-70.726 70.724 0 28.539 16.999 54.137 43.309 65.218 24.73 10.409 39.89 29.57 42.688 53.93.832 7.27.286 13.288-.241 19.109-.346 3.802-.673 7.393-.594 11.208.335 16.512 12.436 28.972 28.149 28.972 15.514.001 28.139-12.629 28.139-28.138zM384.224 43.078c-46.719 0-84.727 38.001-84.727 84.723 0 34.19 20.362 64.847 51.876 78.121 14.054 5.915 31.399 18.116 34.211 42.627.673 5.84.213 10.889-.274 16.239-.364 4.019-.741 8.169-.647 12.761.493 24.337 18.611 42.689 42.146 42.689 23.235 0 42.138-18.907 42.138-42.138V127.801c0-46.722-38.006-84.723-84.723-84.723zM489.013 278.1V127.801c0-57.784-47.01-104.792-104.788-104.792-57.782 0-104.79 47.008-104.79 104.792 0 42.279 25.182 80.196 64.153 96.609 24.704 10.409 23.018 28.111 21.663 42.34-.355 3.717-.72 7.571-.647 11.209.708 34.962 28.031 62.339 62.205 62.339 34.299-.001 62.204-27.9 62.204-62.198zM384.224 9.01c-65.501 0-118.791 53.29-118.791 118.791 0 47.93 28.543 90.911 72.72 109.507 15.227 6.423 14.449 14.582 13.161 28.111-.392 4.122-.798 8.371-.708 12.823.864 42.646 34.336 76.06 76.202 76.06 42.018 0 76.202-34.181 76.202-76.201v-150.3C503.012 62.3 449.723 9.01 384.224 9.01zm-38.232 382.648a5.111 5.111 0 0 1 3.593-1.717c1.397-.094 2.722.386 3.757 1.318a5.19 5.19 0 0 1 1.718 3.6 5.152 5.152 0 0 1-1.325 3.75 5.137 5.137 0 0 1-3.595 1.722 5.087 5.087 0 0 1-3.756-1.322c-1.035-.927-1.645-2.212-1.718-3.6s.396-2.721 1.326-3.751zm-8.965 17.759a19.061 19.061 0 0 0 13.859 4.894 19.062 19.062 0 0 0 13.262-6.343 19.07 19.07 0 0 0 4.891-13.858c-.564-10.573-9.648-18.733-20.201-18.149a19.029 19.029 0 0 0-13.26 6.339 19.079 19.079 0 0 0-4.893 13.858 19.078 19.078 0 0 0 6.342 13.259zm-52.433 26.304-13.177 1.496c-3.84.442-6.6 3.901-6.165 7.741a6.994 6.994 0 0 0 6.946 6.211c.263 0 .531-.01.798-.038l14.039-1.591-27.68 11.797c-5.161 2.202-8.398 2.522-11.176 1.111-3.356-1.708-5.317-4.72-5.518-8.479l-.908-17.001c-.2-3.769 1.426-6.969 4.584-9.021 2.561-1.666 5.733-1.689 11.319-.056zm92.978-17.651a6.963 6.963 0 0 0-2.142 4.908 6.989 6.989 0 0 0 1.958 4.983l27.969 29.028c-15.032 8.837-30.527 16.022-45.752 21.33a5.48 5.48 0 0 0-.799.212c-15.117 5.167-31.479 1.219-43.769-10.564-15.646-14.997-20.627-38.698-13.322-63.397 1.095-3.713-1.022-7.613-4.729-8.701-3.706-1.101-7.6 1.021-8.698 4.729-2.048 6.931-3.267 13.82-3.7 20.54l-23.022-6.686c-6.483-1.892-14.942-3.393-22.864 1.755-7.415 4.833-11.398 12.672-10.928 21.504l.908 17.006c.473 8.832 5.268 16.201 13.155 20.21 3.389 1.722 6.758 2.372 9.946 2.372 5.014 0 9.578-1.6 13.063-3.077l28.303-12.074a65.865 65.865 0 0 0 12.2 15.933A61.038 61.038 0 0 0 319.07 488c-8.748 1.049-17.137 1.299-24.989.692-46.759-3.623-76.398-23.151-110.716-45.77l-4.412-2.913a6.978 6.978 0 0 0-3.847-1.148c-1.119 0-2.24.259-3.264.8l-37.979 20.031c-7.084 3.727-15.358 3.477-22.132-.701-4.138-2.541-7.216-6.249-8.957-10.583h17.46a6.997 6.997 0 0 0 7.001-6.997c0-3.858-3.136-7.002-7.001-7.002h-18.991l.183-9.957h44.923c3.866 0 7-3.143 7-7.002a6.997 6.997 0 0 0-7-7.002h-44.664l.184-9.971h18.364a6.994 6.994 0 0 0 7.001-6.997 7.002 7.002 0 0 0-7.001-7.002h-16.171c1.917-4.108 5.071-7.576 9.192-9.919 6.922-3.91 15.199-3.868 22.144.132l37.346 21.49a6.99 6.99 0 0 0 7.071-.061l3.487-2.08c33.642-20.06 65.422-39.018 113.381-41.752 31.996-1.831 72.638 11.42 110.084 35.644zm-157.403-75.651c-15.865 10.969-27.371 23.34-33.018 35.07 30.345-17.81 62.932-34.571 108.736-37.183 11.237-.64 23.402.4 36.062 2.95-2.535-10.578-9.187-19.547-15.102-24.68-5.093-4.409-10.519-6.818-14.163-6.268-.138.019-.277.042-.417.047-28.169 2.514-58.093 13.473-82.098 30.064zm204.684 45.959a6.987 6.987 0 0 0-2.99-5.19c-24.272-16.799-50.314-29.249-75.14-36.326-1.546-14.192-9.302-28.962-20.704-38.854-8.383-7.27-17.313-10.667-25.184-9.58-30.452 2.753-62.743 14.582-88.628 32.473-22.061 15.26-36.563 33-41.291 50.067L142.38 364.55c-11.28-6.489-24.746-6.55-36.025-.169-11.277 6.376-18.153 17.956-18.394 30.967l-.813 43.931c-.239 13.011 6.206 24.841 17.24 31.631 11.034 6.799 24.493 7.232 36.005 1.162l34.317-18.093.95.621c34.44 22.709 66.975 44.147 117.338 48.048 3.134.245 6.334.362 9.608.362 35.47 0 78.621-14.079 117.587-38.67a7.011 7.011 0 0 0 3.213-5.082 6.992 6.992 0 0 0-1.908-5.698l-29.173-30.271 30.41-29.31a6.98 6.98 0 0 0 2.118-5.601z" fill="#000000" opacity="1" data-original="#000000"></path></g></g></svg>