<svg xmlns="http://www.w3.org/2000/svg" version="1.1" xmlns:xlink="http://www.w3.org/1999/xlink" width="512" height="512" x="0" y="0" viewBox="0 0 512 512" style="enable-background:new 0 0 512 512" xml:space="preserve" class=""><g><circle cx="176.5" cy="282" r="136" fill="#e2dee2" opacity="1" data-original="#e2dee2"></circle><path fill="#d6d0d6" d="M176.5 146c-75.11 0-136 60.89-136 136s60.89 136 136 136 136-60.89 136-136-60.89-136-136-136zm-1 243c-57.9 0-105-47.1-105-105s47.1-105 105-105 105 47.1 105 105-47.1 105-105 105z" opacity="1" data-original="#d6d0d6"></path><circle cx="164.5" cy="280.5" r="60" fill="#ffc571" opacity="1" data-original="#ffc571"></circle><circle cx="229.5" cy="287" r="60" fill="#ffd766" opacity="1" data-original="#ffd766"></circle><circle cx="77.5" cy="240.5" r="60" fill="#ffe564" opacity="1" data-original="#ffe564"></circle><path fill="#ffd766" d="M70.5 284c0 5.52.43 10.93 1.25 16.22-11.67-1.1-22.36-5.55-31.12-12.38-.09-1.94-.13-3.88-.13-5.84 0-40.07 17.33-76.09 44.9-100.98 12.47 1.64 23.74 7.11 32.58 15.18C89.4 214.98 70.5 247.32 70.5 284z" opacity="1" data-original="#ffd766"></path><circle cx="89.5" cy="337.5" r="60" fill="#ffd766" opacity="1" data-original="#ffd766"></circle><path fill="#ffc571" d="M132.2 379.65c-4.569 4.632-2.99 19.12-8.86 22.074-4.383 2.205-15.97-6.711-20.89-5.633-32.24-20.96-55.04-55.23-60.62-95.02 7.22-9.45 17.2-16.69 28.73-20.52-.04 1.15-.06 2.3-.06 3.45 0 42.469 25.34 79.129 61.7 95.649z" opacity="1" data-original="#ffc571"></path><path fill="#ffe564" d="M234.5 369.5c0 33.137-20.703 56.989-53.84 56.989s-66.044-23.749-66.044-56.886c0-.027-.116-.156-.116-.183.043-33.1 26.889-59.92 60-59.92 33.137 0 60 26.863 60 60z" opacity="1" data-original="#ffe564"></path><path fill="#ffd766" d="M234.48 370.82c-.197 9.262 2.651 21.408-1.289 29.18-2.875 5.671-11.769 7.421-16.211 11.88-12.79 3.98-26.38 6.12-40.48 6.12-16.29 0-31.91-2.86-46.39-8.11-9.69-10.67-15.61-24.84-15.61-40.39v-.08c17.2 12.33 38.27 19.58 61 19.58 21.85 0 42.16-6.71 58.98-18.18z" opacity="1" data-original="#ffd766"></path><path fill="#f3f0f3" d="M343.5 471.5v26.053L23.681 498c-5.52 0-10-4.48-10-10L7.5 471.5l157-5.436z" opacity="1" data-original="#f3f0f3"></path><path fill="#f47c7c" d="m7.5 41.5 10.672 208L7.5 471.5h336v-430l-168-11.691zm168 367.5c-69.04 0-125-55.96-125-125s55.96-125 125-125 125 55.96 125 125-55.96 125-125 125z" opacity="1" data-original="#f47c7c"></path><path fill="#f3f0f3" d="M343.5 17.5v24H7.5l3.33-19.394c0-5.52 4.48-10 10-10L27.5 7.5h306c5.52 0 10 4.48 10 10z" opacity="1" data-original="#f3f0f3"></path><path fill="#e2dee2" d="M343.5 487.5v11.628L234 504.5H17.5c-5.52 0-10-4.48-10-10v-23l10-11.394 10 11.394v9c0 3.87 3.13 7 7 7z" opacity="1" data-original="#e2dee2"></path><path fill="#ee6161" d="M27.5 41.5v430h-20v-430l10-6.951z" opacity="1" data-original="#ee6161"></path><path fill="#e2dee2" d="M27.5 7.5v34h-20v-24c0-5.52 4.48-10 10-10z" opacity="1" data-original="#e2dee2"></path><path fill="#f3f0f3" d="M244 128.5H89.5c-5.523 0-10-4.477-10-10v-28c0-5.523 4.477-10 10-10H244z" opacity="1" data-original="#f3f0f3"></path><path fill="#d89a71" d="M467.809 271.5H249l-1.362-189.436c0-5.709 4.628-10.336 10.336-10.336L262 68.5h201.664c5.709 0 10.336 4.628 10.336 10.336V247.5z" opacity="1" data-original="#d89a71"></path><path fill="#ce8b5d" d="M474 247.5v24H244V78.84c0-5.711 4.629-10.34 10.34-10.34H262v175a4 4 0 0 0 4 4z" opacity="1" data-original="#ce8b5d"></path><g fill="#ce8b5d"><path d="M339.5 168.5h-62a4 4 0 0 1-4-4v-62a4 4 0 0 1 4-4h62a4 4 0 0 1 4 4v62a4 4 0 0 1-4 4zM439.5 168.5h-62a4 4 0 0 1-4-4v-62a4 4 0 0 1 4-4h62a4 4 0 0 1 4 4v62a4 4 0 0 1-4 4zM339.5 287h-62a4 4 0 0 1-4-4v-80.5a4 4 0 0 1 4-4h62a4 4 0 0 1 4 4V283a4 4 0 0 1-4 4zM439.5 287h-62a4 4 0 0 1-4-4v-80.5a4 4 0 0 1 4-4h62a4 4 0 0 1 4 4V283a4 4 0 0 1-4 4z" fill="#ce8b5d" opacity="1" data-original="#ce8b5d"></path></g><g fill="#bc7a4d"><path d="M373.5 247.5h70v24h-70zM273.5 247.5h70v24h-70z" fill="#bc7a4d" opacity="1" data-original="#bc7a4d"></path></g><path fill="#f3f0f3" d="M489 444.5v40l-5.383 10.777c0 2.76-2.24 5-5 5l-239.137-3.319c-2.76 0-5-2.24-5-5L229 444.5l151.83-12.649z" opacity="1" data-original="#f3f0f3"></path><path fill="#afe593" d="M489 282v162.5H234.48v-164L411.532 268z" opacity="1" data-original="#afe593"></path><path fill="#e2dee2" d="M489 484.5v15c0 2.76-2.24 5-5 5H234c-2.76 0-5-2.24-5-5v-55l10-15 10 15v36c0 2.21 1.79 4 4 4z" opacity="1" data-original="#e2dee2"></path><path fill="#97da7b" d="M229 268.5h20v176h-20z" opacity="1" data-original="#97da7b" class=""></path><path fill="#97da7b" d="M494.5 348h-46.038a10 10 0 0 1-9.363-6.489L411.532 268l-27.567 73.511a10 10 0 0 1-9.363 6.489H249l-23.362-4.447c-5.523 0-10-4.477-10-10L214.5 284c0-5.523 4.477-10 10-10l24.5-6h245.5c5.523 0 10 4.477 10 10v60c0 5.523-4.477 10-10 10z" opacity="1" data-original="#97da7b" class=""></path><path fill="#80d261" d="M249 268v80h-27.5c-5.52 0-10-4.48-10-10v-60c0-5.52 4.48-10 10-10z" opacity="1" data-original="#80d261"></path><path fill="#f3f0f3" d="M437.5 411.5h-156a2 2 0 0 1-2-2v-26a2 2 0 0 1 2-2h156a2 2 0 0 1 2 2v26a2 2 0 0 1-2 2z" opacity="1" data-original="#f3f0f3"></path><path d="M273.5 91a7.5 7.5 0 0 0-7.5 7.5v70a7.5 7.5 0 0 0 7.5 7.5h70a7.5 7.5 0 0 0 7.5-7.5v-70a7.5 7.5 0 0 0-7.5-7.5zm62.5 70h-55v-55h55zM373.5 91a7.5 7.5 0 0 0-7.5 7.5v70a7.5 7.5 0 0 0 7.5 7.5h70a7.5 7.5 0 0 0 7.5-7.5v-70a7.5 7.5 0 0 0-7.5-7.5zm62.5 70h-55v-55h55z" fill="#000000" opacity="1" data-original="#000000"></path><path d="M494.5 260.5h-13v-75.266c0-4.143-3.358-7.5-7.5-7.5s-7.5 3.357-7.5 7.5V260.5H451v-62a7.5 7.5 0 0 0-7.5-7.5h-70a7.5 7.5 0 0 0-7.5 7.5v62h-15v-62a7.5 7.5 0 0 0-7.5-7.5h-70a7.5 7.5 0 0 0-7.5 7.5v62h-14.5V78.837A2.84 2.84 0 0 1 254.336 76h209.327a2.84 2.84 0 0 1 2.836 2.837v71.397c0 4.143 3.358 7.5 7.5 7.5s7.5-3.357 7.5-7.5V78.837c0-9.835-8.001-17.837-17.836-17.837H351V17.5C351 7.851 343.149 0 333.5 0h-316C7.851 0 0 7.851 0 17.5v341c0 4.143 3.358 7.5 7.5 7.5s7.5-3.357 7.5-7.5V45h83.477c4.142 0 7.5-3.357 7.5-7.5s-3.358-7.5-7.5-7.5H15V17.5c0-1.379 1.122-2.5 2.5-2.5h316c1.378 0 2.5 1.121 2.5 2.5V30H133.477c-4.142 0-7.5 3.357-7.5 7.5s3.358 7.5 7.5 7.5H336v16h-81.664c-7.789 0-14.41 5.027-16.836 12h-148C79.851 73 72 80.851 72 90.5v28c0 9.649 7.851 17.5 17.5 17.5h147v30.367c-18.765-9.748-39.608-14.867-61-14.867C102.439 151.5 43 210.939 43 284s59.439 132.5 132.5 132.5c15.908 0 31.333-2.757 46-8.201V437h-138c-4.142 0-7.5 3.357-7.5 7.5s3.358 7.5 7.5 7.5h138v15H15v-73.5c0-4.143-3.358-7.5-7.5-7.5S0 389.357 0 393.5v101c0 9.649 7.851 17.5 17.5 17.5H489a7.5 7.5 0 0 0 7.5-7.5V355.377c8.71-.997 15.5-8.405 15.5-17.377v-60c0-9.649-7.851-17.5-17.5-17.5zM381 206h55v54.5h-55zm100.5 231h-245v-81.5h19.202c4.142 0 7.5-3.357 7.5-7.5s-3.358-7.5-7.5-7.5H221.5a2.503 2.503 0 0 1-2.5-2.5v-60c0-1.379 1.122-2.5 2.5-2.5h179.209l-23.766 63.378a2.512 2.512 0 0 1-2.341 1.622h-83.9c-4.142 0-7.5 3.357-7.5 7.5s3.358 7.5 7.5 7.5h83.9c7.253 0 13.838-4.562 16.386-11.354l20.544-54.785 20.545 54.785c2.547 6.792 9.132 11.354 16.385 11.354H481.5zM281 206h55v54.5h-55zm-59.5 54.5c-9.649 0-17.5 7.851-17.5 17.5v30.755c-7.716-3.766-16.074-5.987-24.768-6.581A52.399 52.399 0 0 1 177 287c0-28.948 23.551-52.5 52.5-52.5 2.348 0 4.686.171 7 .479V260.5zm-71.888 46.275c-4.802-9.362-11.699-17.345-19.964-23.46 11.339-13.957 17.186-32.519 14.812-51.326a52.704 52.704 0 0 1 20.039-3.988c8.398 0 16.444 1.933 23.728 5.644C172.289 246.001 162 265.316 162 287c0 5.387.627 10.687 1.87 15.844a66.901 66.901 0 0 0-14.258 3.931zM89.5 121a2.503 2.503 0 0 1-2.5-2.5v-28c0-1.379 1.122-2.5 2.5-2.5h147v33zm147 62.565v36.303a68.07 68.07 0 0 0-7-.368 67.109 67.109 0 0 0-26.626 5.484C191.655 217.235 178.205 213 164.5 213a67.819 67.819 0 0 0-23.593 4.255 67.078 67.078 0 0 0-26.721-33.451c17.861-10.97 38.86-17.305 61.314-17.305 21.642.001 42.65 5.896 61 17.066zm-135.752 9.845C118.641 202.222 130 220.303 130 240.5c0 13.002-4.895 25.573-13.545 35.172C108.099 272.011 98.951 270 89.5 270a67.629 67.629 0 0 0-31.332 7.724c1.792-33.875 17.996-63.991 42.58-84.314zM58.53 295.119A52.583 52.583 0 0 1 89.5 285c19.865 0 38.029 11.38 46.873 28.838C118.651 326.015 107 346.419 107 369.5c0 3.557.292 7.058.828 10.503-27.27-19.28-45.996-49.87-49.298-84.884zM175.5 401.5c-17.476 0-34.07-3.841-48.991-10.714-2.983-6.7-4.509-13.846-4.509-21.286 0-28.948 23.551-52.5 52.5-52.5 10.667 0 20.794 3.134 29.5 9.075V338c0 9.649 7.851 17.5 17.5 17.5v36.647c-14.539 6.202-29.99 9.353-46 9.353zM15 494.5V482h206.5v15h-204a2.503 2.503 0 0 1-2.5-2.5zm221.5 2.5v-45h245v45zM497 338c0 1.379-1.122 2.5-2.5 2.5h-46.038a2.512 2.512 0 0 1-2.341-1.622L422.354 275.5H494.5c1.378 0 2.5 1.121 2.5 2.5z" fill="#000000" opacity="1" data-original="#000000"></path><path d="M409.5 467h-100c-4.142 0-7.5 3.357-7.5 7.5s3.358 7.5 7.5 7.5h100c4.142 0 7.5-3.357 7.5-7.5s-3.358-7.5-7.5-7.5zM439.5 374h-160a7.5 7.5 0 0 0-7.5 7.5v30a7.5 7.5 0 0 0 7.5 7.5h160a7.5 7.5 0 0 0 7.5-7.5v-30a7.5 7.5 0 0 0-7.5-7.5zm-7.5 30H287v-15h145z" fill="#000000" opacity="1" data-original="#000000"></path></g></svg>